<svg xmlns="http://www.w3.org/2000/svg" width="512" height="512" viewBox="0 0 512 512" fill="none"><metadata><rdf:RDF xmlns:rdf="http://www.w3.org/1999/02/22-rdf-syntax-ns#" xmlns:dc="http://purl.org/dc/elements/1.1/"><rdf:Description><dc:creator>RealFaviconGenerator</dc:creator><dc:source>https://realfavicongenerator.net</dc:source></rdf:Description></rdf:RDF></metadata><path d="M189.467 32.9109C176.533 55.0443 163.467 78.5109 163.867 78.9109C164.8 79.7109 301.067 125.844 302.8 125.844C303.733 125.844 305.067 123.844 305.867 121.444C314.933 92.3776 318 81.9776 318 80.3776C318 79.1776 296.267 69.5776 257.733 53.8443C224.667 40.2443 196.533 28.7776 195.2 28.2443C193.2 27.4443 192 28.5109 189.467 32.9109Z" fill="#0A426B"></path><path d="M221.333 157.311C217.733 157.578 204.8 158.378 192.667 159.311C171.067 160.778 120.933 166.378 119.867 167.578C118.8 168.644 109.6 243.178 110.4 243.978C111.2 244.778 146.4 250.511 155.733 251.444L160.8 251.844L165.867 239.178C175.067 215.711 173.333 216.511 218.4 216.511C253.867 216.511 264.8 217.844 274.8 222.911C280.933 226.111 286.133 231.444 289.2 237.578C292.267 243.444 294 259.978 293.067 273.578L292.267 284.511L288.133 283.978C278.4 282.378 260.4 281.711 235.733 281.711C195.867 281.711 172.8 286.378 147.867 299.711C108.8 320.511 90 351.178 90 393.844C90 422.111 101.467 446.644 122 461.978C153.467 485.578 212.933 491.311 254.267 474.644C267.867 469.178 276.933 462.911 289.6 450.244L302 438.111V457.311V476.511H359.733H417.467L419.867 451.044C421.6 432.511 421.867 425.178 420.8 424.511C420 424.111 410.533 422.644 399.867 421.444C378.667 418.911 373.867 417.311 371.467 411.444C370.267 408.511 369.733 385.978 369.467 325.044C369.333 252.378 368.933 241.311 366.933 232.778C357.067 190.511 327.067 166.511 275.2 159.311C264.133 157.844 231.467 156.511 221.333 157.311ZM266.933 335.178C276.4 335.978 286 336.911 288.4 337.311L292.667 337.978V347.711C292.667 368.511 284.4 388.778 270 403.311C254.533 418.911 236.4 425.444 210.8 424.244C198.4 423.711 195.867 423.178 188.133 419.311C178 414.378 172 407.844 169.333 398.644C163.2 378.111 171.467 354.911 188.933 343.178C193.333 340.244 197.333 337.844 197.867 337.844C198.267 337.711 201.733 336.911 205.333 335.844C213.467 333.578 243.2 333.311 266.933 335.178Z" fill="#0A426B"></path><style>@media (prefers-color-scheme: light) { :root { filter: none; } }
@media (prefers-color-scheme: dark) { :root { filter: invert(100%); } }
</style></svg>