<?xml version="1.0" standalone="no"?>
<!DOCTYPE svg PUBLIC "-//W3C//DTD SVG 1.1//EN" "http://www.w3.org/Graphics/SVG/1.1/DTD/svg11.dtd" >
<svg xmlns="http://www.w3.org/2000/svg" xmlns:xlink="http://www.w3.org/1999/xlink" version="1.1">
<metadata>
Created by FontXChange 20190801 at Fri Jun 19 09:25:06 2020
 By Sarah Hähnle
</metadata>
<defs>
<font id="Segment-Regular" horiz-adv-x="641" >
  <font-face 
    font-family="Segment"
    font-weight="400"
    font-stretch="normal"
    units-per-em="1000"
    panose-1="0 0 0 0 0 0 0 0 0 0"
    ascent="800"
    descent="-200"
    x-height="501"
    cap-height="700"
    bbox="-57 -234 1047 960"
    underline-thickness="50"
    underline-position="-125"
    stemh="79"
    stemv="68"
    unicode-range="U+000D-FB02"
  />
<missing-glyph horiz-adv-x="580" 
d="M501 560h-422v60h422v-60zM501 480h-422v60h422v-60zM501 80h-422v60h422v-60zM501 640h-422v60h422v-60zM79 240v60h422v-60h-422zM79 160v60h422v-60h-422zM79 400v60h422v-60h-422zM79 320v60h422v-60h-422zM79 0v60h422v-60h-422z" />
    <glyph glyph-name="fi" unicode="fi" horiz-adv-x="527" 
d="M111 432h-80v69h80v64c0 96 38 165 144 165c27 0 48 -3 50 -3v-75c-1 0 -32 6 -58 1c-36 -7 -54 -28 -54 -80v-72h262v-501h-82v432h-180v-432h-82v432zM358 676c0 32 24 56 56 56c31 0 56 -24 56 -56s-25 -56 -56 -56c-32 0 -56 24 -56 56z" />
    <glyph glyph-name="fl" unicode="fl" horiz-adv-x="527" 
d="M111 432h-80v69h80v63c0 96 38 156 144 156h199v-720h-82v644l-120 -1c-37 0 -59 -19 -59 -70v-72h108v-69h-108v-432h-82v432z" />
    <glyph glyph-name=".notdef" horiz-adv-x="580" 
d="M501 560h-422v60h422v-60zM501 480h-422v60h422v-60zM501 80h-422v60h422v-60zM501 640h-422v60h422v-60zM79 240v60h422v-60h-422zM79 160v60h422v-60h-422zM79 400v60h422v-60h-422zM79 320v60h422v-60h-422zM79 0v60h422v-60h-422z" />
    <glyph glyph-name="uni0000" horiz-adv-x="0" 
 />
    <glyph glyph-name="uni0000" horiz-adv-x="0" 
 />
    <glyph glyph-name="uni000D" unicode="&#xd;" horiz-adv-x="250" 
 />
    <glyph glyph-name="space" unicode=" " horiz-adv-x="247" 
 />
    <glyph glyph-name="A" unicode="A" horiz-adv-x="658" 
d="M121 0h-94l254 700h97l254 -700h-94l-56 163h-305zM329 607l-126 -365h253z" />
    <glyph glyph-name="B" unicode="B" horiz-adv-x="651" 
d="M87 0v700h285c107 0 195 -75 195 -184c0 -68 -35 -112 -92 -143c71 -26 115 -97 115 -171c0 -113 -92 -202 -203 -202h-300zM173 79h210c68 0 121 51 121 119c0 67 -51 130 -121 130h-210v-249zM173 621v-215h201c61 0 107 48 107 109c0 63 -50 106 -111 106h-197z" />
    <glyph glyph-name="C" unicode="C" horiz-adv-x="741" 
d="M395 -10c-207 0 -340 160 -340 360c0 201 133 360 340 360c139 0 251 -74 299 -205l-85 -15c-39 91 -110 141 -209 141c-162 0 -259 -127 -259 -281s97 -281 259 -281c99 0 170 50 209 141l85 -15c-48 -131 -160 -205 -299 -205z" />
    <glyph glyph-name="D" unicode="D" horiz-adv-x="720" 
d="M87 0v700h230c211 0 348 -141 348 -350c0 -201 -146 -350 -348 -350h-230zM173 621v-542h148c147 0 258 112 258 271c0 167 -102 271 -258 271h-148z" />
    <glyph glyph-name="E" unicode="E" horiz-adv-x="576" 
d="M87 0v700h423v-79h-337v-232h318v-77h-318v-233h337v-79h-423z" />
    <glyph glyph-name="F" unicode="F" horiz-adv-x="543" 
d="M87 0v700h413v-79h-327v-244h304v-77h-304v-300h-86z" />
    <glyph glyph-name="G" unicode="G" horiz-adv-x="780" 
d="M55 350c0 198 136 360 345 360c129 0 231 -61 296 -174l-90 -17c-46 72 -118 112 -207 112c-158 0 -258 -129 -258 -286c0 -158 102 -276 259 -276c138 0 241 90 241 221h-226v79h309c1 -20 1 -37 1 -43c0 -203 -133 -336 -321 -336c-201 0 -349 155 -349 360z" />
    <glyph glyph-name="H" unicode="H" horiz-adv-x="718" 
d="M87 0v700h86v-321h373v321h86v-700h-86v303h-373v-303h-86z" />
    <glyph glyph-name="I" unicode="I" horiz-adv-x="260" 
d="M173 0h-86v700h86v-700z" />
    <glyph glyph-name="J" unicode="J" horiz-adv-x="554" 
d="M29 196l84 15c7 -89 62 -142 141 -142c83 0 133 59 133 143v488h86v-488c0 -135 -86 -222 -216 -222c-131 0 -218 88 -228 206z" />
    <glyph glyph-name="K" unicode="K" 
d="M173 0h-86v700h86v-342l309 342h114l-287 -315l307 -385h-110l-255 325l-78 -87v-238z" />
    <glyph glyph-name="L" unicode="L" horiz-adv-x="521" 
d="M173 79h327v-79h-413v700h86v-621z" />
    <glyph glyph-name="M" unicode="M" horiz-adv-x="840" 
d="M87 700h106l227 -570l227 570h106v-700h-86v553l-219 -553h-56l-220 553v-553h-85v700z" />
    <glyph glyph-name="N" unicode="N" horiz-adv-x="718" 
d="M87 0v700h86l372 -559v559h86v-700h-87l-371 559v-559h-86z" />
    <glyph glyph-name="O" unicode="O" horiz-adv-x="800" 
d="M55 350c0 197 144 360 345 360s345 -163 345 -360s-144 -360 -345 -360s-345 163 -345 360zM400 631c-156 0 -259 -130 -259 -281c0 -150 103 -281 259 -281s259 131 259 281c0 151 -103 281 -259 281z" />
    <glyph glyph-name="P" unicode="P" horiz-adv-x="614" 
d="M173 0h-86v700h260c127 0 225 -96 225 -223c0 -128 -98 -223 -225 -223h-174v-254zM173 621v-289h172c81 0 140 63 140 145s-59 144 -140 144h-172z" />
    <glyph glyph-name="Q" unicode="Q" horiz-adv-x="802" 
d="M400 -10c-199 0 -345 161 -345 360s146 360 345 360s345 -161 345 -360c0 -93 -34 -176 -88 -239l61 -61l-60 -60l-63 64c-56 -39 -121 -64 -195 -64zM400 631c-153 0 -259 -128 -259 -281s106 -281 259 -281c52 0 97 16 136 43l-124 124l60 59l127 -127
c40 48 60 113 60 182c0 153 -107 281 -259 281z" />
    <glyph glyph-name="R" unicode="R" horiz-adv-x="637" 
d="M173 0h-86v700h249c128 0 231 -91 231 -218c0 -94 -58 -170 -138 -205l161 -277h-99l-147 257h-171v-257zM173 621v-285h162c81 0 146 64 146 146s-65 139 -146 139h-162z" />
    <glyph glyph-name="S" unicode="S" horiz-adv-x="606" 
d="M55 180l84 15c15 -82 91 -128 170 -128c75 0 155 40 155 120c0 69 -59 98 -131 121c-116 38 -265 61 -265 208c0 125 109 194 224 194c110 0 208 -62 235 -175l-84 -15c-19 74 -77 113 -148 113c-75 0 -141 -44 -141 -113c0 -66 60 -94 134 -117
c114 -37 262 -63 262 -211c0 -131 -117 -202 -243 -202c-121 0 -225 67 -252 190z" />
    <glyph glyph-name="T" unicode="T" horiz-adv-x="568" 
d="M23 700h522v-79h-218v-621h-86v621h-218v79z" />
    <glyph glyph-name="U" unicode="U" horiz-adv-x="679" 
d="M81 259v441h86v-441c0 -98 52 -190 172 -190s173 92 173 190v441h86v-441c0 -151 -97 -269 -259 -269c-161 0 -258 118 -258 269z" />
    <glyph glyph-name="V" unicode="V" horiz-adv-x="634" 
d="M25 700h93l199 -599l199 599h94l-242 -700h-102z" />
    <glyph glyph-name="W" unicode="W" horiz-adv-x="936" 
d="M220 0l-189 700h87l152 -587l170 587h57l169 -587l153 587h87l-189 -700h-96l-153 531l-152 -531h-96z" />
    <glyph glyph-name="X" unicode="X" horiz-adv-x="631" 
d="M130 0h-103l240 366l-220 334h103l165 -263l166 263h103l-221 -334l241 -366h-103l-186 292z" />
    <glyph glyph-name="Y" unicode="Y" horiz-adv-x="610" 
d="M19 700h98l188 -336l188 336h98l-243 -423v-277h-86v277z" />
    <glyph glyph-name="Z" unicode="Z" horiz-adv-x="593" 
d="M142 79h412v-79h-513v76l402 545h-392v79h493v-76z" />
    <glyph glyph-name="a" unicode="a" horiz-adv-x="548" 
d="M221 -10c-98 0 -170 64 -170 152c0 163 241 169 348 174v21c0 63 -64 100 -126 100c-63 0 -118 -38 -126 -96l-79 13c16 94 107 157 211 157c112 0 202 -79 202 -178v-333h-82v83c-40 -60 -90 -93 -178 -93zM399 247c-24 -2 -266 4 -266 -107c0 -55 52 -77 109 -77
c91 0 157 74 157 157v27z" />
    <glyph glyph-name="b" unicode="b" horiz-adv-x="625" 
d="M73 720h82v-302c37 57 104 93 183 93c139 0 238 -112 238 -261c0 -148 -99 -260 -238 -260c-79 0 -147 36 -183 93v-83h-82v720zM325 436c-108 0 -171 -80 -171 -186c0 -105 63 -186 171 -186c102 0 169 72 169 186s-66 186 -169 186z" />
    <glyph glyph-name="c" unicode="c" horiz-adv-x="565" 
d="M49 250c0 149 100 261 251 261c102 0 201 -67 224 -170l-80 -14c-18 68 -74 109 -144 109c-110 0 -169 -81 -169 -186s59 -186 169 -186c70 0 126 42 144 110l80 -14c-23 -104 -121 -170 -224 -170c-151 0 -251 112 -251 260z" />
    <glyph glyph-name="d" unicode="d" horiz-adv-x="625" 
d="M287 511c79 0 146 -36 183 -93v302h82v-720h-82v83c-36 -57 -104 -93 -183 -93c-139 0 -238 112 -238 260c0 149 99 261 238 261zM300 64c108 0 170 81 170 186c0 106 -62 186 -170 186c-103 0 -169 -72 -169 -186s67 -186 169 -186z" />
    <glyph glyph-name="e" unicode="e" horiz-adv-x="589" 
d="M302 -10c-151 0 -253 111 -253 259c0 146 99 262 249 262c152 0 243 -121 243 -269c0 -6 0 -12 -1 -18h-411c5 -92 79 -160 172 -160c63 0 122 30 150 88l79 -14c-43 -95 -124 -148 -228 -148zM132 293h325c-6 83 -80 144 -159 144c-85 0 -154 -60 -166 -144z" />
    <glyph glyph-name="f" unicode="f" horiz-adv-x="328" 
d="M111 432h-80v69h80v64c0 96 38 165 144 165c27 0 48 -3 50 -3v-75c-1 0 -32 6 -58 1c-36 -7 -54 -28 -54 -80v-72h108v-69h-108v-432h-82v432z" />
    <glyph glyph-name="g" unicode="g" horiz-adv-x="624" 
d="M49 256c0 136 93 255 236 255c70 0 145 -33 184 -93v83h82v-493c0 -153 -99 -238 -249 -238c-107 0 -199 43 -230 149l84 15c20 -67 84 -90 150 -90c105 0 163 58 163 164v76c-37 -58 -110 -83 -177 -83c-145 0 -243 114 -243 255zM131 256c0 -104 61 -181 168 -181
c106 0 170 78 170 181s-64 180 -170 180c-107 0 -168 -76 -168 -180z" />
    <glyph glyph-name="h" unicode="h" horiz-adv-x="572" 
d="M155 0h-82v720h82v-309c26 44 83 100 167 100c110 0 183 -94 183 -184v-327h-82v308c0 71 -40 128 -117 128c-90 0 -151 -80 -151 -183v-253z" />
    <glyph glyph-name="i" unicode="i" horiz-adv-x="227" 
d="M155 0h-82v501h82v-501zM58 676c0 32 24 56 56 56c31 0 55 -24 55 -56s-24 -56 -55 -56c-32 0 -56 24 -56 56z" />
    <glyph glyph-name="j" unicode="j" horiz-adv-x="234" 
d="M-57 -154c103 -9 136 21 136 126v529h82v-527c0 -131 -44 -204 -189 -204c-10 0 -29 1 -29 1v75zM120 620c-31 0 -56 24 -56 56s25 56 56 56c32 0 56 -24 56 -56s-24 -56 -56 -56z" />
    <glyph glyph-name="k" unicode="k" horiz-adv-x="535" 
d="M73 701h82v-429l228 229h109l-203 -204l219 -297h-98l-179 242l-76 -77v-165h-82v701z" />
    <glyph glyph-name="l" unicode="l" horiz-adv-x="227" 
d="M155 0h-82v720h82v-720z" />
    <glyph glyph-name="m" unicode="m" horiz-adv-x="878" 
d="M73 0v501h82v-84c33 62 92 94 154 94c73 0 132 -45 154 -110c34 72 100 110 173 110c112 0 175 -91 175 -202v-309h-81v307c0 75 -41 129 -112 129c-89 0 -133 -83 -133 -167v-269h-82v307c0 75 -41 129 -113 129c-88 0 -135 -83 -135 -167v-269h-82z" />
    <glyph glyph-name="n" unicode="n" horiz-adv-x="572" 
d="M155 0h-82v501h82v-85c26 45 83 95 165 95c112 0 185 -94 185 -184v-327h-82v308c0 71 -40 128 -118 128c-89 0 -150 -74 -150 -178v-258z" />
    <glyph glyph-name="o" unicode="o" horiz-adv-x="612" 
d="M49 250c0 150 105 261 258 261c152 0 256 -111 256 -261s-104 -260 -256 -260c-153 0 -258 110 -258 260zM306 436c-109 0 -173 -78 -173 -186c0 -107 64 -186 173 -186s173 79 173 186c0 108 -64 186 -173 186z" />
    <glyph glyph-name="p" unicode="p" horiz-adv-x="625" 
d="M155 -220h-82v721h82v-83c36 57 104 93 183 93c139 0 238 -112 238 -261c0 -148 -99 -260 -238 -260c-79 0 -146 36 -183 93v-303zM325 65c103 0 169 72 169 185c0 115 -67 186 -169 186c-108 0 -171 -80 -171 -186c0 -105 63 -185 171 -185z" />
    <glyph glyph-name="q" unicode="q" horiz-adv-x="625" 
d="M287 -10c-139 0 -238 112 -238 260s99 261 238 261c79 0 147 -36 183 -93v83h82v-721h-82v303c-37 -57 -104 -93 -183 -93zM300 436c-102 0 -169 -71 -169 -186c0 -113 66 -185 169 -185c108 0 170 80 170 185c0 106 -62 186 -170 186z" />
    <glyph glyph-name="r" unicode="r" horiz-adv-x="364" 
d="M73 0v501h82v-85c35 63 82 94 154 94c10 1 18 1 29 -1v-74c-119 11 -183 -63 -183 -180v-255h-82z" />
    <glyph glyph-name="s" unicode="s" horiz-adv-x="482" 
d="M250 -10c-93 0 -191 48 -205 148l80 14c14 -58 61 -88 119 -88c44 0 110 17 110 72c0 51 -58 67 -123 83c-82 21 -177 44 -177 142c0 96 89 151 177 151c82 0 174 -50 189 -137l-79 -14c-12 49 -58 77 -107 77c-42 0 -100 -22 -100 -72c0 -47 53 -62 115 -77
c85 -21 186 -43 186 -149c0 -102 -95 -150 -185 -150z" />
    <glyph glyph-name="t" unicode="t" horiz-adv-x="340" 
d="M29 432v69h81v127l80 14v-141h109v-69h-108v-284c0 -55 7 -84 68 -84c15 0 30 2 44 7v-75c-19 -4 -39 -6 -58 -6c-95 0 -136 55 -136 146v296h-80z" />
    <glyph glyph-name="u" unicode="u" horiz-adv-x="574" 
d="M69 501h82v-308c0 -71 40 -128 118 -128c89 0 150 74 150 177v259h82v-501h-82v85c-26 -45 -83 -95 -165 -95c-112 0 -185 94 -185 183v328z" />
    <glyph glyph-name="v" unicode="v" horiz-adv-x="516" 
d="M25 501h86l147 -402l147 402h86l-193 -501h-81z" />
    <glyph glyph-name="w" unicode="w" horiz-adv-x="798" 
d="M186 0l-159 501h84l119 -405l132 405h74l132 -405l120 405h83l-159 -501h-85l-128 389l-128 -389h-85z" />
    <glyph glyph-name="x" unicode="x" horiz-adv-x="523" 
d="M128 0h-99l182 257l-174 244h99l126 -186l125 186h99l-174 -244l182 -257h-99l-133 198z" />
    <glyph glyph-name="y" unicode="y" horiz-adv-x="519" 
d="M23 501h86l157 -386l144 386h86l-280 -721h-89l97 239z" />
    <glyph glyph-name="z" unicode="z" horiz-adv-x="497" 
d="M147 75h312v-75h-420v64l302 362h-292v75h400v-64z" />
    <glyph glyph-name="copyright" unicode="&#xa9;" horiz-adv-x="843" 
d="M69 350c0 197 148 360 352 360c205 0 353 -163 353 -360s-148 -360 -353 -360c-204 0 -352 163 -352 360zM421 638c-164 0 -275 -134 -275 -288s111 -288 275 -288c165 0 275 134 275 288s-110 288 -275 288zM226 350c0 115 79 209 195 209c93 0 162 -59 187 -142
l-73 -13c-17 50 -58 85 -114 85c-76 0 -122 -64 -122 -139s46 -138 122 -138c57 0 97 35 114 84l72 -12c-24 -82 -93 -142 -186 -142c-116 0 -195 94 -195 208z" />
    <glyph glyph-name="exclam" unicode="!" horiz-adv-x="270" 
d="M90 700h90l-4 -498h-82zM73 53c0 34 28 62 62 62c35 0 63 -28 63 -62c0 -36 -28 -64 -63 -64c-34 0 -62 28 -62 64z" />
    <glyph glyph-name="quotedbl" unicode="&#x22;" horiz-adv-x="374" 
d="M238 469l-2 241h85l-2 -241h-81zM53 710h85l-2 -241h-81z" />
    <glyph glyph-name="numbersign" unicode="#" horiz-adv-x="770" 
d="M59 171l6 82h143l13 154h-140l6 82h142l15 171h85l-16 -171h172l16 171h84l-15 -171h141l-6 -82h-143l-13 -154h140l-5 -82h-143l-15 -172h-85l16 172h-172l-16 -172h-84l15 172h-141zM302 411l-14 -162h180l14 162h-180z" />
    <glyph glyph-name="dollar" unicode="$" horiz-adv-x="628" 
d="M67 180l84 15c12 -66 64 -109 126 -123v257c-98 30 -197 68 -197 187c0 115 92 183 197 193v61h77v-64c88 -16 162 -75 185 -171l-84 -15c-15 56 -52 93 -101 107v-241c102 -30 208 -68 208 -194c0 -119 -97 -188 -208 -200v-64h-77v65c-103 14 -186 78 -210 187z
M354 305v-235c63 9 122 48 122 117c0 66 -54 95 -122 118zM277 631c-61 -10 -111 -51 -111 -111s48 -88 111 -110v221z" />
    <glyph glyph-name="percent" unicode="%" horiz-adv-x="774" 
d="M195 386c-96 0 -152 67 -152 162s56 162 152 162s151 -67 151 -162s-55 -162 -151 -162zM579 -10c-96 0 -151 67 -151 162s55 162 151 162c97 0 152 -67 152 -162s-55 -162 -152 -162zM91 0l510 715l82 -15l-510 -715zM579 241c-48 0 -78 -37 -78 -89s30 -89 78 -89
c49 0 79 37 79 89s-30 89 -79 89zM116 548c0 -52 30 -89 79 -89s78 37 78 89s-29 89 -78 89s-79 -37 -79 -89z" />
    <glyph glyph-name="quotesingle" unicode="'" horiz-adv-x="190" 
d="M53 710h85l-2 -241h-81z" />
    <glyph glyph-name="parenleft" unicode="(" horiz-adv-x="339" 
d="M73 290c0 202 52 407 131 509h83c-64 -100 -124 -297 -124 -509c0 -213 60 -411 124 -510h-83c-79 101 -131 307 -131 510z" />
    <glyph glyph-name="parenright" unicode=")" horiz-adv-x="339" 
d="M56 799h83c79 -102 131 -307 131 -509c0 -203 -52 -409 -131 -510h-83c64 99 124 297 124 510c0 212 -60 409 -124 509z" />
    <glyph glyph-name="asterisk" unicode="*" horiz-adv-x="445" 
d="M396 589l-132 -59l132 -60l-35 -61l-118 84l15 -143h-71l15 143l-118 -84l-35 61l132 60l-132 59l35 61l118 -84l-15 144h71l-15 -144l118 84z" />
    <glyph glyph-name="plus" unicode="+" horiz-adv-x="628" 
d="M93 339h179v189h84v-189h179v-82h-179v-188h-84v188h-179v82z" />
    <glyph glyph-name="comma" unicode="," horiz-adv-x="201" 
d="M67 100h91l-62 -261h-69z" />
    <glyph glyph-name="hyphen" unicode="-" horiz-adv-x="452" 
d="M389 257h-326v82h326v-82z" />
    <glyph glyph-name="period" unicode="." horiz-adv-x="204" 
d="M37 60c0 34 28 62 62 62c35 0 63 -28 63 -62c0 -35 -28 -63 -63 -63c-34 0 -62 28 -62 63z" />
    <glyph glyph-name="slash" unicode="/" horiz-adv-x="378" 
d="M23 -112l253 871l79 -14l-253 -870z" />
    <glyph glyph-name="bracketleft" unicode="[" horiz-adv-x="352" 
d="M299 -222h-226v1026h226v-81h-140v-863h140v-82z" />
    <glyph glyph-name="backslash" unicode="\" horiz-adv-x="374" 
d="M100 759l253 -871l-79 -13l-253 870z" />
    <glyph glyph-name="bracketright" unicode="]" horiz-adv-x="352" 
d="M53 -140h140v863h-140v81h226v-1026h-226v82z" />
    <glyph glyph-name="underscore" unicode="_" horiz-adv-x="467" 
d="M464 -138h-461v83h461v-83z" />
    <glyph glyph-name="braceleft" unicode="{" horiz-adv-x="442" 
d="M53 332c77 0 114 37 114 118v178c0 137 73 176 190 176c12 0 32 -2 32 -2v-80s-13 1 -22 1c-77 0 -114 -13 -114 -94v-175c0 -76 -32 -134 -77 -162c46 -31 77 -86 77 -162v-175c0 -82 37 -96 114 -96c9 0 22 1 22 1v-80s-20 -2 -32 -2c-117 0 -190 39 -190 178v178
c0 82 -37 119 -114 119v79z" />
    <glyph glyph-name="bar" unicode="|" horiz-adv-x="272" 
d="M179 -220h-86v1020h86v-1020z" />
    <glyph glyph-name="braceright" unicode="}" horiz-adv-x="442" 
d="M75 -141c77 0 114 14 114 96v175c0 76 31 131 77 162c-45 28 -77 86 -77 162v175c0 81 -37 94 -114 94c-9 0 -22 -1 -22 -1v80s19 2 32 2c117 0 190 -39 190 -176v-178c0 -81 37 -118 114 -118v-79c-77 0 -114 -37 -114 -119v-178c0 -139 -73 -178 -190 -178
c-13 0 -32 2 -32 2v80s13 -1 22 -1z" />
    <glyph glyph-name="endash" unicode="&#x2013;" horiz-adv-x="506" 
d="M503 257h-500v82h500v-82z" />
    <glyph glyph-name="emdash" unicode="&#x2014;" horiz-adv-x="1006" 
d="M1003 257h-1000v80h1000v-80z" />
    <glyph glyph-name="quoteleft" unicode="&#x2018;" horiz-adv-x="242" 
d="M113 700h70l-40 -261h-90z" />
    <glyph glyph-name="quoteright" unicode="&#x2019;" horiz-adv-x="242" 
d="M129 439h-70l39 261h91z" />
    <glyph glyph-name="quotedblleft" unicode="&#x201c;" horiz-adv-x="418" 
d="M53 439l61 261h70l-41 -261h-90zM230 439l60 261h70l-39 -261h-91z" />
    <glyph glyph-name="quotedblright" unicode="&#x201d;" horiz-adv-x="418" 
d="M234 439l41 261h91l-62 -261h-70zM129 439h-70l39 261h90z" />
    <glyph glyph-name="quotedblbase" unicode="&#x201e;" horiz-adv-x="376" 
d="M202 -171l41 260h91l-62 -260h-70zM27 -171l39 260h90l-59 -260h-70z" />
    <glyph glyph-name="bullet" unicode="&#x2022;" horiz-adv-x="392" 
d="M103 350c0 50 42 91 93 91s93 -41 93 -91s-42 -91 -93 -91s-93 41 -93 91z" />
    <glyph glyph-name="guilsinglleft" unicode="&#x2039;" horiz-adv-x="358" 
d="M214 506h93l-170 -213l170 -213h-93l-169 213z" />
    <glyph glyph-name="guilsinglright" unicode="&#x203a;" horiz-adv-x="358" 
d="M51 506h92l170 -213l-170 -213h-92l170 213z" />
    <glyph glyph-name="colon" unicode=":" horiz-adv-x="240" 
d="M58 60c0 34 28 62 62 62c35 0 63 -28 63 -62s-28 -62 -63 -62c-34 0 -62 28 -62 62zM120 400c-34 0 -62 28 -62 63c0 34 28 62 62 62c35 0 63 -28 63 -62c0 -35 -28 -63 -63 -63z" />
    <glyph glyph-name="semicolon" unicode=";" horiz-adv-x="251" 
d="M48 -162l40 260h91l-62 -260h-69zM68 463c0 34 28 62 63 62c34 0 62 -28 62 -62c0 -35 -28 -63 -62 -63c-35 0 -63 28 -63 63z" />
    <glyph glyph-name="equal" unicode="=" horiz-adv-x="620" 
d="M93 155v82h435v-82h-435zM528 360h-435v82h435v-82z" />
    <glyph glyph-name="question" unicode="?" horiz-adv-x="510" 
d="M123 540l-80 14c21 99 109 156 207 156c106 0 207 -69 207 -182c0 -151 -184 -163 -184 -267l-1 -59h-83v58c-1 151 184 157 184 272c0 69 -63 100 -123 100s-112 -30 -127 -92zM233 -3c-35 0 -63 29 -63 63s28 62 63 62c34 0 62 -28 62 -62s-28 -63 -62 -63z" />
    <glyph glyph-name="at" unicode="@" horiz-adv-x="1078" 
d="M67 238c0 261 210 472 472 472s472 -211 472 -472c0 -193 -117 -240 -185 -240c-33 0 -107 11 -127 100c-32 -61 -102 -100 -176 -100c-123 0 -224 107 -224 240s99 240 222 240c72 0 125 -30 164 -82v72h74v-318c0 -81 62 -82 70 -82c46 0 105 35 105 171
c0 218 -176 399 -395 399c-220 0 -395 -180 -395 -400c0 -219 176 -400 395 -400c91 0 171 28 237 77l53 -53c-80 -61 -182 -96 -290 -96c-262 0 -472 211 -472 472zM376 238c0 -96 63 -170 153 -170c93 0 155 70 155 170s-62 170 -155 170c-91 0 -153 -72 -153 -170z" />
    <glyph glyph-name="quotesinglbase" unicode="&#x201a;" horiz-adv-x="200" 
d="M97 -161h-70l39 262h91z" />
    <glyph glyph-name="grave" unicode="`" horiz-adv-x="215" 
d="M123 700l69 -121h-69l-90 121h90z" />
    <glyph glyph-name="less" unicode="&#x3c;" horiz-adv-x="578" 
d="M485 66l-402 195v75l402 195v-90l-306 -142l306 -143v-90z" />
    <glyph glyph-name="greater" unicode="&#x3e;" horiz-adv-x="578" 
d="M93 156l306 143l-306 142v90l402 -195v-75l-402 -195v90z" />
    <glyph glyph-name="asciicircum" unicode="^" horiz-adv-x="495" 
d="M43 409l163 301h83l164 -301h-94l-111 217l-112 -217h-93z" />
    <glyph glyph-name="acute" unicode="&#xb4;" horiz-adv-x="345" 
d="M152 700h91l-91 -121h-69z" />
    <glyph glyph-name="ring" unicode="&#x2da;" horiz-adv-x="387" 
d="M83 677c0 65 51 110 112 110c60 0 109 -46 109 -110s-49 -108 -109 -108s-112 43 -112 108zM138 677c0 -33 24 -56 56 -56c31 0 55 23 55 56c0 34 -23 59 -55 59s-56 -25 -56 -59z" />
    <glyph glyph-name="ogonek" unicode="&#x2db;" horiz-adv-x="344" 
d="M83 -121c0 55 37 108 129 151l40 -30c-41 -29 -83 -54 -83 -98c0 -21 9 -43 42 -43c15 0 29 4 39 10l12 -68c-16 -10 -44 -14 -68 -14c-67 0 -111 33 -111 92z" />
    <glyph glyph-name="circumflex" unicode="&#x2c6;" horiz-adv-x="472" 
d="M83 570l114 141h77l115 -141h-63l-90 90l-90 -90h-63z" />
    <glyph glyph-name="caron" unicode="&#x2c7;" horiz-adv-x="472" 
d="M197 579l-114 142h63l90 -90l90 90h63l-115 -142h-77z" />
    <glyph glyph-name="breve" unicode="&#x2d8;" horiz-adv-x="429" 
d="M83 701h72c0 -36 15 -67 59 -67c43 0 60 31 60 67h72c0 -76 -50 -131 -131 -131s-132 55 -132 131z" />
    <glyph glyph-name="pi" unicode="&#x3c0;" horiz-adv-x="661" 
d="M68 425l-1 76h527v-76h-72v-425h-81v425h-220v-425h-81v425h-72z" />
    <glyph glyph-name="exclamdown" unicode="&#xa1;" horiz-adv-x="266" 
d="M88 -102l4 421h82l4 -421h-90zM71 469c0 35 28 63 62 63c35 0 63 -28 63 -62s-28 -63 -63 -63c-34 0 -62 28 -62 62z" />
    <glyph glyph-name="ellipsis" unicode="&#x2026;" horiz-adv-x="724" 
d="M529 60c0 34 28 62 62 62s62 -28 62 -62c0 -35 -28 -63 -62 -63s-62 28 -62 63zM362 -3c-34 0 -62 28 -62 63c0 34 28 62 62 62s63 -28 63 -62c0 -35 -29 -63 -63 -63zM71 60c0 34 28 62 62 62c35 0 63 -28 63 -62c0 -35 -28 -63 -63 -63c-34 0 -62 28 -62 63z" />
    <glyph glyph-name="minus" unicode="&#x2212;" horiz-adv-x="588" 
d="M495 257h-402v82h402v-82z" />
    <glyph glyph-name="two" unicode="2" horiz-adv-x="595" 
d="M61 0v81l289 253c51 44 91 93 91 162c0 83 -61 136 -142 136c-86 0 -147 -55 -155 -136l-79 14c8 111 100 200 231 200c125 0 229 -84 229 -213c0 -96 -56 -166 -119 -222l-225 -197h345v-78h-465z" />
    <glyph glyph-name="one" unicode="1" horiz-adv-x="335" 
d="M51 621v79h200v-700h-84v621h-116z" />
    <glyph glyph-name="three" unicode="3" horiz-adv-x="604" 
d="M61 198l79 14c0 -90 72 -144 156 -144c77 0 155 49 155 133c0 83 -78 131 -154 131h-57v76h59c65 0 124 42 124 111c0 70 -62 113 -127 113c-73 0 -124 -48 -124 -122l-80 14c0 115 95 186 206 186c110 0 209 -70 209 -185c0 -65 -37 -121 -92 -150
c73 -28 120 -96 120 -176c0 -131 -113 -209 -238 -209s-236 77 -236 208z" />
    <glyph glyph-name="zero" unicode="0" horiz-adv-x="644" 
d="M65 350c0 166 55 360 257 360s257 -194 257 -360s-55 -360 -257 -360s-257 194 -257 360zM322 631c-151 0 -171 -163 -171 -281s20 -281 171 -281c152 0 171 163 171 281s-19 281 -171 281z" />
    <glyph glyph-name="four" unicode="4" horiz-adv-x="610" 
d="M381 164h-330v79l330 457h84v-457h89v-79h-89v-164h-84v164zM150 243h231v327z" />
    <glyph glyph-name="five" unicode="5" horiz-adv-x="604" 
d="M68 165l86 15c19 -65 74 -112 148 -112c85 0 152 64 152 154c0 88 -65 153 -151 153c-53 0 -103 -24 -133 -67l-78 27l23 365h375v-78h-301l-13 -217c36 31 86 48 138 48c124 0 224 -99 224 -232c0 -136 -105 -231 -238 -231c-115 0 -203 71 -232 175z" />
    <glyph glyph-name="six" unicode="6" horiz-adv-x="613" 
d="M62 231c0 77 30 149 75 214c58 85 136 190 195 270l87 -16l-187 -257c22 14 57 21 83 21c132 0 238 -102 238 -238c0 -140 -108 -235 -245 -235s-246 102 -246 241zM145 226c0 -91 75 -158 164 -158c90 0 161 68 161 158c0 91 -69 159 -160 159c-89 0 -165 -67 -165 -159
z" />
    <glyph glyph-name="seven" unicode="7" horiz-adv-x="510" 
d="M43 700h417v-78l-257 -635l-82 14l254 620h-332v79z" />
    <glyph glyph-name="eight" unicode="8" horiz-adv-x="612" 
d="M306 -10c-139 0 -237 89 -237 209c0 79 43 144 116 178c-54 31 -87 83 -87 148c0 106 87 185 208 185s209 -79 209 -185c0 -65 -33 -117 -88 -148c73 -34 116 -99 116 -178c0 -120 -99 -209 -237 -209zM153 201c0 -74 63 -133 152 -133c88 0 154 59 154 133
s-66 131 -154 131c-89 0 -152 -57 -152 -131zM181 519c0 -63 53 -111 125 -111c73 0 125 48 125 111c0 62 -52 113 -125 113c-72 0 -125 -51 -125 -113z" />
    <glyph glyph-name="nine" unicode="9" horiz-adv-x="612" 
d="M59 475c0 140 108 235 245 235s246 -102 246 -240c0 -78 -30 -150 -75 -215c-58 -85 -136 -190 -195 -270l-87 16l187 257c-22 -14 -57 -21 -83 -21c-132 0 -238 103 -238 238zM303 632c-90 0 -161 -67 -161 -158s69 -159 160 -159c89 0 165 67 165 159s-75 158 -164 158
z" />
    <glyph glyph-name="twosuperior" unicode="&#xb2;" horiz-adv-x="288" 
d="M41 429v49l115 98c22 19 25 35 25 45c0 28 -22 36 -37 36s-39 -9 -42 -37l-59 10c3 44 43 80 100 80c55 0 100 -33 100 -84c0 -38 -26 -67 -51 -88l-57 -48h108v-61h-202z" />
    <glyph glyph-name="ampersand" unicode="&#x26;" horiz-adv-x="704" 
d="M59 189c0 102 75 165 161 205c-45 42 -86 94 -86 158c0 94 89 158 177 158s175 -61 175 -156c0 -86 -70 -145 -141 -184l164 -176c34 51 32 130 32 188v14h84v-32c0 -81 -9 -162 -57 -231l81 -87l-58 -57l-76 84c-56 -55 -140 -83 -217 -83c-117 0 -239 69 -239 199z
M143 190c0 -83 83 -121 156 -121c55 0 121 19 159 62l-186 202c-64 -24 -129 -70 -129 -143zM310 632c-46 0 -93 -32 -93 -82c0 -49 43 -92 75 -125c48 23 111 69 111 127c0 51 -47 80 -93 80z" />
    <glyph glyph-name="fraction" unicode="&#x2044;" horiz-adv-x="598" 
d="M3 0l518 712l75 -12l-519 -712z" />
    <glyph glyph-name="lessequal" unicode="&#x2264;" horiz-adv-x="600" 
d="M495 175l-402 191v72l402 191v-86l-306 -141l306 -140v-87zM105 34v80h402v-80h-402z" />
    <glyph glyph-name="greaterequal" unicode="&#x2265;" horiz-adv-x="592" 
d="M499 366l-402 -191v87l305 140l-305 141v86l402 -191v-72zM495 34h-402v80h402v-80z" />
    <glyph glyph-name="dotaccent" unicode="&#x2d9;" horiz-adv-x="281" 
d="M83 627c0 31 26 56 58 56c31 0 57 -25 57 -56c0 -32 -26 -57 -57 -57c-32 0 -58 25 -58 57z" />
    <glyph glyph-name="asciitilde" unicode="~" horiz-adv-x="650" 
d="M83 217c-2 110 66 157 136 157c104 0 141 -101 210 -101c37 0 62 29 61 82h78c2 -111 -66 -157 -137 -157c-104 0 -141 100 -211 100c-34 0 -60 -23 -59 -81h-78z" />
    <glyph glyph-name="Y.ss02" horiz-adv-x="541" 
d="M19 700h98l154 -336l146 336h99l-322 -700h-92l127 274z" />
    <glyph glyph-name="a.ss01" horiz-adv-x="625" 
d="M287 511c72 0 143 -32 183 -93v83h82v-501h-82v83c-39 -61 -111 -93 -183 -93c-147 0 -238 121 -238 260c0 140 91 261 238 261zM300 64c109 0 170 82 170 186s-61 186 -170 186c-111 0 -169 -81 -169 -186s58 -186 169 -186z" />
    <glyph glyph-name="M.ss01" horiz-adv-x="818" 
d="M29 0l109 700h99l172 -546l172 546h99l109 -700h-87l-81 568l-185 -568h-54l-184 568l-82 -568h-87z" />
    <glyph glyph-name="W.ss02" horiz-adv-x="841" 
d="M87 0v700h86v-572l230 373h35l230 -373v572h86v-700h-103l-231 383l-230 -383h-103z" />
    <glyph glyph-name="y.ss01" horiz-adv-x="519" 
d="M222 3l-199 498h86l153 -397l148 397h86l-215 -555c-35 -89 -75 -176 -184 -176c-25 0 -50 4 -74 10v79c20 -7 41 -11 62 -11c85 0 112 87 137 155z" />
    <glyph glyph-name="uni00A0" unicode="&#xa0;" horiz-adv-x="295" 
 />
    <glyph glyph-name="cent" unicode="&#xa2;" horiz-adv-x="600" 
d="M281 509v57h66v-58c89 -12 171 -75 191 -167l-80 -14c-15 57 -57 95 -111 106v-365c54 11 96 49 111 106l80 -14c-20 -93 -101 -156 -191 -168v-57h-66v57c-133 15 -218 121 -218 258c0 138 85 244 218 259zM145 250c0 -94 47 -168 136 -183v366
c-89 -14 -136 -89 -136 -183z" />
    <glyph glyph-name="yen" unicode="&#xa5;" horiz-adv-x="674" 
d="M51 700h98l188 -336l188 336h98l-206 -359h137v-70h-174v-93h174v-70h-174v-108h-86v108h-173v70h173v93h-173v70h136z" />
    <glyph glyph-name="dieresis" unicode="&#xa8;" horiz-adv-x="434" 
d="M63 682c0 31 26 56 57 56s57 -25 57 -56s-26 -56 -57 -56s-57 25 -57 56zM314 738c31 0 57 -25 57 -56s-26 -56 -57 -56s-57 25 -57 56s26 56 57 56z" />
    <glyph glyph-name="currency" unicode="&#xa4;" horiz-adv-x="670" 
d="M116 -30l-57 56l65 64c-30 43 -47 96 -47 156c0 59 17 113 47 155l-65 64l57 57l63 -65c42 31 95 49 156 49s114 -18 156 -49l63 65l57 -57l-66 -64c30 -43 47 -96 47 -155c0 -60 -17 -113 -47 -156l66 -64l-57 -56l-63 64c-42 -31 -95 -49 -156 -49s-114 18 -156 49z
M161 246c0 -107 65 -186 173 -186c109 0 174 79 174 186s-65 185 -174 185c-108 0 -173 -78 -173 -185z" />
    <glyph glyph-name="sterling" unicode="&#xa3;" horiz-adv-x="614" 
d="M63 286v81h77c-3 42 -6 83 -6 125c0 136 67 246 218 246c104 0 197 -70 205 -181l-83 -15c-8 72 -53 116 -123 116c-102 0 -131 -86 -131 -172c0 -40 2 -79 5 -119h181v-81h-177c2 -34 4 -67 4 -101c0 -67 -23 -105 -27 -105h348v-80h-491v80c76 0 85 86 85 142
c0 22 -1 43 -2 64h-83z" />
    <glyph glyph-name="brokenbar" unicode="&#xa6;" horiz-adv-x="272" 
d="M93 399v401h86v-401h-86zM93 181h86v-401h-86v401z" />
    <glyph glyph-name="section" unicode="&#xa7;" horiz-adv-x="597" 
d="M51 -40l84 15c14 -80 80 -128 161 -128c65 0 145 34 145 108c0 160 -378 95 -377 314c0 66 36 112 86 137c-41 28 -68 69 -67 128c1 119 107 182 215 182c112 0 199 -65 225 -175l-84 -15c-19 70 -65 113 -139 113c-60 0 -132 -34 -132 -102c0 -149 378 -88 378 -317
c0 -67 -33 -110 -81 -132c37 -28 62 -68 62 -126c0 -129 -118 -192 -233 -192c-124 0 -217 69 -243 190zM148 275c0 -91 181 -121 247 -149c38 17 66 47 66 91c0 93 -130 109 -237 151c-41 -14 -76 -46 -76 -93z" />
    <glyph glyph-name="uni03BC" unicode="&#x3bc;" horiz-adv-x="574" 
d="M69 501h82v-308c0 -71 40 -128 118 -128c89 0 150 74 150 177v259h82v-501h-82v85c-26 -45 -83 -95 -165 -95c-40 0 -75 13 -103 34v-244h-82v721z" />
    <glyph glyph-name="summation" unicode="&#x2211;" horiz-adv-x="687" 
d="M103 623v77h501v-77h-407l228 -347l-228 -359h407v-77h-501v77l229 359z" />
    <glyph glyph-name="product" unicode="&#x220f;" horiz-adv-x="671" 
d="M162 -160h-83v860h513v-860h-84v783h-346v-783z" />
    <glyph glyph-name="registered" unicode="&#xae;" horiz-adv-x="576" 
d="M53 470c0 132 101 240 235 240s235 -108 235 -240c0 -131 -101 -240 -235 -240s-235 109 -235 240zM101 470c0 -105 77 -194 187 -194s187 89 187 194s-77 194 -187 194s-187 -89 -187 -194zM208 346v246h88c46 0 83 -33 83 -79c0 -34 -21 -61 -50 -74l58 -93h-51l-50 87
h-34v-87h-44zM252 550v-76h39c24 0 42 15 42 38s-18 38 -42 38h-39z" />
    <glyph glyph-name="ordfeminine" unicode="&#xaa;" horiz-adv-x="410" 
d="M169 349c-70 0 -116 44 -116 106c0 113 156 117 231 121v14c0 36 -34 60 -75 60c-35 0 -72 -17 -78 -58l-66 10c11 64 74 108 145 108c80 0 142 -55 142 -123v-231h-68v58c-18 -33 -56 -65 -115 -65zM284 522c-19 0 -162 2 -162 -69c0 -30 25 -49 60 -49
c64 0 102 59 102 98v20z" />
    <glyph glyph-name="paragraph" unicode="&#xb6;" horiz-adv-x="594" 
d="M71 478c0 127 97 222 224 222h98v-780h-82v336h-16c-127 0 -224 95 -224 222zM516 -80h-83v780h83v-780z" />
    <glyph glyph-name="Euro" unicode="&#x20ac;" horiz-adv-x="632" 
d="M51 389v76h66c23 129 91 245 247 245c111 0 186 -59 225 -159l-84 -16c-27 62 -73 96 -141 96c-105 0 -147 -79 -162 -166h249v-76h-257v-78h257v-76h-249c15 -87 57 -166 162 -166c69 0 114 33 141 96l84 -15c-39 -101 -114 -160 -225 -160c-156 0 -224 116 -247 245
h-66v76h57v78h-57z" />
    <glyph glyph-name="uni0394" unicode="&#x394;" horiz-adv-x="666" 
d="M59 0l223 700h102l223 -700h-548zM165 75h336l-168 534z" />
    <glyph glyph-name="radical" unicode="&#x221a;" horiz-adv-x="615" 
d="M45 369v74h155l120 -328l172 599l77 -14l-206 -700h-83l-135 369h-100z" />
    <glyph glyph-name="logicalnot" unicode="&#xac;" horiz-adv-x="525" 
d="M39 305v76h442v-222h-82v146h-360z" />
    <glyph glyph-name="macron" unicode="&#xaf;" horiz-adv-x="479" 
d="M79 628v75h321v-75h-321z" />
    <glyph glyph-name="degree" unicode="&#xb0;" horiz-adv-x="335" 
d="M41 590c0 70 54 121 125 121c70 0 124 -52 124 -121s-54 -121 -124 -121c-71 0 -125 52 -125 121zM107 590c0 -32 26 -59 59 -59c32 0 58 27 58 59c0 33 -26 59 -58 59c-33 0 -59 -26 -59 -59z" />
    <glyph glyph-name="threesuperior" unicode="&#xb3;" horiz-adv-x="294" 
d="M41 502l62 11c0 -27 21 -41 43 -41c25 0 41 17 41 36c0 21 -18 39 -43 39h-33v51h32c21 0 35 15 35 31s-14 28 -33 28c-18 0 -33 -11 -35 -34l-59 10c0 45 41 77 94 77c52 0 95 -32 95 -78c0 -30 -20 -51 -40 -60c33 -13 49 -39 49 -69c0 -50 -44 -84 -104 -84
c-61 0 -104 34 -104 83z" />
    <glyph glyph-name="onesuperior" unicode="&#xb9;" horiz-adv-x="200" 
d="M45 645v55h107v-271h-62v216h-45z" />
    <glyph glyph-name="onehalf" unicode="&#xbd;" horiz-adv-x="759" 
d="M56 0l519 712l74 -12l-518 -712zM709 0h-222v53l126 110c25 22 28 38 28 50c0 31 -24 39 -41 39s-43 -8 -47 -40l-64 12c4 48 47 87 110 87c60 0 110 -37 110 -92c0 -42 -29 -74 -56 -98l-63 -54h119v-67zM52 639v61h118v-301h-68v240h-50z" />
    <glyph glyph-name="threequarters" unicode="&#xbe;" horiz-adv-x="803" 
d="M202 -12l-74 12l518 712l74 -12zM165 389c-67 0 -114 38 -114 92l67 12c0 -30 24 -45 49 -45c27 0 44 18 44 39c0 23 -19 43 -46 43h-37v56h36c23 0 37 18 37 35s-14 31 -35 31c-20 0 -38 -13 -40 -38l-64 11c0 50 45 85 103 85s104 -35 104 -85c0 -34 -21 -57 -43 -66
c36 -15 53 -44 53 -77c0 -55 -47 -93 -114 -93zM645 54h-141v59l145 188h64v-188h38v-59h-38v-54h-68v54zM580 113h65v97z" />
    <glyph glyph-name="periodcentered" unicode="&#xb7;" horiz-adv-x="282" 
d="M79 345c0 34 28 62 62 62c35 0 63 -28 63 -62c0 -35 -28 -63 -63 -63c-34 0 -62 28 -62 63z" />
    <glyph glyph-name="integral" unicode="&#x222b;" horiz-adv-x="454" 
d="M41 -154c23 -2 44 -2 61 0c59 8 79 45 79 129v533c0 142 60 204 195 203c9 0 27 -1 27 -1v-75c-24 2 -44 3 -61 0c-60 -8 -79 -45 -79 -129v-533c0 -141 -60 -204 -195 -203c-9 0 -27 1 -27 1v75z" />
    <glyph glyph-name="tilde" unicode="&#x2dc;" horiz-adv-x="459" 
d="M83 543c-1 64 42 102 88 102c57 0 79 -57 119 -57c21 0 35 16 35 46h51c1 -64 -43 -102 -89 -102c-57 0 -78 58 -118 58c-19 0 -35 -13 -35 -47h-51z" />
    <glyph glyph-name="dagger" unicode="&#x2020;" horiz-adv-x="508" 
d="M71 418v83h140v199h86v-199h140v-83h-140v-418h-86v418h-140z" />
    <glyph glyph-name="daggerdbl" unicode="&#x2021;" horiz-adv-x="577" 
d="M71 419v82h175v199h85v-199h175v-82h-175v-337h175v-82h-175v-199h-85v199h-175v82h175v337h-175z" />
    <glyph glyph-name="florin" unicode="&#x192;" horiz-adv-x="396" 
d="M11 -154c21 -2 40 -2 56 -1c63 7 84 44 84 130v457h-95v69h95v6c0 143 59 203 195 203c9 0 18 -1 27 -1v-75c-21 2 -40 3 -56 1c-63 -7 -84 -44 -84 -129v-5h130v-69h-130v-459c0 -115 -39 -182 -137 -198c-18 -4 -37 -5 -58 -5c-9 0 -18 1 -27 1v75z" />
    <glyph glyph-name="trademark" unicode="&#x2122;" horiz-adv-x="861" 
d="M456 299h-66v401h93l106 -284l107 284h94v-401h-66v304l-120 -304h-30l-118 304v-304zM27 637v63h295v-63h-114v-338h-68v338h-113z" />
    <glyph glyph-name="uni03A9" unicode="&#x3a9;" horiz-adv-x="791" 
d="M61 352c0 196 133 358 334 358c202 0 335 -162 335 -358c0 -123 -73 -240 -138 -275h138v-77h-265v77c100 29 182 103 182 274c0 151 -94 282 -252 282c-157 0 -251 -131 -251 -282c0 -171 94 -245 181 -274v-77h-254v77h127c-64 35 -137 152 -137 275z" />
    <glyph glyph-name="partialdiff" unicode="&#x2202;" horiz-adv-x="605" 
d="M309 -10c-140 0 -248 106 -248 255c0 147 104 255 237 255c96 0 152 -57 171 -86c-21 148 -104 220 -200 220c-23 0 -83 -4 -121 -30l-14 76s51 30 131 30c90 0 287 -38 287 -392v-36c0 -184 -102 -292 -243 -292zM142 249c0 -103 72 -183 167 -183c91 0 162 74 162 178
c0 108 -77 180 -168 180s-161 -73 -161 -175z" />
    <glyph glyph-name="divide" unicode="&#xf7;" horiz-adv-x="590" 
d="M498 257h-405v82h405v-82zM295 411c-33 0 -61 27 -61 61s28 61 61 61c34 0 61 -27 61 -61s-27 -61 -61 -61zM295 58c-33 0 -61 27 -61 61s28 61 61 61c34 0 61 -27 61 -61s-27 -61 -61 -61z" />
    <glyph glyph-name="guillemotleft" unicode="&#xab;" horiz-adv-x="527" 
d="M45 281l153 218h84l-144 -218l144 -218h-84zM239 281l154 218h84l-144 -218l144 -218h-84z" />
    <glyph glyph-name="guillemotright" unicode="&#xbb;" horiz-adv-x="527" 
d="M195 281l-144 218h84l153 -218l-153 -218h-84zM245 499h84l154 -218l-154 -218h-84l144 218z" />
    <glyph glyph-name="onequarter" unicode="&#xbc;" horiz-adv-x="742" 
d="M56 0l519 712l74 -12l-518 -712zM443 113l145 188h64v-188h39v-59h-39v-54h-68v54h-141v59zM52 700h118v-301h-68v240h-50v61zM584 210l-65 -97h65v97z" />
    <glyph glyph-name="cedilla" unicode="&#xb8;" horiz-adv-x="377" 
d="M103 -220l8 46c14 -4 33 -6 47 -6c19 0 49 9 49 35c0 36 -60 40 -87 40l30 105h67l-22 -62c47 -8 79 -35 79 -85c0 -62 -53 -83 -107 -83c-21 0 -44 3 -64 10z" />
    <glyph glyph-name="ordmasculine" unicode="&#xba;" horiz-adv-x="423" 
d="M53 525c0 86 34 185 155 185c122 0 156 -99 156 -185s-34 -186 -156 -186c-121 0 -155 100 -155 186zM208 647c-78 0 -87 -71 -87 -122c0 -52 9 -123 87 -123s88 71 88 123c0 51 -10 122 -88 122z" />
    <glyph glyph-name="questiondown" unicode="&#xbf;" horiz-adv-x="516" 
d="M57 -22c0 152 184 163 184 268c0 12 1 49 1 58h83v-58c1 -151 -184 -156 -184 -272c0 -68 63 -100 123 -100s112 31 127 92l80 -14c-21 -99 -109 -156 -207 -156c-106 0 -207 69 -207 182zM219 446c0 35 28 63 62 63c35 0 63 -28 63 -63c0 -34 -28 -62 -63 -62
c-34 0 -62 28 -62 62z" />
    <glyph glyph-name="multiply" unicode="&#xd7;" horiz-adv-x="550" 
d="M217 295l-134 134l58 58l134 -134l134 134l58 -58l-134 -134l134 -134l-58 -58l-134 134l-134 -134l-58 58z" />
    <glyph glyph-name="plusminus" unicode="&#xb1;" horiz-adv-x="627" 
d="M93 411h178v138h85v-138h178v-82h-178v-128h-85v128h-178v82zM93 77v82h441v-82h-441z" />
    <glyph glyph-name="AE" unicode="&#xc6;" horiz-adv-x="800" 
d="M121 0h-94l233 700h476v-79h-309v-232h290v-77h-290v-233h309v-79h-395v163h-170zM316 621l-121 -379h146v379h-25z" />
    <glyph glyph-name="ae" unicode="&#xe6;" horiz-adv-x="914" 
d="M222 -10c-98 0 -171 63 -171 152c0 163 248 165 348 165c0 84 -37 130 -126 130c-62 0 -118 -38 -127 -96l-78 13c16 94 106 157 210 157c77 0 156 -47 177 -103c35 64 109 103 181 103c149 -1 228 -117 229 -255c0 -6 0 -9 -1 -19h-388c0 -99 71 -173 159 -173
c58 0 112 30 140 88l79 -14c-42 -95 -119 -148 -218 -148c-98 0 -170 54 -199 131c-38 -85 -113 -131 -215 -131zM399 237c-28 0 -267 14 -267 -97c0 -60 62 -77 111 -77c90 1 156 74 156 157v17zM482 307h299c-7 68 -68 130 -148 130c-78 0 -140 -60 -151 -130z" />
    <glyph glyph-name="OE" unicode="&#x152;" horiz-adv-x="1111" 
d="M380 -10c-190 0 -325 162 -325 360s135 360 326 360c115 0 205 -54 261 -137v127h405v-79h-319v-232h299v-77h-299v-233h319v-79h-405v127c-55 -83 -146 -137 -262 -137zM141 350c0 -150 99 -281 250 -281c152 0 251 131 251 281c0 151 -99 281 -251 281
c-151 0 -250 -130 -250 -281z" />
    <glyph glyph-name="oe" unicode="&#x153;" horiz-adv-x="1014" 
d="M49 250c0 150 105 261 257 261c95 0 177 -55 211 -125c33 69 114 125 206 125c152 0 242 -121 242 -269c0 -6 0 -12 -1 -18h-409c7 -95 81 -160 171 -160c63 0 122 30 149 88l79 -14c-42 -95 -123 -148 -227 -148c-94 0 -180 50 -212 123c-37 -73 -115 -123 -209 -123
c-152 0 -257 111 -257 260zM133 250c0 -107 64 -186 173 -186c108 0 173 79 173 186c0 108 -65 186 -173 186c-109 0 -173 -79 -173 -186zM722 437c-84 0 -153 -60 -165 -144h325c-6 83 -80 144 -160 144z" />
    <glyph glyph-name="hungarumlaut" unicode="&#x2dd;" horiz-adv-x="504" 
d="M261 579l70 121h90l-90 -121h-70zM83 579l69 121h91l-91 -121h-69z" />
    <glyph glyph-name="lozenge" unicode="&#x25ca;" horiz-adv-x="601" 
d="M67 356l213 344h41l213 -344l-213 -356h-41zM448 356l-148 245l-147 -245l147 -256z" />
    <glyph glyph-name="infinity" unicode="&#x221e;" horiz-adv-x="890" 
d="M235 69c-84 0 -190 61 -190 185s106 185 190 185c63 0 138 -28 210 -123c72 95 147 123 210 123c84 0 190 -61 190 -185s-106 -185 -190 -185c-63 0 -138 28 -210 123c-72 -95 -147 -123 -210 -123zM654 369c-66 0 -109 -41 -169 -115c60 -74 103 -115 169 -115
s116 59 116 115s-50 115 -116 115zM236 369c-66 0 -116 -59 -116 -115s50 -115 116 -115c65 0 109 41 169 115c-60 74 -104 115 -169 115z" />
    <glyph glyph-name="approxequal" unicode="&#x2248;" horiz-adv-x="670" 
d="M93 122c-2 111 66 158 136 158c104 0 141 -101 210 -101c37 0 62 29 61 82h78c2 -111 -66 -158 -137 -158c-104 0 -141 101 -211 101c-34 0 -60 -24 -59 -82h-78zM93 327c-2 110 66 157 136 157c104 0 141 -101 210 -101c37 0 62 30 61 82h78c2 -110 -66 -157 -137 -157
c-104 0 -141 101 -211 101c-34 0 -60 -24 -59 -82h-78z" />
    <glyph glyph-name="notequal" unicode="&#x2260;" horiz-adv-x="620" 
d="M93 442h247l57 104l79 -14l-50 -90h101v-82h-146l-68 -123h214v-82h-258l-47 -85l-78 14l39 71h-90v82h135l68 123h-203v82z" />
    <glyph glyph-name="Lslash" unicode="&#x141;" horiz-adv-x="570" 
d="M59 361l81 37v302h86v-263l161 74v-83l-161 -74v-275h327v-79h-413v315l-81 -37v83z" />
    <glyph glyph-name="lslash" unicode="&#x142;" horiz-adv-x="406" 
d="M39 361l122 56v303h82v-266l124 57v-83l-124 -57v-371h-82v334l-122 -56v83z" />
    <glyph glyph-name="Oslash" unicode="&#xd8;" horiz-adv-x="800" 
d="M55 350c0 195 142 360 345 360c24 0 46 -2 68 -7l19 60l79 -14l-22 -70c122 -56 201 -183 201 -329c0 -197 -144 -360 -345 -360c-24 0 -47 2 -69 7l-18 -60l-79 14l22 70c-123 56 -201 183 -201 329zM445 627c-18 3 -35 5 -51 5c-163 0 -256 -148 -253 -293
c2 -96 46 -190 139 -240zM355 73c18 -3 34 -5 51 -5c162 0 255 148 252 293c-2 96 -45 190 -138 240z" />
    <glyph glyph-name="Thorn" unicode="&#xde;" horiz-adv-x="546" 
d="M155 0h-82v700h82v-141h118c127 0 224 -90 224 -209s-97 -209 -224 -209h-118v-141zM271 482h-116v-264h116c82 0 142 57 142 132s-60 132 -142 132z" />
    <glyph glyph-name="germandbls" unicode="&#xdf;" horiz-adv-x="591" 
d="M87 0v524c0 115 95 186 205 186s209 -69 209 -185c0 -64 -36 -120 -91 -150c72 -27 120 -96 120 -176c0 -132 -114 -199 -237 -199h-55v76h53c77 0 157 40 157 124s-80 132 -156 132h-44v75h46c65 0 125 43 125 112c0 71 -63 115 -128 115c-72 0 -122 -48 -122 -124v-510
h-82z" />
    <glyph glyph-name="oslash" unicode="&#xf8;" horiz-adv-x="614" 
d="M173 24c-80 46 -124 129 -124 220c0 145 104 268 253 268c23 0 46 -3 69 -8l25 60l75 -14l-30 -73c80 -46 124 -130 124 -221c0 -144 -102 -267 -251 -267c-24 0 -48 3 -71 8l-25 -60l-76 13zM272 68c13 -3 27 -4 40 -4c105 1 169 87 169 187c0 58 -23 118 -70 153z
M301 437c-105 -1 -168 -88 -168 -187c0 -58 23 -118 70 -153l139 336c-14 2 -27 4 -41 4z" />
    <glyph glyph-name="dotlessi" unicode="&#x131;" horiz-adv-x="223" 
d="M153 0h-82v501h82v-501z" />
    <glyph glyph-name="thorn" unicode="&#xfe;" horiz-adv-x="625" 
d="M73 720h82v-302c37 57 104 93 183 93c139 0 238 -112 238 -261c0 -148 -99 -260 -238 -260c-79 0 -147 36 -183 93v-303h-82v940zM325 436c-108 0 -171 -80 -171 -186c0 -105 63 -186 171 -186c102 0 169 72 169 186s-66 186 -169 186z" />
    <glyph glyph-name="eth" unicode="&#xf0;" horiz-adv-x="604" 
d="M286 -10c-131 0 -237 90 -237 234c0 137 94 248 232 248c86 0 138 -44 169 -82c-6 82 -35 141 -75 183l-103 -68l-14 64l64 43c-39 22 -84 31 -131 31l12 67c48 0 117 -15 178 -57l94 64l15 -68l-59 -39c58 -61 100 -154 100 -292v-36c0 -184 -100 -292 -245 -292z
M288 397c-95 0 -158 -77 -158 -170c0 -97 70 -161 159 -161c92 0 160 68 160 165c0 99 -73 166 -161 166z" />
    <glyph glyph-name="Eth" unicode="&#xd0;" horiz-adv-x="800" 
d="M166 367h-99v81h99v252h231c211 0 348 -141 348 -350c0 -201 -146 -350 -348 -350h-231v367zM393 367h-141v-288h149c146 0 258 112 258 271c0 167 -102 271 -258 271h-149v-173h141v-81z" />
    <glyph glyph-name="zcaron" unicode="&#x17e;" horiz-adv-x="497" 
d="M459 0h-420v64l302 362h-292v75h400v-64l-302 -362h312v-75zM216 576l-115 141h63l91 -90l90 90h63l-116 -141h-76z" />
    <glyph glyph-name="Zcaron" unicode="&#x17d;" horiz-adv-x="593" 
d="M41 0v76l402 545h-392v79h493v-76l-402 -545h412v-79h-513zM280 780l-114 141h63l90 -90l90 90h63l-115 -141h-77z" />
    <glyph glyph-name="scaron" unicode="&#x161;" horiz-adv-x="482" 
d="M250 -10c-93 0 -190 48 -205 148l80 14c14 -58 61 -88 119 -88c45 0 110 17 110 72c0 51 -58 67 -123 83c-82 21 -177 44 -177 142c0 96 89 151 177 151c82 0 174 -50 190 -137l-80 -14c-12 49 -58 77 -107 77c-42 0 -100 -22 -100 -72c0 -47 53 -62 115 -77
c85 -21 187 -43 187 -149c0 -102 -95 -150 -186 -150zM192 587l-115 141h63l90 -90l91 90h63l-116 -141h-76z" />
    <glyph glyph-name="Scaron" unicode="&#x160;" horiz-adv-x="606" 
d="M307 -10c-121 0 -225 67 -252 190l84 15c15 -82 91 -128 170 -128c75 0 155 40 155 120c0 69 -59 98 -131 121c-116 38 -265 61 -265 208c0 125 109 194 224 194c110 0 208 -62 235 -175l-84 -15c-19 74 -77 113 -148 113c-75 0 -141 -44 -141 -113
c0 -66 60 -94 134 -117c114 -37 262 -63 262 -211c0 -131 -117 -202 -243 -202zM243 785l-114 141h63l90 -89l90 89h63l-116 -141h-76z" />
    <glyph glyph-name="Ccedilla" unicode="&#xc7;" horiz-adv-x="741" 
d="M362 -9c-188 16 -307 169 -307 359c0 201 133 360 340 360c139 0 251 -74 299 -205l-85 -15c-39 91 -110 141 -209 141c-162 0 -259 -127 -259 -281s97 -281 259 -281c99 0 170 50 209 141l85 -15c-44 -121 -143 -193 -266 -204l-18 -53c46 -8 79 -35 79 -85
c0 -62 -53 -83 -107 -83c-21 0 -44 3 -64 10l8 46c14 -4 32 -6 46 -6c20 0 50 9 50 35c0 36 -60 40 -87 40z" />
    <glyph glyph-name="less.case" horiz-adv-x="578" 
d="M485 116l-402 195v75l402 195v-90l-306 -142l306 -143v-90z" />
    <glyph glyph-name="greater.case" horiz-adv-x="578" 
d="M93 206l306 143l-306 142v90l402 -195v-75l-402 -195v90z" />
    <glyph glyph-name="equal.case" horiz-adv-x="620" 
d="M93 205v82h435v-82h-435zM528 410h-435v82h435v-82z" />
    <glyph glyph-name="hyphen.case" horiz-adv-x="452" 
d="M389 307h-326v82h326v-82z" />
    <glyph glyph-name="bracketleft.case" horiz-adv-x="352" 
d="M299 -162h-226v1026h226v-81h-140v-863h140v-82z" />
    <glyph glyph-name="backslash.case" horiz-adv-x="374" 
d="M100 809l253 -870l-79 -14l-253 870z" />
    <glyph glyph-name="bracketright.case" horiz-adv-x="352" 
d="M53 -80h140v863h-140v81h226v-1026h-226v82z" />
    <glyph glyph-name="braceleft.case" horiz-adv-x="442" 
d="M53 392c77 0 114 37 114 118v178c0 137 73 176 190 176c12 0 32 -2 32 -2v-80s-13 1 -22 1c-77 0 -114 -13 -114 -94v-175c0 -76 -32 -134 -77 -162c46 -31 77 -86 77 -162v-175c0 -82 37 -96 114 -96c9 0 22 1 22 1v-80s-20 -2 -32 -2c-117 0 -190 39 -190 178v178
c0 82 -37 119 -114 119v79z" />
    <glyph glyph-name="braceright.case" horiz-adv-x="442" 
d="M75 -81c77 0 114 14 114 96v175c0 76 31 131 77 162c-45 28 -77 86 -77 162v175c0 81 -37 94 -114 94c-9 0 -22 -1 -22 -1v80s19 2 32 2c117 0 190 -39 190 -176v-178c0 -81 37 -118 114 -118v-79c-77 0 -114 -37 -114 -119v-178c0 -139 -73 -178 -190 -178
c-13 0 -32 2 -32 2v80s13 -1 22 -1z" />
    <glyph glyph-name="bar.case" horiz-adv-x="272" 
d="M179 -160h-86v1020h86v-1020z" />
    <glyph glyph-name="multiply.case" horiz-adv-x="550" 
d="M217 345l-134 134l58 58l134 -134l134 134l58 -58l-134 -134l134 -134l-58 -58l-134 134l-134 -134l-58 58z" />
    <glyph glyph-name="minus.case" horiz-adv-x="588" 
d="M495 307h-402v82h402v-82z" />
    <glyph glyph-name="divide.case" horiz-adv-x="590" 
d="M498 307h-405v82h405v-82zM295 108c-33 0 -61 27 -61 61s28 61 61 61c34 0 61 -27 61 -61s-27 -61 -61 -61zM295 461c-33 0 -61 27 -61 61s28 61 61 61c34 0 61 -27 61 -61s-27 -61 -61 -61z" />
    <glyph glyph-name="parenleft.case" horiz-adv-x="339" 
d="M73 350c0 202 52 407 131 509h83c-64 -100 -124 -297 -124 -509c0 -213 60 -411 124 -510h-83c-79 101 -131 307 -131 510z" />
    <glyph glyph-name="parenright.case" horiz-adv-x="339" 
d="M56 859h83c79 -102 131 -307 131 -509c0 -203 -52 -409 -131 -510h-83c64 99 124 297 124 510c0 212 -60 409 -124 509z" />
    <glyph glyph-name="slash.case" horiz-adv-x="378" 
d="M23 -62l253 871l79 -14l-253 -870z" />
    <glyph glyph-name="zero.tnum" 
d="M64 350c0 166 55 360 256 360c202 0 257 -194 257 -360s-55 -360 -257 -360c-201 0 -256 194 -256 360zM320 631c-151 0 -170 -163 -170 -281s19 -281 170 -281c152 0 171 163 171 281s-19 281 -171 281z" />
    <glyph glyph-name="one.tnum" 
d="M188 621v79h200v-700h-84v621h-116z" />
    <glyph glyph-name="two.tnum" 
d="M88 81l289 253c51 44 91 93 91 162c0 83 -61 136 -142 136c-86 0 -147 -55 -155 -136l-79 14c8 111 100 200 231 200c125 0 229 -84 229 -213c0 -96 -56 -166 -119 -222l-226 -197h346v-78h-465v81z" />
    <glyph glyph-name="three.tnum" 
d="M80 198l79 14c0 -90 71 -144 156 -144c77 0 155 49 155 133c0 83 -78 131 -154 131h-57v76h59c65 0 124 42 124 111c0 70 -62 113 -127 113c-73 0 -124 -48 -125 -122l-79 14c0 115 95 186 206 186c110 0 208 -70 208 -185c0 -65 -36 -121 -91 -150
c72 -28 120 -96 120 -176c0 -131 -114 -209 -238 -209c-125 0 -236 77 -236 208z" />
    <glyph glyph-name="four.tnum" 
d="M64 243l331 457h84v-457h89v-79h-89v-164h-84v164h-331v79zM395 570l-231 -327h231v327z" />
    <glyph glyph-name="five.tnum" 
d="M87 165l87 15c18 -65 74 -112 147 -112c86 0 152 64 152 154c0 88 -64 153 -150 153c-53 0 -104 -24 -134 -67l-78 27l24 365h375v-78h-302l-12 -217c36 31 85 48 137 48c125 0 224 -99 224 -232c0 -136 -104 -231 -238 -231c-115 0 -202 71 -232 175z" />
    <glyph glyph-name="six.tnum" 
d="M75 231c0 77 30 149 75 214c58 85 136 190 195 270l87 -16l-187 -257c22 14 57 21 83 21c132 0 238 -102 238 -238c0 -140 -108 -235 -245 -235s-246 102 -246 241zM158 226c0 -91 75 -158 164 -158c90 0 160 68 160 158c0 91 -69 159 -159 159c-89 0 -165 -67 -165 -159
z" />
    <glyph glyph-name="seven.tnum" 
d="M108 700h417v-78l-257 -635l-82 14l254 620h-332v79z" />
    <glyph glyph-name="eight.tnum" 
d="M320 -10c-138 0 -237 89 -237 209c0 79 43 144 116 178c-54 31 -87 83 -87 148c0 106 88 185 208 185c121 0 209 -79 209 -185c0 -65 -33 -117 -88 -148c74 -34 117 -99 117 -178c0 -120 -100 -209 -238 -209zM167 201c0 -74 63 -133 152 -133s155 59 155 133
s-66 131 -155 131s-152 -57 -152 -131zM195 519c0 -63 54 -111 126 -111s124 48 124 111c0 62 -52 113 -124 113s-126 -51 -126 -113z" />
    <glyph glyph-name="nine.tnum" 
d="M75 475c0 140 108 235 245 235s246 -102 246 -240c0 -78 -30 -150 -75 -215c-58 -85 -137 -190 -195 -270l-87 16l187 257c-22 -14 -58 -21 -83 -21c-132 0 -238 103 -238 238zM318 632c-89 0 -160 -67 -160 -158s69 -159 159 -159s165 67 165 159s-74 158 -164 158z" />
    <glyph glyph-name="plusminus.case" horiz-adv-x="627" 
d="M93 460h178v139h85v-139h178v-81h-178v-129h-85v129h-178v81zM93 126v82h441v-82h-441z" />
    <glyph glyph-name="endash.case" horiz-adv-x="506" 
d="M503 307h-500v82h500v-82z" />
    <glyph glyph-name="emdash.case" horiz-adv-x="1006" 
d="M1003 307h-1000v80h1000v-80z" />
    <glyph glyph-name="infinity.case" horiz-adv-x="890" 
d="M235 119c-84 0 -190 61 -190 185s106 185 190 185c63 0 138 -28 210 -123c72 95 147 123 210 123c84 0 190 -61 190 -185s-106 -185 -190 -185c-63 0 -138 28 -210 123c-72 -95 -147 -123 -210 -123zM236 419c-66 0 -116 -59 -116 -115s50 -115 116 -115
c65 0 109 41 169 115c-60 74 -104 115 -169 115zM654 419c-66 0 -109 -41 -169 -115c60 -74 103 -115 169 -115s116 59 116 115s-50 115 -116 115z" />
    <glyph glyph-name="approxequal.case" horiz-adv-x="670" 
d="M93 172c-2 111 66 158 136 158c104 0 141 -101 210 -101c37 0 62 29 61 82h78c2 -111 -66 -158 -137 -158c-104 0 -141 101 -211 101c-34 0 -60 -24 -59 -82h-78zM93 377c-2 110 66 157 136 157c104 0 141 -101 210 -101c37 0 62 30 61 82h78c2 -110 -66 -157 -137 -157
c-104 0 -141 101 -211 101c-34 0 -60 -24 -59 -82h-78z" />
    <glyph glyph-name="notequal.case" horiz-adv-x="620" 
d="M93 492h247l57 104l79 -14l-50 -90h101v-82h-146l-68 -123h214v-82h-258l-47 -85l-78 14l39 71h-90v82h135l68 123h-203v82z" />
    <glyph glyph-name="lessequal.case" horiz-adv-x="600" 
d="M495 225l-402 191v72l402 191v-86l-306 -141l306 -140v-87zM105 84v80h402v-80h-402z" />
    <glyph glyph-name="greaterequal.case" horiz-adv-x="592" 
d="M499 416l-402 -191v87l305 140l-305 141v86l402 -191v-72zM495 84h-402v80h402v-80z" />
    <glyph glyph-name="guilsinglleft.case" horiz-adv-x="358" 
d="M214 556h93l-170 -212l170 -213h-93l-169 213z" />
    <glyph glyph-name="guilsinglright.case" horiz-adv-x="358" 
d="M51 556h92l170 -212l-170 -213h-92l170 213z" />
    <glyph glyph-name="guillemotleft.case" horiz-adv-x="527" 
d="M45 341l153 218h84l-144 -218l144 -218h-84zM239 341l154 218h84l-144 -218l144 -218h-84z" />
    <glyph glyph-name="guillemotright.case" horiz-adv-x="527" 
d="M195 341l-144 218h84l153 -218l-153 -218h-84zM245 559h84l154 -218l-154 -218h-84l144 218z" />
    <glyph glyph-name="uni00AD" unicode="&#xad;" horiz-adv-x="0" 
 />
    <glyph glyph-name="Agrave" unicode="&#xc0;" horiz-adv-x="658" 
d="M121 0h-94l254 700h97l254 -700h-94l-56 163h-305zM203 242h253l-127 365zM205 896h90l70 -121h-69z" />
    <glyph glyph-name="Aacute" unicode="&#xc1;" horiz-adv-x="658" 
d="M121 0h-94l254 700h97l254 -700h-94l-56 163h-305zM329 607l-126 -365h253zM363 775h-69l69 121h90z" />
    <glyph glyph-name="Acircumflex" unicode="&#xc2;" horiz-adv-x="658" 
d="M121 0h-94l254 700h97l254 -700h-94l-56 163h-305zM329 607l-126 -365h253zM179 765l114 141h77l115 -141h-63l-90 90l-90 -90h-63z" />
    <glyph glyph-name="Atilde" unicode="&#xc3;" horiz-adv-x="658" 
d="M121 0h-94l254 700h97l254 -700h-94l-56 163h-305zM203 242h253l-127 365zM182 815c-1 63 43 102 89 102c56 0 78 -58 118 -58c22 0 36 16 36 47h51c1 -64 -43 -102 -89 -102c-57 0 -78 57 -119 57c-19 0 -34 -13 -34 -46h-52z" />
    <glyph glyph-name="Adieresis" unicode="&#xc4;" horiz-adv-x="658" 
d="M121 0h-94l254 700h97l254 -700h-94l-56 163h-305zM329 607l-126 -365h253zM426 774c-31 0 -57 25 -57 57c0 31 26 56 57 56c32 0 57 -25 57 -56c0 -32 -25 -57 -57 -57zM232 774c-31 0 -57 25 -57 57c0 31 26 56 57 56s57 -25 57 -56c0 -32 -26 -57 -57 -57z" />
    <glyph glyph-name="Igrave" unicode="&#xcc;" horiz-adv-x="260" 
d="M173 0h-86v700h86v-700zM96 877l69 -121h-69l-90 121h90z" />
    <glyph glyph-name="Iacute" unicode="&#xcd;" horiz-adv-x="260" 
d="M173 0h-86v700h86v-700zM164 877h90l-91 -121h-69z" />
    <glyph glyph-name="Icircumflex" unicode="&#xce;" horiz-adv-x="260" 
d="M87 700h86v-700h-86v700zM43 746h-64l115 141h76l116 -141h-63l-90 90z" />
    <glyph glyph-name="Idieresis" unicode="&#xcf;" horiz-adv-x="260" 
d="M87 0v700h86v-700h-86zM170 812c0 31 26 56 57 56s57 -25 57 -56s-26 -56 -57 -56s-57 25 -57 56zM-24 812c0 31 26 56 57 56s57 -25 57 -56s-26 -56 -57 -56s-57 25 -57 56z" />
    <glyph glyph-name="Ntilde" unicode="&#xd1;" horiz-adv-x="718" 
d="M87 0v700h86l372 -559v559h86v-700h-87l-371 559v-559h-86zM201 815c-1 63 42 102 88 102c57 0 78 -58 119 -58c21 0 35 16 35 47h51c1 -64 -43 -102 -89 -102c-57 0 -78 57 -118 57c-19 0 -35 -13 -35 -46h-51z" />
    <glyph glyph-name="Ograve" unicode="&#xd2;" horiz-adv-x="800" 
d="M55 350c0 197 144 360 345 360s345 -163 345 -360s-144 -360 -345 -360s-345 163 -345 360zM141 350c0 -150 103 -281 259 -281s259 131 259 281c0 151 -103 281 -259 281s-259 -130 -259 -281zM365 785l-90 121h90l69 -121h-69z" />
    <glyph glyph-name="Oacute" unicode="&#xd3;" horiz-adv-x="800" 
d="M55 350c0 197 144 360 345 360s345 -163 345 -360s-144 -360 -345 -360s-345 163 -345 360zM400 631c-156 0 -259 -130 -259 -281c0 -150 103 -281 259 -281s259 131 259 281c0 151 -103 281 -259 281zM363 785l70 121h90l-91 -121h-69z" />
    <glyph glyph-name="Ocircumflex" unicode="&#xd4;" horiz-adv-x="800" 
d="M55 350c0 197 144 360 345 360s345 -163 345 -360s-144 -360 -345 -360s-345 163 -345 360zM400 631c-156 0 -259 -130 -259 -281c0 -150 103 -281 259 -281s259 131 259 281c0 151 -103 281 -259 281zM312 775h-63l114 141h76l116 -141h-63l-90 90z" />
    <glyph glyph-name="Otilde" unicode="&#xd5;" horiz-adv-x="800" 
d="M55 350c0 197 144 360 345 360s345 -163 345 -360s-144 -360 -345 -360s-345 163 -345 360zM141 350c0 -150 103 -281 259 -281s259 131 259 281c0 151 -103 281 -259 281s-259 -130 -259 -281zM252 825c-1 63 42 102 88 102c57 0 79 -58 119 -58c22 0 35 16 35 47h51
c1 -64 -42 -102 -89 -102c-56 0 -78 57 -118 57c-19 0 -35 -13 -35 -46h-51z" />
    <glyph glyph-name="Odieresis" unicode="&#xd6;" horiz-adv-x="800" 
d="M55 350c0 197 144 360 345 360s345 -163 345 -360s-144 -360 -345 -360s-345 163 -345 360zM400 631c-156 0 -259 -130 -259 -281c0 -150 103 -281 259 -281s259 131 259 281c0 151 -103 281 -259 281zM439 841c0 31 26 56 57 56s57 -25 57 -56c0 -32 -26 -57 -57 -57
s-57 25 -57 57zM245 841c0 31 26 56 57 56s57 -25 57 -56c0 -32 -26 -57 -57 -57s-57 25 -57 57z" />
    <glyph glyph-name="Ugrave" unicode="&#xd9;" horiz-adv-x="679" 
d="M339 -10c-161 0 -258 118 -258 269v441h86v-441c0 -98 52 -190 172 -190s173 92 173 190v441h86v-441c0 -151 -97 -269 -259 -269zM308 775l-91 121h90l70 -121h-69z" />
    <glyph glyph-name="Uacute" unicode="&#xda;" horiz-adv-x="679" 
d="M339 -10c-161 0 -258 118 -258 269v441h86v-441c0 -98 52 -190 172 -190s173 92 173 190v441h86v-441c0 -151 -97 -269 -259 -269zM375 775h-69l69 121h91z" />
    <glyph glyph-name="Ucircumflex" unicode="&#xdb;" horiz-adv-x="679" 
d="M81 259v441h86v-441c0 -98 52 -190 172 -190s173 92 173 190v441h86v-441c0 -151 -97 -269 -259 -269c-161 0 -258 118 -258 269zM254 765h-63l114 141h77l115 -141h-63l-90 90z" />
    <glyph glyph-name="Udieresis" unicode="&#xdc;" horiz-adv-x="679" 
d="M81 700h86v-441c0 -98 52 -190 172 -190s173 92 173 190v441h86v-441c0 -151 -97 -269 -259 -269c-161 0 -258 118 -258 269v441zM381 831c0 31 26 56 57 56c32 0 58 -25 58 -56c0 -32 -26 -57 -58 -57c-31 0 -57 25 -57 57zM244 774c-31 0 -57 25 -57 57
c0 31 26 56 57 56s57 -25 57 -56c0 -32 -26 -57 -57 -57z" />
    <glyph glyph-name="Yacute" unicode="&#xdd;" horiz-adv-x="610" 
d="M19 700h98l188 -336l188 336h98l-243 -423v-277h-86v277zM335 775h-69l69 121h90z" />
    <glyph glyph-name="agrave" unicode="&#xe0;" horiz-adv-x="550" 
d="M223 -10c-98 0 -170 64 -170 152c0 163 241 169 348 174v21c0 63 -64 100 -127 100c-62 0 -117 -38 -126 -96l-79 13c17 94 108 157 211 157c113 0 203 -79 203 -178v-333h-82v83c-40 -60 -90 -93 -178 -93zM401 247c-24 -2 -267 4 -267 -107c0 -55 53 -77 110 -77
c90 0 157 74 157 157v27zM239 586l-91 121h90l69 -121h-68z" />
    <glyph glyph-name="aacute" unicode="&#xe1;" horiz-adv-x="549" 
d="M221 -10c-98 0 -170 64 -170 152c0 163 241 169 348 174v21c0 63 -64 100 -126 100c-63 0 -118 -38 -127 -96l-78 13c16 94 107 157 210 157c113 0 203 -79 203 -178v-333h-82v83c-40 -60 -90 -93 -178 -93zM132 140c0 -55 53 -77 110 -77c90 0 157 74 157 157v27
c-24 -2 -267 4 -267 -107zM234 586l70 121h90l-90 -121h-70z" />
    <glyph glyph-name="acircumflex" unicode="&#xe2;" horiz-adv-x="552" 
d="M223 -10c-98 0 -170 64 -170 152c0 163 241 169 348 174v21c0 63 -64 100 -127 100c-62 0 -117 -38 -126 -96l-79 13c17 94 108 157 211 157c113 0 203 -79 203 -178v-333h-82v83c-40 -60 -90 -93 -178 -93zM134 140c0 -55 53 -77 110 -77c90 0 157 74 157 157v27
c-24 -2 -267 4 -267 -107zM185 576h-63l114 141h77l115 -141h-63l-90 89z" />
    <glyph glyph-name="atilde" unicode="&#xe3;" horiz-adv-x="553" 
d="M224 -10c-99 0 -171 64 -171 152c0 163 241 169 349 174v21c0 63 -64 100 -127 100c-62 0 -117 -38 -126 -96l-79 13c17 94 107 157 211 157c113 0 203 -79 203 -178v-333h-82v83c-41 -60 -91 -93 -178 -93zM402 247c-25 -2 -267 4 -267 -107c0 -55 52 -77 110 -77
c90 0 157 74 157 157v27zM126 625c-1 64 42 102 88 102c57 0 78 -58 119 -58c21 0 35 17 35 47h51c1 -64 -43 -102 -89 -102c-57 0 -78 58 -118 58c-19 0 -35 -13 -35 -47h-51z" />
    <glyph glyph-name="adieresis" unicode="&#xe4;" horiz-adv-x="554" 
d="M224 -10c-98 0 -170 64 -170 152c0 163 241 169 348 174v21c0 63 -64 100 -126 100c-63 0 -118 -38 -126 -96l-79 13c16 94 107 157 211 157c112 0 202 -79 202 -178v-333h-82v83c-40 -60 -90 -93 -178 -93zM136 140c0 -55 52 -77 109 -77c91 0 157 74 157 157v27
c-24 -2 -266 4 -266 -107zM370 585c-31 0 -57 25 -57 56s26 56 57 56s57 -25 57 -56s-26 -56 -57 -56zM176 585c-31 0 -57 25 -57 56s26 56 57 56s57 -25 57 -56s-26 -56 -57 -56z" />
    <glyph glyph-name="egrave" unicode="&#xe8;" horiz-adv-x="591" 
d="M303 -10c-150 0 -252 111 -252 259c0 146 99 262 248 262c153 0 243 -121 243 -269c0 -6 0 -12 -1 -18h-410c4 -92 78 -160 172 -160c63 0 122 30 149 88l79 -14c-42 -95 -124 -148 -228 -148zM299 437c-84 0 -153 -60 -165 -144h325c-6 83 -80 144 -160 144zM176 707h90
l70 -121h-69z" />
    <glyph glyph-name="eacute" unicode="&#xe9;" horiz-adv-x="591" 
d="M302 -10c-151 0 -253 111 -253 259c0 146 99 262 249 262c152 0 243 -121 243 -269c0 -6 0 -12 -1 -18h-411c5 -92 79 -160 172 -160c63 0 122 30 150 88l79 -14c-43 -95 -124 -148 -228 -148zM132 293h325c-6 83 -80 144 -159 144c-85 0 -154 -60 -166 -144zM263 586
l69 121h91l-91 -121h-69z" />
    <glyph glyph-name="ecircumflex" unicode="&#xea;" horiz-adv-x="594" 
d="M304 -10c-150 0 -253 111 -253 259c0 146 100 262 249 262c152 0 243 -121 243 -269c0 -6 0 -12 -1 -18h-410c4 -92 78 -160 171 -160c63 0 123 30 150 88l79 -14c-42 -95 -124 -148 -228 -148zM135 293h325c-7 83 -80 144 -160 144c-84 0 -153 -60 -165 -144zM214 576
h-63l114 141h77l115 -141h-63l-90 89z" />
    <glyph glyph-name="edieresis" unicode="&#xeb;" horiz-adv-x="595" 
d="M305 -10c-151 0 -253 111 -253 259c0 146 99 262 249 262c152 0 243 -121 243 -269c0 -6 0 -12 -1 -18h-411c5 -92 79 -160 172 -160c63 0 122 30 150 88l79 -14c-43 -95 -124 -148 -228 -148zM301 437c-85 0 -154 -60 -166 -144h325c-6 83 -80 144 -159 144zM399 585
c-32 0 -58 25 -58 56s26 56 58 56c31 0 57 -25 57 -56s-26 -56 -57 -56zM147 641c0 31 26 56 57 56c32 0 58 -25 58 -56s-26 -56 -58 -56c-31 0 -57 25 -57 56z" />
    <glyph glyph-name="igrave" unicode="&#xec;" horiz-adv-x="218" 
d="M160 0h-82v501h82v-501zM89 697l69 -121h-68l-91 121h90z" />
    <glyph glyph-name="iacute" unicode="&#xed;" horiz-adv-x="218" 
d="M140 0h-82v501h82v-501zM136 697h91l-91 -121h-69z" />
    <glyph glyph-name="icircumflex" unicode="&#xee;" horiz-adv-x="261" 
d="M90 501h82v-501h-82v501zM47 566h-63l114 141h77l115 -141h-63l-90 89z" />
    <glyph glyph-name="idieresis" unicode="&#xef;" horiz-adv-x="282" 
d="M100 0v501h82v-501h-82zM-9 631c0 31 26 56 57 56s57 -25 57 -56s-26 -56 -57 -56s-57 25 -57 56zM185 631c0 31 26 56 57 56s57 -25 57 -56s-26 -56 -57 -56s-57 25 -57 56z" />
    <glyph glyph-name="ntilde" unicode="&#xf1;" horiz-adv-x="572" 
d="M73 501h82v-85c26 45 83 95 165 95c112 0 185 -94 185 -184v-327h-82v308c0 71 -40 128 -118 128c-89 0 -150 -74 -150 -178v-258h-82v501zM152 625c-1 64 42 102 88 102c56 0 78 -58 118 -58c22 0 36 17 36 47h51c1 -64 -43 -102 -89 -102c-57 0 -78 58 -119 58
c-19 0 -34 -13 -34 -47h-51z" />
    <glyph glyph-name="ograve" unicode="&#xf2;" horiz-adv-x="612" 
d="M49 250c0 150 106 261 258 261s257 -111 257 -261s-105 -260 -257 -260s-258 110 -258 260zM133 250c0 -107 65 -186 174 -186c108 0 173 79 173 186c0 108 -65 186 -173 186c-109 0 -174 -78 -174 -186zM273 586l-90 121h89l70 -121h-69z" />
    <glyph glyph-name="oacute" unicode="&#xf3;" horiz-adv-x="612" 
d="M49 250c0 150 105 261 258 261c152 0 256 -111 256 -261s-104 -260 -256 -260c-153 0 -258 110 -258 260zM306 436c-109 0 -173 -78 -173 -186c0 -107 64 -186 173 -186s173 79 173 186c0 108 -64 186 -173 186zM270 586l70 121h90l-90 -121h-70z" />
    <glyph glyph-name="ocircumflex" unicode="&#xf4;" horiz-adv-x="612" 
d="M49 250c0 150 105 261 258 261c152 0 256 -111 256 -261s-104 -260 -256 -260c-153 0 -258 110 -258 260zM306 436c-109 0 -173 -78 -173 -186c0 -107 64 -186 173 -186s173 79 173 186c0 108 -64 186 -173 186zM219 576h-63l114 141h77l115 -141h-63l-90 89z" />
    <glyph glyph-name="otilde" unicode="&#xf5;" horiz-adv-x="613" 
d="M49 250c0 150 106 261 258 261s257 -111 257 -261s-105 -260 -257 -260s-258 110 -258 260zM133 250c0 -107 65 -186 174 -186c108 0 173 79 173 186c0 108 -65 186 -173 186c-109 0 -174 -78 -174 -186zM160 625c-1 64 42 102 88 102c57 0 78 -58 119 -58
c21 0 35 17 35 47h51c1 -64 -43 -102 -89 -102c-57 0 -78 58 -118 58c-19 0 -35 -13 -35 -47h-51z" />
    <glyph glyph-name="odieresis" unicode="&#xf6;" horiz-adv-x="614" 
d="M50 250c0 150 106 261 258 261s256 -111 256 -261s-104 -260 -256 -260c-153 0 -258 110 -258 260zM307 436c-108 0 -173 -78 -173 -186c0 -107 65 -186 173 -186c109 0 174 79 174 186c0 108 -65 186 -174 186zM153 641c0 31 26 56 57 56s57 -25 57 -56s-26 -56 -57 -56
s-57 25 -57 56zM347 641c0 31 26 56 57 56s57 -25 57 -56s-26 -56 -57 -56s-57 25 -57 56z" />
    <glyph glyph-name="yacute" unicode="&#xfd;" horiz-adv-x="519" 
d="M23 501h86l157 -386l144 386h86l-280 -721h-89l97 239zM230 576l69 121h90l-90 -121h-69z" />
    <glyph glyph-name="ydieresis" unicode="&#xff;" horiz-adv-x="523" 
d="M25 501h86l157 -386l144 386h86l-281 -721h-88l97 239zM170 575c-31 0 -57 25 -57 56s26 56 57 56s57 -25 57 -56s-26 -56 -57 -56zM307 631c0 31 26 56 57 56s57 -25 57 -56s-26 -56 -57 -56s-57 25 -57 56z" />
    <glyph glyph-name="Ydieresis" unicode="&#x178;" horiz-adv-x="610" 
d="M19 700h98l188 -336l188 336h98l-243 -423v-277h-86v277zM398 774c-31 0 -57 25 -57 57c0 31 26 56 57 56c32 0 57 -25 57 -56c0 -32 -25 -57 -57 -57zM204 774c-31 0 -57 25 -57 57c0 31 26 56 57 56s57 -25 57 -56c0 -32 -26 -57 -57 -57z" />
    <glyph glyph-name="Egrave" unicode="&#xc8;" horiz-adv-x="575" 
d="M87 0v700h423v-79h-337v-232h318v-77h-318v-233h337v-79h-423zM269 775l-91 121h90l70 -121h-69z" />
    <glyph glyph-name="Eacute" unicode="&#xc9;" horiz-adv-x="575" 
d="M87 0v700h423v-79h-337v-232h318v-77h-318v-233h337v-79h-423zM267 775l69 121h91l-91 -121h-69z" />
    <glyph glyph-name="Ecircumflex" unicode="&#xca;" horiz-adv-x="575" 
d="M87 0v700h423v-79h-337v-232h318v-77h-318v-233h337v-79h-423zM152 765l115 141h76l115 -141h-63l-90 90l-90 -90h-63z" />
    <glyph glyph-name="Edieresis" unicode="&#xcb;" horiz-adv-x="575" 
d="M87 0v700h423v-79h-337v-232h318v-77h-318v-233h337v-79h-423zM342 831c0 31 26 56 57 56c32 0 58 -25 58 -56c0 -32 -26 -57 -58 -57c-31 0 -57 25 -57 57zM205 774c-31 0 -57 25 -57 57c0 31 26 56 57 56s57 -25 57 -56c0 -32 -26 -57 -57 -57z" />
    <glyph glyph-name="ccedilla" unicode="&#xe7;" horiz-adv-x="568" 
d="M49 250c0 149 100 261 251 261c102 0 201 -67 224 -170l-80 -14c-18 68 -74 109 -144 109c-110 0 -169 -81 -169 -186s59 -186 169 -186c70 0 126 42 144 110l80 -14c-22 -101 -115 -166 -215 -170l-18 -52c46 -8 79 -35 79 -85c0 -62 -53 -83 -107 -83
c-21 0 -44 3 -64 10l8 46c14 -4 32 -6 46 -6c20 0 50 9 50 35c0 36 -60 40 -87 40l28 100c-119 24 -195 126 -195 255z" />
    <glyph glyph-name="perthousand" unicode="&#x2030;" horiz-adv-x="1002" 
d="M430 152c0 94 55 162 150 162c50 0 90 -26 114 -58c25 32 65 58 114 58c96 0 151 -68 151 -162c0 -95 -55 -162 -151 -162c-50 0 -89 27 -114 60c-24 -33 -64 -60 -113 -60c-96 0 -151 67 -151 162zM43 548c0 95 55 162 152 162c96 0 151 -67 151 -162
s-55 -162 -151 -162c-97 0 -152 67 -152 162zM91 0l500 700h92l-500 -700h-92zM195 637c-50 0 -79 -37 -79 -89s29 -89 79 -89c49 0 78 37 78 89s-29 89 -78 89zM808 241c-50 0 -79 -37 -79 -89s29 -89 79 -89c49 0 78 37 78 89s-29 89 -78 89zM581 241
c-49 0 -78 -37 -78 -89s29 -89 78 -89c50 0 77 37 77 89s-27 89 -77 89z" />
    <glyph glyph-name="Aring" unicode="&#xc5;" horiz-adv-x="658" 
d="M121 0h-94l254 700h97l254 -700h-94l-56 163h-305zM329 607l-126 -365h253zM329 743c-59 0 -112 42 -112 107c0 66 52 110 112 110c61 0 110 -45 110 -110c0 -64 -49 -107 -110 -107zM272 850c0 -33 25 -55 56 -55c32 0 56 22 56 55c0 35 -24 59 -56 59
c-31 0 -56 -24 -56 -59z" />
    <glyph glyph-name="aring" unicode="&#xe5;" horiz-adv-x="548" 
d="M221 -10c-98 0 -170 64 -170 152c0 163 241 169 348 174v21c0 63 -64 100 -126 100c-63 0 -118 -38 -127 -96l-78 13c16 94 107 157 210 157c113 0 203 -79 203 -178v-333h-82v83c-40 -60 -90 -93 -178 -93zM132 140c0 -55 53 -77 110 -77c90 0 157 74 157 157v27
c-24 -2 -267 4 -267 -107zM270 553c-59 0 -112 43 -112 108s52 110 112 110s110 -46 110 -110s-50 -108 -110 -108zM269 720c-31 0 -56 -25 -56 -59c0 -33 25 -56 56 -56s56 23 56 56c0 34 -24 59 -56 59z" />
    <glyph glyph-name="ugrave" unicode="&#xf9;" horiz-adv-x="576" 
d="M70 501h82v-308c0 -71 40 -128 118 -128c89 0 150 74 150 177v259h82v-501h-82v85c-26 -45 -83 -95 -164 -95c-113 0 -186 94 -186 183v328zM175 697h90l69 -121h-68z" />
    <glyph glyph-name="uacute" unicode="&#xfa;" horiz-adv-x="576" 
d="M69 501h82v-308c0 -71 40 -128 118 -128c90 0 151 74 151 177v259h82v-501h-82v85c-26 -45 -84 -95 -165 -95c-113 0 -186 94 -186 183v328zM332 576h-69l69 121h91z" />
    <glyph glyph-name="ucircumflex" unicode="&#xfb;" horiz-adv-x="575" 
d="M69 501h82v-308c0 -71 40 -128 118 -128c90 0 151 74 151 177v259h82v-501h-82v85c-26 -45 -84 -95 -165 -95c-113 0 -186 94 -186 183v328zM211 566h-63l114 141h77l115 -141h-63l-90 89z" />
    <glyph glyph-name="udieresis" unicode="&#xfc;" horiz-adv-x="579" 
d="M71 501h82v-308c0 -71 40 -128 118 -128c90 0 151 74 151 177v259h81v-501h-81v85c-26 -45 -84 -95 -165 -95c-113 0 -186 94 -186 183v328zM146 631c0 31 26 56 57 56s57 -25 57 -56s-26 -56 -57 -56s-57 25 -57 56zM340 631c0 31 26 56 57 56s57 -25 57 -56
s-26 -56 -57 -56s-57 25 -57 56z" />
    </font>
</defs>
</svg>
