<?xml version="1.0" standalone="no"?>
<!DOCTYPE svg PUBLIC "-//W3C//DTD SVG 1.1//EN" "http://www.w3.org/Graphics/SVG/1.1/DTD/svg11.dtd" >
<svg xmlns="http://www.w3.org/2000/svg" xmlns:xlink="http://www.w3.org/1999/xlink" version="1.1">
<metadata>
Created by FontXChange 20190801 at Fri Jun 19 09:25:07 2020
 By Sarah Hähnle
</metadata>
<defs>
<font id="Segment-Medium" horiz-adv-x="643" >
  <font-face 
    font-family="Segment"
    font-weight="500"
    font-stretch="normal"
    units-per-em="1000"
    panose-1="0 0 0 0 0 0 0 0 0 0"
    ascent="800"
    descent="-200"
    x-height="503"
    cap-height="700"
    bbox="-61 -234 1049 960"
    underline-thickness="50"
    underline-position="-125"
    stemh="94"
    stemv="106"
    unicode-range="U+000D-FB02"
  />
<missing-glyph horiz-adv-x="580" 
d="M505 560h-430v60h430v-60zM505 480h-430v60h430v-60zM505 80h-430v60h430v-60zM505 640h-430v60h430v-60zM75 240v60h430v-60h-430zM75 160v60h430v-60h-430zM75 400v60h430v-60h-430zM75 320v60h430v-60h-430zM75 0v60h430v-60h-430z" />
    <glyph glyph-name="fi" unicode="fi" horiz-adv-x="552" 
d="M107 418h-80v85h80v57c0 104 41 170 155 170c28 0 50 -3 58 -4v-91c-4 2 -33 7 -56 3c-40 -5 -56 -26 -56 -77v-58h277v-503h-102v418h-175v-418h-101v418zM368 673c0 36 28 65 65 65s65 -29 65 -65c0 -37 -28 -66 -65 -66s-65 29 -65 66z" />
    <glyph glyph-name="fl" unicode="fl" horiz-adv-x="551" 
d="M107 418h-80v85h80v54c0 104 41 163 155 163h220v-720h-102v629l-112 -1c-41 0 -60 -18 -60 -67v-58h109v-85h-109v-418h-101v418z" />
    <glyph glyph-name=".notdef" horiz-adv-x="580" 
d="M505 560h-430v60h430v-60zM505 480h-430v60h430v-60zM505 80h-430v60h430v-60zM505 640h-430v60h430v-60zM75 240v60h430v-60h-430zM75 160v60h430v-60h-430zM75 400v60h430v-60h-430zM75 320v60h430v-60h-430zM75 0v60h430v-60h-430z" />
    <glyph glyph-name="uni0000" horiz-adv-x="0" 
 />
    <glyph glyph-name="uni0000" horiz-adv-x="0" 
 />
    <glyph glyph-name="uni000D" unicode="&#xd;" horiz-adv-x="250" 
 />
    <glyph glyph-name="space" unicode=" " horiz-adv-x="235" 
 />
    <glyph glyph-name="A" unicode="A" horiz-adv-x="666" 
d="M137 0h-114l254 700h113l254 -700h-115l-52 154h-287zM333 584l-115 -336h230z" />
    <glyph glyph-name="B" unicode="B" horiz-adv-x="655" 
d="M83 0v700h294c107 0 198 -79 198 -188c0 -66 -32 -110 -87 -141c69 -27 110 -95 110 -168c0 -113 -93 -203 -205 -203h-310zM189 94h196c61 0 107 48 107 108c0 59 -45 117 -107 117h-196v-225zM189 606v-197h184c55 0 96 45 96 99c0 56 -44 98 -99 98h-181z" />
    <glyph glyph-name="C" unicode="C" horiz-adv-x="743" 
d="M396 -10c-207 0 -345 158 -345 360s138 360 345 360c143 0 257 -79 304 -214l-104 -19c-35 87 -102 139 -198 139c-152 0 -241 -122 -241 -266s89 -266 241 -266c96 0 163 52 198 139l104 -18c-47 -136 -161 -215 -304 -215z" />
    <glyph glyph-name="D" unicode="D" horiz-adv-x="721" 
d="M83 0v700h239c207 0 348 -144 348 -350c0 -200 -148 -350 -348 -350h-239zM189 606v-512h136c138 0 239 111 239 256c0 152 -94 256 -239 256h-136z" />
    <glyph glyph-name="E" unicode="E" horiz-adv-x="582" 
d="M83 0v700h435v-94h-329v-209h312v-91h-312v-212h329v-94h-435z" />
    <glyph glyph-name="F" unicode="F" horiz-adv-x="548" 
d="M83 0v700h425v-94h-319v-226h299v-92h-299v-288h-106z" />
    <glyph glyph-name="G" unicode="G" horiz-adv-x="781" 
d="M51 349c0 201 142 361 351 361c130 0 234 -63 299 -178l-107 -23c-42 69 -111 107 -194 107c-150 0 -243 -123 -243 -270c0 -149 95 -262 244 -262c125 0 221 80 225 201h-213v92h315c2 -20 2 -39 2 -52c0 -200 -134 -335 -325 -335c-204 0 -354 153 -354 359z" />
    <glyph glyph-name="H" unicode="H" horiz-adv-x="726" 
d="M189 0h-106v700h106v-310h349v310h106v-700h-106v298h-349v-298z" />
    <glyph glyph-name="I" unicode="I" horiz-adv-x="272" 
d="M189 0h-106v700h106v-700z" />
    <glyph glyph-name="J" unicode="J" horiz-adv-x="560" 
d="M25 197l103 18c5 -78 54 -131 128 -131c78 0 122 56 122 133v483h106v-482c0 -137 -91 -228 -226 -228c-132 0 -222 87 -233 207z" />
    <glyph glyph-name="K" unicode="K" horiz-adv-x="650" 
d="M83 700h106v-319l284 319h136l-284 -315l304 -385h-134l-240 310l-66 -74v-236h-106v700z" />
    <glyph glyph-name="L" unicode="L" horiz-adv-x="523" 
d="M189 94h317v-94h-423v700h106v-606z" />
    <glyph glyph-name="M" unicode="M" horiz-adv-x="852" 
d="M83 700h126l217 -542l217 542h126v-700h-104v523l-205 -523h-68l-205 523v-523h-104v700z" />
    <glyph glyph-name="N" unicode="N" horiz-adv-x="724" 
d="M83 0v700h108l344 -527v527h106v-700h-109l-343 527v-527h-106z" />
    <glyph glyph-name="O" unicode="O" horiz-adv-x="798" 
d="M51 350c0 198 147 360 348 360s348 -162 348 -360s-147 -360 -348 -360s-348 162 -348 360zM399 616c-147 0 -242 -124 -242 -266s95 -266 242 -266s242 124 242 266s-95 266 -242 266z" />
    <glyph glyph-name="P" unicode="P" horiz-adv-x="622" 
d="M189 0h-106v700h272c129 0 229 -98 229 -227s-100 -227 -229 -227h-166v-246zM189 606v-267h158c75 0 130 58 130 134c0 75 -55 133 -130 133h-158z" />
    <glyph glyph-name="Q" unicode="Q" horiz-adv-x="800" 
d="M399 -10c-200 0 -348 160 -348 360s148 360 348 360s348 -160 348 -360c0 -89 -31 -169 -82 -231l58 -58l-72 -71l-60 61c-55 -38 -119 -61 -192 -61zM399 616c-144 0 -242 -121 -242 -266s98 -266 242 -266c46 0 86 14 122 36l-117 118l71 71l117 -118
c33 43 49 99 49 159c0 145 -98 266 -242 266z" />
    <glyph glyph-name="R" unicode="R" horiz-adv-x="641" 
d="M189 0h-106v700h261c129 0 234 -95 234 -223c0 -94 -57 -171 -137 -207l157 -270h-120l-139 249h-150v-249zM189 606v-264h147c75 0 135 59 135 135c0 75 -60 129 -135 129h-147z" />
    <glyph glyph-name="S" unicode="S" horiz-adv-x="608" 
d="M51 180l101 18c14 -71 81 -115 159 -115c71 0 140 37 140 107c0 65 -58 91 -128 114c-113 36 -258 60 -258 205c0 130 114 201 230 201c108 0 212 -61 240 -178l-100 -17c-20 67 -73 102 -139 102c-69 0 -127 -40 -127 -101s59 -86 131 -108c112 -34 255 -61 255 -210
c0 -134 -116 -208 -247 -208c-127 0 -229 69 -257 190z" />
    <glyph glyph-name="T" unicode="T" horiz-adv-x="568" 
d="M19 700h530v-94h-212v-606h-106v606h-212v94z" />
    <glyph glyph-name="U" unicode="U" horiz-adv-x="688" 
d="M77 254v446h106v-446c0 -88 51 -170 161 -170c109 0 162 82 162 170v446h106v-446c0 -150 -104 -264 -268 -264s-267 114 -267 264z" />
    <glyph glyph-name="V" unicode="V" horiz-adv-x="642" 
d="M21 700h114l186 -567l187 567h114l-243 -700h-116z" />
    <glyph glyph-name="W" unicode="W" horiz-adv-x="938" 
d="M216 0l-189 700h107l140 -549l158 549h74l158 -549l141 549h106l-189 -700h-110l-143 509l-143 -509h-110z" />
    <glyph glyph-name="X" unicode="X" horiz-adv-x="640" 
d="M147 0h-124l239 364l-219 336h124l153 -249l154 249h124l-220 -336l240 -364h-124l-174 274z" />
    <glyph glyph-name="Y" unicode="Y" horiz-adv-x="616" 
d="M15 700h120l173 -322l173 322h121l-241 -427v-273h-106v273z" />
    <glyph glyph-name="Z" unicode="Z" horiz-adv-x="595" 
d="M164 94h396v-94h-523v83l386 523h-376v94h503v-83z" />
    <glyph glyph-name="a" unicode="a" horiz-adv-x="549" 
d="M216 -10c-96 0 -169 64 -169 153c0 159 228 170 337 174v20c0 55 -54 89 -113 89c-56 0 -105 -35 -113 -87l-95 17c18 95 111 157 214 157c115 0 209 -77 209 -183v-330h-102v76c-38 -56 -89 -86 -168 -86zM384 239c-27 -1 -236 2 -236 -97c0 -48 44 -68 96 -68
c80 0 140 66 140 142v23z" />
    <glyph glyph-name="b" unicode="b" horiz-adv-x="628" 
d="M69 720h101v-293c37 53 102 86 177 86c141 0 236 -114 236 -261c0 -146 -94 -262 -235 -262c-74 0 -142 32 -178 87v-77h-101v720zM326 423c-100 0 -157 -75 -157 -172c0 -96 57 -172 156 -172c95 0 156 69 156 172s-60 172 -155 172z" />
    <glyph glyph-name="c" unicode="c" horiz-adv-x="567" 
d="M45 251c0 150 103 262 255 262c105 0 208 -68 229 -175l-97 -18c-16 63 -67 103 -133 103c-101 0 -152 -77 -152 -172c0 -94 51 -172 152 -172c66 0 117 40 133 103l97 -17c-21 -108 -124 -175 -229 -175c-152 0 -255 111 -255 261z" />
    <glyph glyph-name="d" unicode="d" horiz-adv-x="628" 
d="M280 513c75 0 141 -33 177 -86v293h102v-720h-102v77c-35 -55 -103 -87 -177 -87c-141 0 -235 116 -235 262c0 147 95 261 235 261zM302 79c100 0 156 76 156 172c0 97 -56 172 -156 172c-95 0 -155 -69 -155 -172s61 -172 155 -172z" />
    <glyph glyph-name="e" unicode="e" horiz-adv-x="587" 
d="M300 -10c-151 0 -255 111 -255 261c0 147 101 262 251 262c154 0 247 -120 247 -269c0 -8 -1 -16 -2 -24h-398c6 -83 73 -142 157 -142c57 0 110 26 136 78l95 -17c-42 -98 -127 -149 -231 -149zM147 299h294c-7 75 -73 127 -145 127c-75 0 -138 -52 -149 -127z" />
    <glyph glyph-name="f" unicode="f" horiz-adv-x="341" 
d="M107 418h-80v85h80v57c0 104 41 170 155 170c28 0 50 -3 58 -4v-91c-4 2 -33 7 -56 3c-40 -5 -56 -26 -56 -77v-58h109v-85h-109v-418h-101v418z" />
    <glyph glyph-name="g" unicode="g" horiz-adv-x="623" 
d="M45 258c0 137 92 255 236 255c65 0 136 -30 172 -85v75h102v-495c0 -155 -105 -238 -255 -238c-108 0 -205 46 -235 154l103 18c16 -61 76 -83 135 -83c94 0 150 52 150 147v74c-36 -54 -104 -77 -167 -77c-144 0 -241 115 -241 255zM300 422c-96 0 -153 -70 -153 -164
c0 -95 57 -165 153 -165c97 0 154 72 154 165s-57 164 -154 164z" />
    <glyph glyph-name="h" unicode="h" horiz-adv-x="578" 
d="M170 0h-101v720h101v-301c29 46 85 94 165 94c111 0 180 -93 180 -188v-325h-101v301c0 66 -33 122 -108 122c-85 0 -136 -74 -136 -169v-254z" />
    <glyph glyph-name="i" unicode="i" horiz-adv-x="238" 
d="M170 0h-101v503h101v-503zM54 673c0 36 28 65 65 65s65 -29 65 -65c0 -37 -28 -66 -65 -66s-65 29 -65 66z" />
    <glyph glyph-name="j" unicode="j" horiz-adv-x="233" 
d="M-61 -138c86 -8 125 15 125 106v535h102v-527c0 -135 -42 -206 -191 -206c-14 0 -36 1 -36 1v91zM114 607c-37 0 -65 29 -65 66c0 36 28 65 65 65s65 -29 65 -65c0 -37 -28 -66 -65 -66z" />
    <glyph glyph-name="k" unicode="k" horiz-adv-x="552" 
d="M69 705h101v-416l214 214h130l-207 -208l223 -295h-123l-172 230l-65 -65v-165h-101v705z" />
    <glyph glyph-name="l" unicode="l" horiz-adv-x="239" 
d="M170 0h-101v720h101v-720z" />
    <glyph glyph-name="m" unicode="m" horiz-adv-x="879" 
d="M69 0v503h101v-79c33 59 90 89 151 89c70 0 128 -41 150 -104c34 69 99 104 170 104c113 0 175 -88 175 -199v-314h-101v303c0 69 -35 118 -101 118c-83 0 -119 -77 -119 -154v-267h-101v303c0 69 -35 118 -102 118c-83 0 -122 -76 -122 -154v-267h-101z" />
    <glyph glyph-name="n" unicode="n" horiz-adv-x="578" 
d="M170 0h-101v503h101v-80c29 46 85 90 161 90c115 0 184 -93 184 -188v-325h-101v301c0 66 -33 122 -109 122c-84 0 -135 -69 -135 -164v-259z" />
    <glyph glyph-name="o" unicode="o" horiz-adv-x="611" 
d="M45 251c0 153 107 262 261 262s261 -109 261 -262s-107 -261 -261 -261s-261 108 -261 261zM306 423c-101 0 -158 -74 -158 -172c0 -97 57 -172 158 -172c100 0 158 75 158 172c0 98 -58 172 -158 172z" />
    <glyph glyph-name="p" unicode="p" horiz-adv-x="628" 
d="M170 -220h-101v723h101v-77c36 55 104 87 178 87c141 0 235 -116 235 -262c0 -147 -95 -261 -236 -261c-75 0 -140 33 -177 86v-296zM326 80c95 0 155 68 155 171c0 104 -61 172 -156 172c-99 0 -156 -75 -156 -172c0 -96 57 -171 157 -171z" />
    <glyph glyph-name="q" unicode="q" horiz-adv-x="628" 
d="M280 -10c-140 0 -235 114 -235 261c0 146 94 262 235 262c74 0 142 -32 177 -87v77h102v-723h-102v296c-36 -53 -102 -86 -177 -86zM302 423c-94 0 -155 -68 -155 -172c0 -103 60 -171 155 -171c100 0 156 75 156 171c0 97 -56 172 -156 172z" />
    <glyph glyph-name="r" unicode="r" horiz-adv-x="377" 
d="M69 0v503h101v-85c36 62 80 92 150 94c10 0 20 1 33 -1v-91c-109 12 -183 -48 -183 -170v-250h-101z" />
    <glyph glyph-name="s" unicode="s" horiz-adv-x="489" 
d="M41 138l99 17c11 -53 56 -79 108 -79c38 0 98 15 98 63c0 46 -57 60 -120 76c-82 21 -174 45 -174 143c0 100 94 155 185 155c84 0 176 -49 195 -137l-98 -17c-10 44 -52 68 -95 68c-37 0 -89 -18 -89 -63c0 -41 53 -55 113 -69c84 -21 184 -45 184 -151
c0 -108 -102 -154 -195 -154c-94 0 -195 46 -211 148z" />
    <glyph glyph-name="t" unicode="t" horiz-adv-x="352" 
d="M25 418v85h81v130l100 17v-147h109v-85h-109l1 -255c0 -55 8 -82 67 -82c15 0 30 3 44 8v-93c-19 -4 -43 -6 -62 -6c-100 0 -151 51 -151 152v276h-80z" />
    <glyph glyph-name="u" unicode="u" horiz-adv-x="580" 
d="M65 178v325h101v-302c0 -65 33 -121 109 -121c84 0 135 69 135 164v259h101v-503h-101v80c-29 -46 -85 -90 -161 -90c-115 0 -184 93 -184 188z" />
    <glyph glyph-name="v" unicode="v" horiz-adv-x="528" 
d="M21 503h107l136 -379l136 379h107l-191 -503h-104z" />
    <glyph glyph-name="w" unicode="w" horiz-adv-x="805" 
d="M23 503h103l110 -378l121 378h91l122 -378l109 378h103l-160 -503h-101l-119 364l-118 -364h-100z" />
    <glyph glyph-name="x" unicode="x" horiz-adv-x="533" 
d="M146 0h-121l181 258l-172 245h120l113 -172l112 172h120l-172 -245l181 -258h-121l-120 184z" />
    <glyph glyph-name="y" unicode="y" horiz-adv-x="530" 
d="M19 503h107l144 -367l133 367h108l-283 -723h-109l99 242z" />
    <glyph glyph-name="z" unicode="z" horiz-adv-x="490" 
d="M168 92h288v-92h-421v76l278 335h-268v92h401v-76z" />
    <glyph glyph-name="copyright" unicode="&#xa9;" horiz-adv-x="838" 
d="M65 350c0 198 150 360 354 360s354 -162 354 -360s-150 -360 -354 -360s-354 162 -354 360zM419 633c-162 0 -272 -134 -272 -283s110 -283 272 -283s272 134 272 283s-110 283 -272 283zM224 350c0 114 81 207 195 207c92 0 162 -59 186 -142l-79 -13
c-16 47 -54 81 -107 81c-72 0 -115 -62 -115 -133c0 -70 43 -132 115 -132c54 0 92 34 107 81l78 -14c-23 -82 -93 -142 -185 -142c-114 0 -195 94 -195 207z" />
    <glyph glyph-name="exclam" unicode="!" horiz-adv-x="278" 
d="M85 700h109l-4 -490h-101zM69 61c0 38 32 70 70 70c39 0 71 -32 71 -70c0 -40 -32 -72 -71 -72c-38 0 -70 32 -70 72z" />
    <glyph glyph-name="quotedbl" unicode="&#x22;" horiz-adv-x="394" 
d="M246 465l-2 245h101l-2 -245h-97zM49 710h101l-2 -245h-97z" />
    <glyph glyph-name="numbersign" unicode="#" horiz-adv-x="769" 
d="M55 166l7 91h137l13 146h-136l7 91h137l16 167h100l-15 -167h156l16 167h100l-15 -167h137l-7 -91h-138l-13 -146h137l-6 -91h-139l-15 -167h-101l15 167h-156l-15 -167h-101l15 167h-136zM307 407l-13 -154h169l12 154h-168z" />
    <glyph glyph-name="dollar" unicode="$" horiz-adv-x="630" 
d="M63 180l101 18c11 -57 57 -96 113 -109v232c-98 30 -200 66 -200 188c0 118 95 188 200 199v64h80v-66c88 -16 166 -75 190 -174l-100 -17c-14 49 -47 81 -90 95v-215c101 -30 210 -67 210 -197c0 -121 -95 -193 -210 -206v-65h-80v66c-106 14 -190 80 -214 187zM357 296
v-210c56 10 106 45 106 104c0 58 -47 85 -106 106zM277 614c-54 -10 -96 -46 -96 -98s42 -77 96 -97v195z" />
    <glyph glyph-name="percent" unicode="%" horiz-adv-x="794" 
d="M197 373c-100 0 -158 70 -158 169s58 168 158 168s157 -69 157 -168s-57 -169 -157 -169zM597 -10c-99 0 -157 69 -157 168s58 169 157 169c100 0 158 -70 158 -169s-58 -168 -158 -168zM95 0l511 716l93 -16l-511 -716zM597 243c-45 0 -72 -34 -72 -84
c0 -51 27 -85 72 -85c46 0 73 34 73 85c0 50 -27 84 -73 84zM124 542c0 -50 28 -85 73 -85s72 35 72 85s-27 85 -72 85s-73 -35 -73 -85z" />
    <glyph glyph-name="quotesingle" unicode="'" horiz-adv-x="198" 
d="M49 710h101l-2 -245h-97z" />
    <glyph glyph-name="parenleft" unicode="(" horiz-adv-x="351" 
d="M69 290c0 201 52 404 131 505h102c-64 -98 -124 -294 -124 -505c0 -212 60 -411 124 -510h-102c-79 101 -131 308 -131 510z" />
    <glyph glyph-name="parenright" unicode=")" horiz-adv-x="351" 
d="M62 795h102c79 -101 131 -304 131 -505c0 -202 -52 -409 -131 -510h-102c64 99 124 298 124 510c0 211 -60 407 -124 505z" />
    <glyph glyph-name="asterisk" unicode="*" horiz-adv-x="441" 
d="M397 585l-133 -55l133 -56l-39 -67l-116 84l18 -141h-79l18 141l-115 -85l-39 69l132 55l-132 55l39 68l115 -85l-18 142h79l-18 -142l116 85z" />
    <glyph glyph-name="plus" unicode="+" horiz-adv-x="627" 
d="M263 248h-174v94h174v185h101v-185h174v-94h-174v-184h-101v184z" />
    <glyph glyph-name="comma" unicode="," horiz-adv-x="212" 
d="M63 100h110l-70 -261h-80z" />
    <glyph glyph-name="hyphen" unicode="-" horiz-adv-x="464" 
d="M405 248h-346v94h346v-94z" />
    <glyph glyph-name="period" unicode="." horiz-adv-x="212" 
d="M33 67c0 39 32 70 70 70c39 0 71 -31 71 -70c0 -40 -32 -71 -71 -71c-38 0 -70 31 -70 71z" />
    <glyph glyph-name="slash" unicode="/" horiz-adv-x="385" 
d="M19 -117l251 878l96 -17l-251 -877z" />
    <glyph glyph-name="bracketleft" unicode="[" horiz-adv-x="364" 
d="M315 -228h-246v1044h246v-96h-140v-852h140v-96z" />
    <glyph glyph-name="backslash" unicode="\" horiz-adv-x="381" 
d="M113 761l251 -878l-96 -16l-251 877z" />
    <glyph glyph-name="bracketright" unicode="]" horiz-adv-x="364" 
d="M49 -132h140v852h-140v96h246v-1044h-246v96z" />
    <glyph glyph-name="underscore" unicode="_" horiz-adv-x="464" 
d="M465 -135h-466v95h466v-95z" />
    <glyph glyph-name="braceleft" unicode="{" horiz-adv-x="454" 
d="M49 338c77 0 114 38 114 120v178c0 138 73 180 190 180c20 0 52 -4 52 -4v-93s-13 1 -22 1c-77 0 -114 -13 -114 -94v-166c0 -77 -32 -135 -77 -163c46 -32 77 -89 77 -165v-168c0 -82 37 -96 114 -96c9 0 22 1 22 1v-93s-32 -3 -52 -3c-117 0 -190 41 -190 182v180
c0 82 -37 120 -114 120v83z" />
    <glyph glyph-name="bar" unicode="|" horiz-adv-x="284" 
d="M195 -220h-106v1020h106v-1020z" />
    <glyph glyph-name="braceright" unicode="}" horiz-adv-x="454" 
d="M71 -132c77 0 114 14 114 96v168c0 76 31 133 77 165c-45 28 -77 86 -77 163v166c0 81 -37 94 -114 94c-9 0 -22 -1 -22 -1v93s31 4 52 4c117 0 190 -42 190 -180v-178c0 -82 37 -120 114 -120v-83c-77 0 -114 -38 -114 -120v-180c0 -141 -73 -182 -190 -182
c-21 0 -52 3 -52 3v93s13 -1 22 -1z" />
    <glyph glyph-name="endash" unicode="&#x2013;" horiz-adv-x="500" 
d="M501 248h-502v94h502v-94z" />
    <glyph glyph-name="emdash" unicode="&#x2014;" horiz-adv-x="998" 
d="M999 248h-1000v93h1000v-93z" />
    <glyph glyph-name="quoteleft" unicode="&#x2018;" horiz-adv-x="247" 
d="M110 700h83l-39 -263h-105z" />
    <glyph glyph-name="quoteright" unicode="&#x2019;" horiz-adv-x="247" 
d="M137 437h-82l38 263h106z" />
    <glyph glyph-name="quotedblleft" unicode="&#x201c;" horiz-adv-x="433" 
d="M154 437h-105l66 263h83zM237 437l59 263h82l-36 -263h-105z" />
    <glyph glyph-name="quotedblright" unicode="&#x201d;" horiz-adv-x="433" 
d="M236 437l43 263h105l-66 -263h-82zM137 437h-82l36 263h105z" />
    <glyph glyph-name="quotedblbase" unicode="&#x201e;" horiz-adv-x="391" 
d="M204 -169l43 263h105l-66 -263h-82zM23 -169l36 263h105l-59 -263h-82z" />
    <glyph glyph-name="bullet" unicode="&#x2022;" horiz-adv-x="404" 
d="M99 350c0 55 47 101 103 101c57 0 103 -46 103 -101s-46 -101 -103 -101c-56 0 -103 46 -103 101z" />
    <glyph glyph-name="guilsinglleft" unicode="&#x2039;" horiz-adv-x="363" 
d="M209 502h107l-164 -215l164 -215h-107l-168 215z" />
    <glyph glyph-name="guilsinglright" unicode="&#x203a;" horiz-adv-x="363" 
d="M47 502h107l168 -215l-168 -215h-107l164 215z" />
    <glyph glyph-name="colon" unicode=":" horiz-adv-x="248" 
d="M54 67c0 39 32 70 70 70c39 0 71 -31 71 -70s-32 -71 -71 -71c-38 0 -70 32 -70 71zM124 394c-38 0 -70 31 -70 70s32 71 70 71c39 0 71 -32 71 -71s-32 -70 -71 -70z" />
    <glyph glyph-name="semicolon" unicode=";" horiz-adv-x="260" 
d="M44 -162l40 261h110l-70 -261h-80zM65 464c0 39 32 71 71 71s70 -32 70 -71s-31 -70 -70 -70s-71 31 -71 70z" />
    <glyph glyph-name="equal" unicode="=" horiz-adv-x="628" 
d="M540 354h-451v96h451v-96zM89 137v96h451v-96h-451z" />
    <glyph glyph-name="question" unicode="?" horiz-adv-x="516" 
d="M138 533l-99 18c20 102 113 159 214 159c110 0 215 -67 215 -184c0 -157 -181 -167 -183 -263l-1 -53h-101l-1 52c-3 149 181 151 181 264c0 63 -56 93 -111 93c-54 0 -101 -29 -114 -86zM234 -4c-39 0 -70 32 -70 70c0 39 31 71 70 71s71 -32 71 -71
c0 -38 -32 -70 -71 -70z" />
    <glyph glyph-name="at" unicode="@" horiz-adv-x="1070" 
d="M63 238c0 263 209 472 472 472c266 0 472 -209 472 -472c0 -193 -118 -240 -186 -240c-33 0 -111 11 -131 100c-32 -61 -98 -100 -172 -100c-123 0 -223 107 -223 240s98 240 221 240c71 0 125 -32 160 -82v72h79v-313c0 -80 59 -81 66 -81c44 0 100 34 100 167
c0 214 -171 389 -386 389s-386 -176 -386 -392s173 -392 385 -392c94 0 171 29 232 74l59 -58c-80 -61 -182 -96 -290 -96c-263 0 -472 209 -472 472zM381 238c0 -92 60 -164 144 -164c87 0 145 68 145 164s-58 164 -145 164c-86 0 -144 -70 -144 -164z" />
    <glyph glyph-name="quotesinglbase" unicode="&#x201a;" horiz-adv-x="205" 
d="M105 -161h-82l38 264h106z" />
    <glyph glyph-name="grave" unicode="`" horiz-adv-x="218" 
d="M131 700l68 -125h-78l-92 125h102z" />
    <glyph glyph-name="less" unicode="&#x3c;" horiz-adv-x="578" 
d="M489 54l-410 195v89l410 195v-108l-298 -131l298 -132v-108z" />
    <glyph glyph-name="greater" unicode="&#x3e;" horiz-adv-x="578" 
d="M89 162l298 132l-298 131v108l410 -195v-89l-410 -195v108z" />
    <glyph glyph-name="asciicircum" unicode="^" horiz-adv-x="520" 
d="M39 405l171 305h100l171 -305h-111l-110 212l-109 -212h-112z" />
    <glyph glyph-name="acute" unicode="&#xb4;" horiz-adv-x="350" 
d="M146 700h105l-92 -125h-80z" />
    <glyph glyph-name="ring" unicode="&#x2da;" horiz-adv-x="384" 
d="M79 677c0 67 52 112 114 112s113 -46 113 -112s-51 -110 -113 -110c-61 0 -114 43 -114 110zM140 677c0 -31 23 -52 52 -52s52 21 52 52c0 32 -22 55 -52 55c-29 0 -52 -23 -52 -55z" />
    <glyph glyph-name="ogonek" unicode="&#x2db;" horiz-adv-x="339" 
d="M79 -122c0 58 43 111 128 150l43 -28c-32 -23 -82 -52 -82 -97c0 -20 10 -41 41 -41c14 -1 29 3 39 9l12 -70c-16 -10 -45 -14 -68 -14c-67 0 -113 31 -113 91z" />
    <glyph glyph-name="circumflex" unicode="&#x2c6;" horiz-adv-x="485" 
d="M79 570l122 145h82l123 -145h-73l-91 85l-90 -85h-73z" />
    <glyph glyph-name="caron" unicode="&#x2c7;" horiz-adv-x="485" 
d="M201 577l-122 146h73l90 -85l91 85h73l-123 -146h-82z" />
    <glyph glyph-name="breve" unicode="&#x2d8;" horiz-adv-x="433" 
d="M79 705h82c0 -33 14 -61 54 -61s57 28 57 61h82c0 -79 -53 -135 -138 -135c-84 0 -137 56 -137 135z" />
    <glyph glyph-name="pi" unicode="&#x3c0;" horiz-adv-x="678" 
d="M64 413l-1 90h552v-90h-74v-413h-98v413h-207v-413h-98v413h-74z" />
    <glyph glyph-name="exclamdown" unicode="&#xa1;" horiz-adv-x="274" 
d="M83 -110l4 429h101l4 -429h-109zM67 470c0 38 31 70 70 70s71 -32 71 -70c0 -39 -32 -71 -71 -71c-38 0 -70 32 -70 71z" />
    <glyph glyph-name="ellipsis" unicode="&#x2026;" horiz-adv-x="751" 
d="M544 67c0 39 31 70 70 70s71 -31 71 -70c0 -40 -32 -71 -71 -71s-70 31 -70 71zM376 -4c-39 0 -71 31 -71 71c0 39 32 70 71 70c38 0 70 -31 70 -70c0 -40 -32 -71 -70 -71zM67 67c0 39 32 70 70 70c39 0 71 -31 71 -70c0 -40 -32 -71 -71 -71c-38 0 -70 31 -70 71z" />
    <glyph glyph-name="minus" unicode="&#x2212;" horiz-adv-x="588" 
d="M499 248h-410v94h410v-94z" />
    <glyph glyph-name="two" unicode="2" horiz-adv-x="591" 
d="M57 0v95l280 247c50 45 85 89 85 153c0 74 -54 122 -126 122c-75 0 -131 -47 -138 -124l-97 17c8 111 101 200 233 200c126 0 231 -84 231 -213c0 -96 -57 -165 -120 -222l-206 -182h327v-93h-469z" />
    <glyph glyph-name="one" unicode="1" horiz-adv-x="347" 
d="M47 606v94h219v-700h-103v606h-116z" />
    <glyph glyph-name="three" unicode="3" horiz-adv-x="604" 
d="M57 198l98 17c0 -84 65 -133 142 -133c71 0 139 46 139 122s-69 122 -139 122h-62v88h63c59 0 112 39 112 102s-54 102 -113 102c-66 0 -112 -43 -113 -112l-97 17c0 114 96 187 211 187s214 -72 214 -187c0 -67 -39 -122 -92 -149c73 -29 119 -96 119 -175
c0 -130 -112 -209 -242 -209s-240 78 -240 208z" />
    <glyph glyph-name="zero" unicode="0" horiz-adv-x="645" 
d="M63 350c0 166 55 360 259 360s260 -194 260 -360s-56 -360 -260 -360s-259 194 -259 360zM322 616c-136 0 -153 -154 -153 -266s17 -266 153 -266c137 0 154 154 154 266s-17 266 -154 266z" />
    <glyph glyph-name="four" unicode="4" horiz-adv-x="614" 
d="M371 155h-324v94l324 451h104v-451h87v-94h-87v-155h-104v155zM166 249h205v300z" />
    <glyph glyph-name="five" unicode="5" horiz-adv-x="602" 
d="M64 165l105 18c16 -58 67 -100 132 -100c77 0 136 59 136 140c0 79 -57 140 -135 140c-48 0 -94 -23 -120 -63l-95 28l25 372h381v-93h-294l-13 -195c34 28 82 43 130 43c126 0 224 -99 224 -232c0 -137 -107 -233 -241 -233c-115 0 -205 69 -235 175z" />
    <glyph glyph-name="six" unicode="6" horiz-adv-x="609" 
d="M58 233c0 75 28 147 77 219c53 78 143 200 189 263l105 -19l-183 -250c17 11 48 17 74 17c123 0 234 -97 234 -236c0 -142 -110 -237 -248 -237s-248 102 -248 243zM160 227c0 -83 67 -144 147 -144s144 62 144 145c0 82 -62 145 -143 145c-80 0 -148 -62 -148 -146z" />
    <glyph glyph-name="seven" unicode="7" horiz-adv-x="519" 
d="M39 700h435v-91l-255 -621l-100 17l248 601h-328v94z" />
    <glyph glyph-name="eight" unicode="8" horiz-adv-x="612" 
d="M305 -10c-140 0 -240 88 -240 208c0 79 43 143 117 177c-53 29 -89 81 -89 149c0 107 90 186 213 186s214 -79 214 -186c0 -68 -36 -120 -90 -149c75 -34 117 -98 117 -176c0 -121 -101 -209 -242 -209zM168 204c0 -68 57 -122 137 -122c79 0 139 54 139 122
c0 69 -60 122 -139 122c-80 0 -137 -53 -137 -122zM194 515c0 -57 48 -101 112 -101c65 0 112 44 112 101c0 58 -47 103 -112 103c-64 0 -112 -45 -112 -103z" />
    <glyph glyph-name="nine" unicode="9" horiz-adv-x="608" 
d="M55 475c0 141 109 236 247 236s249 -102 249 -243c0 -75 -29 -146 -78 -219c-53 -77 -143 -200 -188 -263l-105 19l182 251c-17 -11 -48 -18 -73 -18c-124 0 -234 97 -234 237zM301 618c-80 0 -144 -61 -144 -144s62 -145 143 -145c80 0 148 61 148 145s-67 144 -147 144
z" />
    <glyph glyph-name="twosuperior" unicode="&#xb2;" horiz-adv-x="288" 
d="M37 425v54l115 96c23 19 27 34 27 45c0 24 -20 32 -35 32c-16 0 -37 -10 -40 -35l-65 10c3 45 43 83 104 83c57 0 104 -33 104 -85c0 -38 -25 -66 -51 -87l-58 -48h109v-65h-210z" />
    <glyph glyph-name="ampersand" unicode="&#x26;" horiz-adv-x="705" 
d="M55 189c0 100 72 163 159 203c-46 45 -83 94 -83 156c0 98 90 162 180 162c89 0 178 -62 178 -162c0 -82 -62 -138 -136 -181l151 -161c30 47 29 123 29 178v12h94v-31c0 -80 -9 -162 -56 -228l83 -90l-70 -60l-74 82c-58 -53 -141 -79 -215 -79c-119 0 -240 69 -240 199
zM153 192c0 -79 76 -115 144 -115c50 0 111 18 149 58l-174 190c-65 -25 -119 -70 -119 -133zM310 624c-43 0 -86 -29 -86 -76c0 -48 41 -89 72 -121c47 25 100 67 100 120c0 51 -44 77 -86 77z" />
    <glyph glyph-name="fraction" unicode="&#x2044;" horiz-adv-x="596" 
d="M-1 0l519 713l79 -13l-518 -713z" />
    <glyph glyph-name="lessequal" unicode="&#x2264;" horiz-adv-x="598" 
d="M499 174l-410 179v78l410 179v-96l-295 -122l295 -122v-96zM98 29v88h411v-88h-411z" />
    <glyph glyph-name="greaterequal" unicode="&#x2265;" horiz-adv-x="591" 
d="M502 353l-410 -179v96l295 122l-295 122v96l410 -179v-78zM499 29h-410v88h410v-88z" />
    <glyph glyph-name="dotaccent" unicode="&#x2d9;" horiz-adv-x="291" 
d="M79 635c0 36 30 66 67 66c36 0 66 -30 66 -66c0 -37 -30 -66 -66 -66c-37 0 -67 29 -67 66z" />
    <glyph glyph-name="asciitilde" unicode="~" horiz-adv-x="672" 
d="M79 212c-2 111 64 171 146 171c108 0 149 -103 217 -103c38 0 61 33 60 84h91c2 -113 -64 -171 -147 -171c-109 0 -148 103 -218 103c-35 0 -59 -26 -58 -84h-91z" />
    <glyph glyph-name="Y.ss02" horiz-adv-x="563" 
d="M15 700h120l147 -322l140 322h120l-330 -700h-115l132 271z" />
    <glyph glyph-name="a.ss01" horiz-adv-x="628" 
d="M282 513c68 0 136 -29 175 -86v76h102v-503h-102v77c-38 -59 -109 -87 -176 -87c-148 0 -236 123 -236 262c0 140 89 261 237 261zM302 79c101 0 156 77 156 172c0 96 -56 172 -156 172c-101 0 -155 -76 -155 -172s54 -172 155 -172z" />
    <glyph glyph-name="M.ss01" horiz-adv-x="839" 
d="M25 0l109 700h118l168 -524l167 524h118l109 -700h-106l-76 549l-181 -549h-63l-181 549l-76 -549h-106z" />
    <glyph glyph-name="W.ss02" horiz-adv-x="857" 
d="M217 0h-134v700h106v-552l218 355h43l218 -355v552h106v-700h-135l-211 359z" />
    <glyph glyph-name="y.ss01" horiz-adv-x="530" 
d="M217 14l-198 489h107l141 -375l136 375h108l-218 -557c-38 -97 -86 -176 -199 -176c-25 0 -50 4 -74 10v94c20 -7 41 -11 61 -11c84 0 111 84 136 151z" />
    <glyph glyph-name="uni00A0" unicode="&#xa0;" horiz-adv-x="257" 
 />
    <glyph glyph-name="cent" unicode="&#xa2;" horiz-adv-x="602" 
d="M278 510v61h70v-61c93 -13 176 -77 195 -172l-97 -18c-14 51 -50 87 -98 98v-333c48 11 84 46 98 97l97 -17c-19 -96 -102 -160 -195 -173v-60h-70v60c-132 16 -219 122 -219 259c0 138 87 243 219 259zM161 251c0 -83 40 -151 117 -167v334c-77 -16 -117 -84 -117 -167z
" />
    <glyph glyph-name="yen" unicode="&#xa5;" horiz-adv-x="680" 
d="M47 700h120l173 -322l173 322h121l-201 -355h129v-79h-169v-88h169v-79h-169v-99h-106v99h-168v79h168v88h-168v79h128z" />
    <glyph glyph-name="dieresis" unicode="&#xa8;" horiz-adv-x="454" 
d="M59 677c0 35 29 63 64 63s64 -28 64 -63c0 -36 -29 -64 -64 -64s-64 28 -64 64zM331 740c35 0 64 -28 64 -63c0 -36 -29 -64 -64 -64s-64 28 -64 64c0 35 29 63 64 63z" />
    <glyph glyph-name="currency" unicode="&#xa4;" horiz-adv-x="668" 
d="M118 -32l-63 63l63 61c-29 43 -46 96 -46 156c0 59 17 112 47 155l-64 61l63 63l61 -65c43 30 95 47 154 47c60 0 113 -17 155 -47l62 65l63 -63l-65 -63c29 -42 45 -95 45 -153c0 -59 -16 -112 -45 -154l65 -63l-63 -63l-62 66c-43 -30 -95 -48 -155 -48
c-59 0 -112 17 -154 47zM175 248c0 -98 57 -172 157 -172c101 0 158 74 158 172c0 97 -57 171 -158 171c-100 0 -157 -74 -157 -171z" />
    <glyph glyph-name="sterling" unicode="&#xa3;" horiz-adv-x="619" 
d="M59 288v91h77c-3 42 -6 82 -6 122c0 129 70 237 225 237c106 0 203 -67 212 -180l-97 -18c-7 64 -49 105 -114 105c-94 0 -121 -78 -121 -157c0 -36 2 -71 5 -109h174v-91h-170c2 -32 4 -62 4 -94c0 -63 -20 -99 -24 -99h338v-95h-503v95c79 0 85 81 85 134
c0 21 -1 39 -2 59h-83z" />
    <glyph glyph-name="brokenbar" unicode="&#xa6;" horiz-adv-x="284" 
d="M89 183h106v-403h-106v403zM89 397v403h106v-403h-106z" />
    <glyph glyph-name="section" unicode="&#xa7;" horiz-adv-x="600" 
d="M47 -40l101 18c13 -70 72 -115 151 -115c64 0 133 33 133 98c0 157 -375 90 -373 317c0 64 36 110 82 136c-43 32 -67 76 -65 137c5 120 115 185 223 185c110 0 204 -63 232 -178l-100 -17c-19 64 -64 102 -131 102c-58 0 -120 -33 -120 -93c0 -142 373 -75 373 -319
c0 -63 -32 -106 -76 -130c36 -29 60 -69 60 -129c0 -134 -119 -202 -241 -202c-128 0 -222 71 -249 190zM160 283c0 -85 162 -111 230 -136c38 14 62 43 62 82c0 88 -120 105 -217 141c-42 -12 -75 -44 -75 -87z" />
    <glyph glyph-name="uni03BC" unicode="&#x3bc;" horiz-adv-x="580" 
d="M65 -220v723h101v-302c0 -65 33 -121 109 -121c84 0 135 69 135 164v259h101v-503h-101v80c-29 -46 -85 -90 -161 -90c-32 0 -60 10 -83 27v-237h-101z" />
    <glyph glyph-name="summation" unicode="&#x2211;" horiz-adv-x="683" 
d="M99 613v87h505v-87h-397l224 -337l-224 -349h397v-87h-505v87l229 349z" />
    <glyph glyph-name="product" unicode="&#x220f;" horiz-adv-x="667" 
d="M170 -160h-95v860h517v-860h-96v773h-326v-773z" />
    <glyph glyph-name="registered" unicode="&#xae;" horiz-adv-x="570" 
d="M49 470c0 132 102 240 236 240s236 -108 236 -240s-102 -240 -236 -240s-236 108 -236 240zM100 470c0 -103 76 -191 185 -191s185 88 185 191c0 104 -76 191 -185 191s-185 -87 -185 -191zM204 348v242h91c45 0 82 -33 82 -78c0 -34 -20 -61 -48 -73l55 -91h-56l-46 84
h-30v-84h-48zM252 545v-69h36c22 0 39 14 39 35c0 20 -17 34 -39 34h-36z" />
    <glyph glyph-name="ordfeminine" unicode="&#xaa;" horiz-adv-x="411" 
d="M165 347c-68 0 -116 44 -116 107c0 110 151 118 227 121v13c0 32 -29 55 -67 55c-34 0 -67 -17 -72 -54l-77 12c13 66 77 109 150 109c81 0 147 -53 147 -127v-229h-81v53c-19 -32 -56 -60 -111 -60zM276 516c-20 0 -146 0 -146 -64c0 -26 22 -43 54 -43
c58 0 92 52 92 90v17z" />
    <glyph glyph-name="paragraph" unicode="&#xb6;" horiz-adv-x="602" 
d="M67 478c0 127 97 222 224 222h106v-780h-90v336h-16c-127 0 -224 95 -224 222zM528 -80h-91v780h91v-780z" />
    <glyph glyph-name="Euro" unicode="&#x20ac;" horiz-adv-x="631" 
d="M47 386v81h68c24 128 93 243 250 243c115 0 189 -62 227 -161l-103 -19c-23 55 -64 86 -124 86c-93 0 -130 -70 -145 -149h227v-81h-235c-1 -12 -1 -24 -1 -36s0 -25 1 -37h235v-81h-226c14 -79 52 -148 144 -148c61 0 101 30 124 86l104 -18
c-39 -100 -113 -162 -228 -162c-156 0 -226 114 -249 242h-69v81h59c-1 12 -1 25 -1 37s0 24 1 36h-59z" />
    <glyph glyph-name="uni0394" unicode="&#x394;" horiz-adv-x="666" 
d="M55 0l225 700h106l225 -700h-556zM173 85h320l-160 508z" />
    <glyph glyph-name="radical" unicode="&#x221a;" horiz-adv-x="620" 
d="M41 365v82h159l121 -324l171 592l85 -15l-207 -700h-92l-137 365h-100z" />
    <glyph glyph-name="logicalnot" unicode="&#xac;" horiz-adv-x="523" 
d="M35 296v89h448v-228h-101v139h-347z" />
    <glyph glyph-name="macron" unicode="&#xaf;" horiz-adv-x="475" 
d="M75 628v85h325v-85h-325z" />
    <glyph glyph-name="degree" unicode="&#xb0;" horiz-adv-x="332" 
d="M37 590c0 71 56 123 127 123s127 -52 127 -123s-56 -123 -127 -123s-127 52 -127 123zM109 590c0 -31 24 -55 55 -55c30 0 55 24 55 55s-25 55 -55 55c-31 0 -55 -24 -55 -55z" />
    <glyph glyph-name="threesuperior" unicode="&#xb3;" horiz-adv-x="292" 
d="M37 499l67 12c0 -25 21 -38 41 -38c23 0 38 15 38 34s-16 35 -41 35h-32v54h31c20 0 32 15 32 30s-12 26 -29 26c-16 0 -30 -10 -32 -31l-65 11c0 45 43 78 97 78s98 -33 98 -79c0 -31 -20 -52 -41 -60c33 -14 50 -40 50 -71c0 -51 -45 -85 -107 -85s-107 34 -107 84z
" />
    <glyph glyph-name="onesuperior" unicode="&#xb9;" horiz-adv-x="198" 
d="M41 641v59h113v-275h-68v216h-45z" />
    <glyph glyph-name="onehalf" unicode="&#xbd;" horiz-adv-x="751" 
d="M131 -13l-80 13l519 713l80 -13zM704 0h-226v56l126 111c24 22 28 38 28 49c0 28 -22 37 -38 37c-18 0 -40 -10 -44 -38l-70 11c4 48 47 89 113 89c61 0 111 -36 111 -92c0 -41 -27 -73 -54 -98l-63 -55h117v-70zM53 700h122v-305h-73v241h-49v64z" />
    <glyph glyph-name="threequarters" unicode="&#xbe;" horiz-adv-x="790" 
d="M195 -13l-79 13l518 713l80 -13zM47 479l72 12c0 -28 22 -42 45 -42c25 0 41 17 41 37c0 21 -17 41 -44 41h-35v58h34c22 0 35 17 35 33c0 17 -13 30 -32 30c-18 0 -34 -11 -36 -33l-69 11c0 49 46 84 104 84c59 0 106 -35 106 -86c0 -34 -21 -57 -44 -66
c37 -15 54 -46 54 -78c0 -55 -48 -93 -115 -93c-68 0 -116 38 -116 92zM492 117l142 188h70v-188h38v-62h-38v-55h-71v55h-141v62zM633 212l-63 -95h63v95z" />
    <glyph glyph-name="periodcentered" unicode="&#xb7;" horiz-adv-x="290" 
d="M75 344c0 39 32 71 70 71c39 0 71 -32 71 -71s-32 -71 -71 -71c-38 0 -70 32 -70 71z" />
    <glyph glyph-name="integral" unicode="&#x222b;" horiz-adv-x="452" 
d="M37 -137c22 -3 42 -4 59 -2c58 6 75 40 75 116v539c0 146 73 202 208 199c9 -1 27 -2 27 -2v-91c-22 3 -42 4 -59 2c-58 -6 -75 -40 -75 -116v-538c0 -146 -73 -203 -209 -199c-8 0 -26 1 -26 1v91z" />
    <glyph glyph-name="tilde" unicode="&#x2dc;" horiz-adv-x="469" 
d="M79 534c-1 63 36 112 92 112c59 0 83 -57 123 -57c22 0 34 18 34 46h62c1 -63 -39 -112 -95 -112c-60 0 -82 57 -121 57c-19 0 -33 -14 -33 -46h-62z" />
    <glyph glyph-name="dagger" unicode="&#x2020;" horiz-adv-x="520" 
d="M67 406v97h140v197h106v-197h140v-97h-140v-406h-106v406h-140z" />
    <glyph glyph-name="daggerdbl" unicode="&#x2021;" horiz-adv-x="587" 
d="M67 409v94h175v197h103v-197h175v-95l-175 1v-315h175v-94h-175v-197h-103v197h-175v94h175v315h-175z" />
    <glyph glyph-name="florin" unicode="&#x192;" horiz-adv-x="394" 
d="M7 -228v91c20 -3 38 -4 55 -2c61 5 79 38 79 116v441h-92v85h92v12c0 149 72 199 208 199c9 0 18 -1 27 -2v-91c-20 3 -39 4 -55 3c-62 -5 -79 -39 -79 -117v-4h126v-85h-126v-448c0 -120 -48 -183 -152 -196c-17 -3 -36 -4 -57 -3c-8 0 -17 1 -26 1z" />
    <glyph glyph-name="trademark" unicode="&#x2122;" horiz-adv-x="870" 
d="M466 295h-73v405h100l104 -280l105 280h101v-405h-73v300l-118 -300h-30l-116 300v-300zM23 633v67h302v-67h-114v-338h-75v338h-113z" />
    <glyph glyph-name="uni03A9" unicode="&#x3a9;" horiz-adv-x="787" 
d="M57 358c0 193 134 352 336 352c203 0 337 -159 337 -352c0 -121 -74 -236 -140 -271h140v-87h-267v87c96 30 174 101 174 265c0 146 -91 271 -244 271c-152 0 -243 -125 -243 -271c0 -164 89 -235 173 -265v-87h-256v87h129c-65 35 -139 150 -139 271z" />
    <glyph glyph-name="partialdiff" unicode="&#x2202;" horiz-adv-x="601" 
d="M57 246c0 146 103 254 236 254c92 0 147 -53 166 -82c-18 140 -103 208 -195 208c-24 0 -82 -5 -120 -30l-15 84s52 30 134 30c91 0 289 -38 289 -392v-36c0 -184 -103 -292 -245 -292c-141 0 -250 106 -250 256zM148 249c0 -98 68 -175 159 -175c87 0 154 71 154 170
c0 103 -73 172 -160 172s-153 -70 -153 -167z" />
    <glyph glyph-name="divide" unicode="&#xf7;" horiz-adv-x="598" 
d="M510 248h-421v94h421v-94zM299 46c-36 0 -65 30 -65 66s29 65 65 65s65 -29 65 -65s-29 -66 -65 -66zM299 409c-36 0 -65 30 -65 66s29 65 65 65s65 -29 65 -65s-29 -66 -65 -66z" />
    <glyph glyph-name="guillemotleft" unicode="&#xab;" horiz-adv-x="559" 
d="M196 58l-155 219l155 219h101l-144 -219l144 -219h-101zM256 277l155 219h101l-143 -219l143 -219h-101z" />
    <glyph glyph-name="guillemotright" unicode="&#xbb;" horiz-adv-x="559" 
d="M262 496h101l155 -219l-155 -219h-101l144 219zM190 277l-143 219h100l156 -219l-156 -219h-100z" />
    <glyph glyph-name="onequarter" unicode="&#xbc;" horiz-adv-x="735" 
d="M51 0l519 713l80 -13l-519 -713zM438 117l142 188h70v-188h39v-62h-39v-55h-71v55h-141v62zM53 636v64h122v-305h-73v241h-49zM579 212l-63 -95h63v95z" />
    <glyph glyph-name="cedilla" unicode="&#xb8;" horiz-adv-x="375" 
d="M99 -220l9 51c13 -4 31 -6 45 -6c19 0 47 8 47 33c0 35 -57 39 -83 39l29 103h73l-21 -60c46 -8 78 -35 78 -85c0 -64 -58 -85 -112 -85c-22 0 -45 3 -65 10z" />
    <glyph glyph-name="ordmasculine" unicode="&#xba;" horiz-adv-x="419" 
d="M49 524c0 86 34 186 157 186c124 0 158 -100 158 -186c0 -87 -34 -187 -158 -187c-123 0 -157 100 -157 187zM206 641c-73 0 -81 -68 -81 -117s8 -118 81 -118s82 69 82 118s-9 117 -82 117z" />
    <glyph glyph-name="questiondown" unicode="&#xbf;" horiz-adv-x="522" 
d="M53 -25c0 157 180 167 183 263c0 11 1 45 1 52h101v-51c3 -149 -180 -151 -180 -264c0 -64 56 -93 110 -93s101 29 114 86l100 -18c-20 -102 -113 -159 -215 -159c-110 0 -214 67 -214 184zM216 434c0 39 32 71 70 71c39 0 71 -32 71 -71c0 -38 -32 -70 -71 -70
c-38 0 -70 32 -70 70z" />
    <glyph glyph-name="multiply" unicode="&#xd7;" horiz-adv-x="555" 
d="M147 95l-68 68l130 130l-130 130l68 69l130 -130l131 130l68 -69l-130 -130l130 -130l-68 -68l-131 130z" />
    <glyph glyph-name="plusminus" unicode="&#xb1;" horiz-adv-x="622" 
d="M261 323h-172v94h172v130h100v-130h172v-94h-172v-120h-100v120zM89 67v94h444v-94h-444z" />
    <glyph glyph-name="AE" unicode="&#xc6;" horiz-adv-x="822" 
d="M137 0h-114l237 700h504v-94h-307v-209h290v-91h-290v-212h307v-94h-413v154h-165zM329 606l-117 -358h139v358h-22z" />
    <glyph glyph-name="ae" unicode="&#xe6;" horiz-adv-x="905" 
d="M220 -10c-98 0 -173 61 -173 152c0 160 234 168 337 168c0 74 -33 116 -113 116c-56 0 -106 -34 -113 -87l-95 17c17 94 109 157 211 157c72 0 152 -42 173 -99c38 64 113 100 186 98c144 -3 224 -117 227 -251c1 -10 1 -17 -1 -30h-378c2 -89 66 -153 146 -153
c53 0 102 26 127 78l95 -17c-41 -95 -120 -149 -219 -149c-93 0 -169 50 -198 126c-38 -82 -116 -126 -212 -126zM384 232c-31 0 -237 9 -237 -90c0 -54 55 -69 99 -68c80 1 138 68 138 142v16zM487 310h272c-7 62 -63 116 -135 116c-70 0 -126 -52 -137 -116z" />
    <glyph glyph-name="OE" unicode="&#x152;" horiz-adv-x="1107" 
d="M375 -10c-187 0 -324 159 -324 359s137 361 327 361c109 0 196 -49 250 -126v116h421v-94h-315v-209h297v-91h-297v-212h315v-94h-421v116c-50 -74 -141 -126 -253 -126zM157 350c0 -142 92 -266 235 -266c144 0 236 124 236 266s-92 266 -236 266
c-143 0 -235 -124 -235 -266z" />
    <glyph glyph-name="oe" unicode="&#x153;" horiz-adv-x="1002" 
d="M304 -10c-154 0 -259 110 -259 261c0 152 105 262 259 262c90 0 170 -49 207 -116c35 67 115 116 202 116c152 0 244 -121 244 -269c0 -8 0 -16 -2 -24h-397c8 -85 75 -142 156 -142c57 0 110 26 136 78l95 -17c-41 -96 -124 -149 -229 -149c-88 0 -172 45 -206 114
c-38 -70 -117 -114 -206 -114zM148 251c0 -97 58 -172 158 -172s158 75 158 172c0 98 -58 172 -158 172c-101 0 -158 -74 -158 -172zM710 426c-75 0 -138 -52 -149 -127h294c-7 74 -73 127 -145 127z" />
    <glyph glyph-name="hungarumlaut" unicode="&#x2dd;" horiz-adv-x="518" 
d="M266 575l68 125h105l-93 -125h-80zM79 575l67 125h105l-92 -125h-80z" />
    <glyph glyph-name="lozenge" unicode="&#x25ca;" horiz-adv-x="597" 
d="M63 356l213 344h45l213 -344l-213 -356h-45zM440 356l-142 239l-141 -239l141 -250z" />
    <glyph glyph-name="infinity" unicode="&#x221e;" horiz-adv-x="882" 
d="M231 67c-84 0 -190 61 -190 187s106 187 190 187c63 0 138 -28 210 -123c72 95 147 123 210 123c84 0 190 -61 190 -187s-106 -187 -190 -187c-63 0 -138 28 -210 123c-72 -95 -147 -123 -210 -123zM235 364c-62 0 -109 -56 -109 -110s47 -110 109 -110
c61 0 102 39 160 110c-58 71 -99 110 -160 110zM647 364c-62 0 -102 -39 -160 -110c58 -71 98 -110 160 -110s109 56 109 110s-47 110 -109 110z" />
    <glyph glyph-name="approxequal" unicode="&#x2248;" horiz-adv-x="692" 
d="M89 104c-2 111 64 171 146 171c108 0 149 -103 217 -103c38 0 61 33 60 84h91c2 -113 -64 -171 -147 -171c-109 0 -148 103 -218 103c-35 0 -59 -26 -58 -84h-91zM89 324c-2 111 64 171 146 171c108 0 149 -104 217 -104c38 0 61 34 60 85h91c2 -113 -64 -172 -147 -172
c-109 0 -148 104 -217 104c-36 0 -60 -27 -59 -84h-91z" />
    <glyph glyph-name="notequal" unicode="&#x2260;" horiz-adv-x="626" 
d="M89 233h138l63 121h-201v96h249l54 107l92 -17l-47 -90h100v-96h-147l-63 -121h210v-96h-258l-45 -90l-92 16l38 74h-91v96z" />
    <glyph glyph-name="Lslash" unicode="&#x141;" horiz-adv-x="576" 
d="M55 358l86 38v304h106v-258l164 73v-97l-164 -73v-251h317v-94h-423v299l-86 -38v97z" />
    <glyph glyph-name="lslash" unicode="&#x142;" horiz-adv-x="426" 
d="M35 358l124 56v306h102v-262l130 57v-97l-130 -58v-360h-102v316l-124 -55v97z" />
    <glyph glyph-name="Oslash" unicode="&#xd8;" horiz-adv-x="798" 
d="M51 350c0 197 145 360 348 360c21 0 41 -2 60 -5l17 57l97 -17l-22 -69c119 -58 196 -182 196 -326c0 -198 -146 -360 -348 -360c-20 0 -40 2 -59 5l-18 -59l-96 17l22 71c-120 57 -197 182 -197 326zM430 613c-174 24 -275 -123 -273 -272c2 -88 40 -173 120 -221z
M368 87c174 -24 275 124 273 272c-2 87 -40 173 -120 220z" />
    <glyph glyph-name="Thorn" unicode="&#xde;" horiz-adv-x="552" 
d="M165 0h-96v700h96v-139h118c127 0 224 -90 224 -211c0 -120 -97 -211 -224 -211h-118v-139zM275 475h-110v-250h110c77 0 134 55 134 126s-57 124 -134 124z" />
    <glyph glyph-name="germandbls" unicode="&#xdf;" horiz-adv-x="593" 
d="M83 0v524c0 115 97 186 210 186s214 -69 214 -185c0 -64 -36 -120 -91 -150c72 -27 120 -96 120 -176c0 -132 -114 -199 -237 -199h-55v84h49c73 0 147 38 147 118c0 79 -74 124 -145 124h-41v85h42c60 0 115 40 115 107s-58 108 -119 108c-66 0 -113 -45 -113 -118v-508
h-96z" />
    <glyph glyph-name="oslash" unicode="&#xf8;" horiz-adv-x="614" 
d="M45 246c0 147 106 268 257 268c22 0 44 -3 65 -7l25 60l80 -15l-29 -73c81 -45 126 -130 126 -223c0 -147 -105 -267 -256 -267c-22 0 -45 3 -67 7l-25 -60l-80 15l30 73c-82 46 -126 130 -126 222zM280 82c13 -2 25 -3 37 -2c92 3 146 80 148 167c0 11 0 22 -2 32
c-5 42 -24 83 -57 110zM149 256c0 -11 0 -22 2 -32c5 -42 24 -82 56 -109l125 306c-12 2 -24 2 -36 2c-91 -4 -146 -80 -147 -167z" />
    <glyph glyph-name="dotlessi" unicode="&#x131;" horiz-adv-x="235" 
d="M168 0h-101v503h101v-503z" />
    <glyph glyph-name="thorn" unicode="&#xfe;" horiz-adv-x="628" 
d="M69 720h101v-293c37 53 102 86 176 86c142 0 237 -114 237 -261c0 -146 -94 -262 -236 -262c-73 0 -141 32 -177 87v-297h-101v940zM326 423c-100 0 -157 -75 -157 -172c0 -96 57 -172 157 -172c94 0 155 69 155 172s-60 172 -155 172z" />
    <glyph glyph-name="eth" unicode="&#xf0;" horiz-adv-x="600" 
d="M284 -10c-132 0 -239 90 -239 233c0 136 93 247 228 247c85 0 138 -43 167 -80c-6 79 -34 135 -73 178l-100 -67l-21 67l62 42c-37 19 -79 28 -122 28l11 72c47 0 118 -15 177 -55l92 64l24 -71l-61 -39c62 -64 102 -157 102 -291v-36c0 -184 -101 -292 -247 -292z
M287 389c-90 0 -149 -74 -149 -163c0 -93 66 -154 149 -154c86 0 150 65 150 158c0 95 -69 159 -150 159z" />
    <glyph glyph-name="Eth" unicode="&#xd0;" horiz-adv-x="793" 
d="M154 356h-91v94h91v250h240c207 0 348 -144 348 -350c0 -200 -148 -350 -348 -350h-240v356zM409 356h-149v-262h137c137 0 238 111 238 256c0 152 -93 256 -238 256h-137v-156h149v-94z" />
    <glyph glyph-name="zcaron" unicode="&#x17e;" horiz-adv-x="490" 
d="M35 0v76l278 335h-268v92h401v-76l-278 -335h288v-92h-421zM86 723h73l91 -85l90 85h73l-123 -145h-81z" />
    <glyph glyph-name="Zcaron" unicode="&#x17d;" horiz-adv-x="595" 
d="M560 0h-523v83l386 523h-376v94h503v-83l-386 -523h396v-94zM152 924h73l90 -85l91 85h73l-123 -145h-82z" />
    <glyph glyph-name="scaron" unicode="&#x161;" horiz-adv-x="490" 
d="M252 -10c-94 0 -194 46 -210 148l98 17c12 -53 56 -79 108 -79c39 0 98 15 98 63c0 46 -56 60 -120 76c-81 21 -174 45 -174 143c0 100 95 155 185 155c84 0 176 -49 195 -137l-97 -17c-11 44 -53 68 -96 68c-37 0 -88 -18 -88 -63c0 -41 52 -55 113 -69
c83 -21 183 -45 183 -151c0 -108 -101 -154 -195 -154zM194 588l-122 146h73l90 -85l91 85h73l-124 -146h-81z" />
    <glyph glyph-name="Scaron" unicode="&#x160;" horiz-adv-x="608" 
d="M308 -10c-127 0 -229 69 -257 190l101 18c14 -71 81 -115 159 -115c71 0 140 37 140 107c0 65 -58 91 -128 114c-113 36 -258 60 -258 205c0 130 114 201 230 201c108 0 212 -61 240 -178l-100 -17c-20 67 -73 102 -139 102c-69 0 -127 -40 -127 -101s59 -86 131 -108
c112 -34 255 -61 255 -210c0 -134 -116 -208 -247 -208zM127 930h73l90 -85l91 85h73l-123 -145h-82z" />
    <glyph glyph-name="Ccedilla" unicode="&#xc7;" horiz-adv-x="743" 
d="M361 -8c-187 17 -310 168 -310 358c0 202 138 360 345 360c143 0 257 -79 304 -214l-104 -19c-35 87 -102 139 -198 139c-152 0 -241 -122 -241 -266s89 -266 241 -266c96 0 163 52 198 139l104 -18c-43 -124 -141 -201 -267 -213l-18 -52c46 -8 78 -35 78 -85
c0 -64 -57 -85 -112 -85c-21 0 -45 3 -65 10l9 51c14 -4 32 -6 45 -6c19 0 47 8 47 33c0 35 -57 39 -83 39z" />
    <glyph glyph-name="less.case" horiz-adv-x="578" 
d="M489 104l-410 195v89l410 195v-108l-298 -131l298 -132v-108z" />
    <glyph glyph-name="greater.case" horiz-adv-x="578" 
d="M89 212l298 132l-298 131v108l410 -195v-89l-410 -195v108z" />
    <glyph glyph-name="equal.case" horiz-adv-x="628" 
d="M540 404h-451v96h451v-96zM89 187v96h451v-96h-451z" />
    <glyph glyph-name="hyphen.case" horiz-adv-x="464" 
d="M405 298h-346v94h346v-94z" />
    <glyph glyph-name="bracketleft.case" horiz-adv-x="364" 
d="M315 -168h-246v1044h246v-96h-140v-852h140v-96z" />
    <glyph glyph-name="backslash.case" horiz-adv-x="381" 
d="M113 813l251 -877l-96 -17l-251 877z" />
    <glyph glyph-name="bracketright.case" horiz-adv-x="364" 
d="M49 -72h140v852h-140v96h246v-1044h-246v96z" />
    <glyph glyph-name="braceleft.case" horiz-adv-x="454" 
d="M49 398c77 0 114 38 114 120v178c0 138 73 180 190 180c20 0 52 -4 52 -4v-93s-13 1 -22 1c-77 0 -114 -13 -114 -94v-166c0 -77 -32 -135 -77 -163c46 -32 77 -89 77 -165v-168c0 -82 37 -96 114 -96c9 0 22 1 22 1v-93s-32 -3 -52 -3c-117 0 -190 41 -190 182v180
c0 82 -37 120 -114 120v83z" />
    <glyph glyph-name="braceright.case" horiz-adv-x="454" 
d="M71 -72c77 0 114 14 114 96v168c0 76 31 133 77 165c-45 28 -77 86 -77 163v166c0 81 -37 94 -114 94c-9 0 -22 -1 -22 -1v93s31 4 52 4c117 0 190 -42 190 -180v-178c0 -82 37 -120 114 -120v-83c-77 0 -114 -38 -114 -120v-180c0 -141 -73 -182 -190 -182
c-21 0 -52 3 -52 3v93s13 -1 22 -1z" />
    <glyph glyph-name="bar.case" horiz-adv-x="284" 
d="M195 -160h-106v1020h106v-1020z" />
    <glyph glyph-name="multiply.case" horiz-adv-x="555" 
d="M147 145l-68 68l130 130l-130 130l68 69l130 -130l131 130l68 -69l-130 -130l130 -130l-68 -68l-131 130z" />
    <glyph glyph-name="minus.case" horiz-adv-x="588" 
d="M499 298h-410v94h410v-94z" />
    <glyph glyph-name="divide.case" horiz-adv-x="598" 
d="M510 298h-421v94h421v-94zM299 96c-36 0 -65 30 -65 66s29 65 65 65s65 -29 65 -65s-29 -66 -65 -66zM299 459c-36 0 -65 30 -65 66s29 65 65 65s65 -29 65 -65s-29 -66 -65 -66z" />
    <glyph glyph-name="parenleft.case" horiz-adv-x="351" 
d="M69 350c0 201 52 404 131 505h102c-64 -98 -124 -294 -124 -505c0 -212 60 -411 124 -510h-102c-79 101 -131 308 -131 510z" />
    <glyph glyph-name="parenright.case" horiz-adv-x="351" 
d="M62 855h102c79 -101 131 -304 131 -505c0 -202 -52 -409 -131 -510h-102c64 99 124 298 124 510c0 211 -60 407 -124 505z" />
    <glyph glyph-name="slash.case" horiz-adv-x="385" 
d="M19 -67l251 878l96 -17l-251 -877z" />
    <glyph glyph-name="zero.tnum" 
d="M62 350c0 166 56 360 260 360c203 0 259 -194 259 -360s-56 -360 -259 -360c-204 0 -260 194 -260 360zM322 616c-137 0 -154 -154 -154 -266s17 -266 154 -266c136 0 153 154 153 266s-17 266 -153 266z" />
    <glyph glyph-name="one.tnum" 
d="M179 606v94h219v-700h-103v606h-116z" />
    <glyph glyph-name="two.tnum" 
d="M87 95l280 247c50 45 85 89 85 153c0 74 -54 122 -126 122c-75 0 -131 -47 -138 -124l-97 17c8 111 101 200 233 200c126 0 231 -84 231 -213c0 -96 -57 -165 -120 -222l-206 -182h327v-93h-469v95z" />
    <glyph glyph-name="three.tnum" 
d="M78 198l97 17c0 -84 66 -133 142 -133c72 0 140 46 140 122s-69 122 -139 122h-62v88h63c59 0 112 39 112 102s-54 102 -114 102c-65 0 -111 -43 -112 -112l-97 17c0 114 96 187 211 187c114 0 213 -72 213 -187c0 -67 -38 -122 -92 -149c74 -29 120 -96 120 -175
c0 -130 -112 -209 -242 -209s-240 78 -240 208z" />
    <glyph glyph-name="four.tnum" 
d="M59 249l324 451h104v-451h88v-94h-88v-155h-104v155h-324v94zM179 249h204v300z" />
    <glyph glyph-name="five.tnum" 
d="M85 165l106 18c16 -58 66 -100 131 -100c77 0 136 59 136 140c0 79 -57 140 -135 140c-48 0 -94 -23 -120 -63l-95 28l25 372h382v-93h-295l-13 -195c35 28 82 43 130 43c126 0 225 -99 225 -232c0 -137 -107 -233 -242 -233c-115 0 -205 69 -235 175z" />
    <glyph glyph-name="six.tnum" 
d="M73 233c0 75 29 147 78 219c53 78 143 200 189 263l104 -19l-182 -250c17 11 48 17 73 17c124 0 234 -97 234 -236c0 -142 -109 -237 -247 -237s-249 102 -249 243zM176 227c0 -83 67 -144 147 -144s144 62 144 145c0 82 -62 145 -143 145c-80 0 -148 -62 -148 -146z" />
    <glyph glyph-name="seven.tnum" 
d="M101 700h435v-91l-255 -621l-100 17l249 601h-329v94z" />
    <glyph glyph-name="eight.tnum" 
d="M321 -10c-141 0 -241 88 -241 208c0 79 43 143 117 177c-53 29 -89 81 -89 149c0 107 91 186 213 186c123 0 214 -79 214 -186c0 -68 -36 -120 -89 -149c74 -34 117 -98 117 -176c0 -121 -102 -209 -242 -209zM184 204c0 -68 56 -122 136 -122s139 54 139 122
c0 69 -59 122 -139 122s-136 -53 -136 -122zM210 515c0 -57 47 -101 112 -101c64 0 111 44 111 101c0 58 -47 103 -111 103c-65 0 -112 -45 -112 -103z" />
    <glyph glyph-name="nine.tnum" 
d="M73 475c0 141 110 236 248 236s248 -102 248 -243c0 -75 -28 -146 -77 -219c-53 -77 -143 -200 -189 -263l-105 19l183 251c-17 -11 -48 -18 -74 -18c-123 0 -234 97 -234 237zM320 618c-80 0 -144 -61 -144 -144s62 -145 143 -145c80 0 148 61 148 145s-67 144 -147 144
z" />
    <glyph glyph-name="plusminus.case" horiz-adv-x="622" 
d="M261 370h-172v95h172v130h100v-130h172v-95h-172v-120h-100v120zM89 114v95h444v-95h-444z" />
    <glyph glyph-name="endash.case" horiz-adv-x="500" 
d="M501 298h-502v94h502v-94z" />
    <glyph glyph-name="emdash.case" horiz-adv-x="998" 
d="M999 298h-1000v93h1000v-93z" />
    <glyph glyph-name="infinity.case" horiz-adv-x="882" 
d="M231 117c-84 0 -190 61 -190 187s106 187 190 187c63 0 138 -28 210 -123c72 95 147 123 210 123c84 0 190 -61 190 -187s-106 -187 -190 -187c-63 0 -138 28 -210 123c-72 -95 -147 -123 -210 -123zM235 414c-62 0 -109 -56 -109 -110s47 -110 109 -110
c61 0 102 39 160 110c-58 71 -99 110 -160 110zM647 414c-62 0 -102 -39 -160 -110c58 -71 98 -110 160 -110s109 56 109 110s-47 110 -109 110z" />
    <glyph glyph-name="approxequal.case" horiz-adv-x="692" 
d="M89 154c-2 111 64 171 146 171c108 0 149 -103 217 -103c38 0 61 33 60 84h91c2 -113 -64 -171 -147 -171c-109 0 -148 103 -218 103c-35 0 -59 -26 -58 -84h-91zM89 374c-2 111 64 171 146 171c108 0 149 -104 217 -104c38 0 61 34 60 85h91c2 -113 -64 -172 -147 -172
c-109 0 -148 104 -217 104c-36 0 -60 -27 -59 -84h-91z" />
    <glyph glyph-name="notequal.case" horiz-adv-x="626" 
d="M89 283h138l63 121h-201v96h249l54 107l92 -17l-47 -90h100v-96h-147l-63 -121h210v-96h-258l-45 -90l-92 16l38 74h-91v96z" />
    <glyph glyph-name="lessequal.case" horiz-adv-x="598" 
d="M499 224l-410 179v78l410 179v-96l-295 -122l295 -122v-96zM98 79v88h411v-88h-411z" />
    <glyph glyph-name="greaterequal.case" horiz-adv-x="591" 
d="M502 403l-410 -179v96l295 122l-295 122v96l410 -179v-78zM499 79h-410v88h410v-88z" />
    <glyph glyph-name="guilsinglleft.case" horiz-adv-x="363" 
d="M209 554h107l-164 -215l164 -215h-107l-168 215z" />
    <glyph glyph-name="guilsinglright.case" horiz-adv-x="363" 
d="M47 554h107l168 -215l-168 -215h-107l164 215z" />
    <glyph glyph-name="guillemotleft.case" horiz-adv-x="559" 
d="M196 118l-155 219l155 219h101l-144 -219l144 -219h-101zM256 337l155 219h101l-143 -219l143 -219h-101z" />
    <glyph glyph-name="guillemotright.case" horiz-adv-x="559" 
d="M262 556h101l155 -219l-155 -219h-101l144 219zM190 337l-143 219h100l156 -219l-156 -219h-100z" />
    <glyph glyph-name="uni00AD" unicode="&#xad;" horiz-adv-x="0" 
 />
    <glyph glyph-name="Agrave" unicode="&#xc0;" horiz-adv-x="666" 
d="M137 0h-114l254 700h113l254 -700h-115l-52 154h-287zM333 584l-115 -336h230zM203 900h102l68 -125h-78z" />
    <glyph glyph-name="Aacute" unicode="&#xc1;" horiz-adv-x="666" 
d="M137 0h-114l254 700h113l254 -700h-115l-52 154h-287zM333 584l-115 -336h230zM292 775l67 125h106l-93 -125h-80z" />
    <glyph glyph-name="Acircumflex" unicode="&#xc2;" horiz-adv-x="666" 
d="M137 0h-114l254 700h113l254 -700h-115l-52 154h-287zM218 248h230l-115 336zM172 765l122 145h82l123 -145h-73l-91 85l-90 -85h-73z" />
    <glyph glyph-name="Atilde" unicode="&#xc3;" horiz-adv-x="666" 
d="M137 0h-114l254 700h113l254 -700h-115l-52 154h-287zM218 248h230l-115 336zM177 806c-1 63 36 112 92 112c59 0 83 -57 123 -57c22 0 34 18 34 46h62c1 -63 -39 -112 -94 -112c-61 0 -83 57 -122 57c-19 0 -33 -14 -33 -46h-62z" />
    <glyph glyph-name="Adieresis" unicode="&#xc4;" horiz-adv-x="666" 
d="M137 0h-114l254 700h113l254 -700h-115l-52 154h-287zM333 584l-115 -336h230zM229 772c-35 0 -64 29 -64 64s29 63 64 63s64 -28 64 -63s-29 -64 -64 -64zM437 772c-35 0 -64 29 -64 64s29 63 64 63s64 -28 64 -63s-29 -64 -64 -64z" />
    <glyph glyph-name="Igrave" unicode="&#xcc;" horiz-adv-x="272" 
d="M189 0h-106v700h106v-700zM108 885l67 -125h-77l-93 125h103z" />
    <glyph glyph-name="Iacute" unicode="&#xcd;" horiz-adv-x="272" 
d="M189 0h-106v700h106v-700zM162 885h105l-92 -125h-80z" />
    <glyph glyph-name="Icircumflex" unicode="&#xce;" horiz-adv-x="272" 
d="M83 700h106v-700h-106v700zM48 750h-74l123 145h81l124 -145h-73l-91 85z" />
    <glyph glyph-name="Idieresis" unicode="&#xcf;" horiz-adv-x="272" 
d="M83 0v700h106v-700h-106zM-32 821c0 35 29 63 64 63s64 -28 64 -63s-29 -63 -64 -63s-64 28 -64 63zM176 821c0 35 29 63 64 63s64 -28 64 -63s-29 -63 -64 -63s-64 28 -64 63z" />
    <glyph glyph-name="Ntilde" unicode="&#xd1;" horiz-adv-x="724" 
d="M83 0v700h108l344 -527v527h106v-700h-109l-343 527v-527h-106zM197 806c-1 63 36 112 92 112c59 0 83 -57 123 -57c22 0 34 18 34 46h62c1 -63 -39 -112 -95 -112c-60 0 -82 57 -121 57c-19 0 -33 -14 -33 -46h-62z" />
    <glyph glyph-name="Ograve" unicode="&#xd2;" horiz-adv-x="798" 
d="M51 350c0 198 147 360 348 360s348 -162 348 -360s-147 -360 -348 -360s-348 162 -348 360zM399 616c-147 0 -242 -124 -242 -266s95 -266 242 -266s242 124 242 266s-95 266 -242 266zM360 785l-92 125h102l68 -125h-78z" />
    <glyph glyph-name="Oacute" unicode="&#xd3;" horiz-adv-x="798" 
d="M51 350c0 198 147 360 348 360s348 -162 348 -360s-147 -360 -348 -360s-348 162 -348 360zM399 616c-147 0 -242 -124 -242 -266s95 -266 242 -266s242 124 242 266s-95 266 -242 266zM357 785l67 125h106l-93 -125h-80z" />
    <glyph glyph-name="Ocircumflex" unicode="&#xd4;" horiz-adv-x="798" 
d="M51 350c0 198 147 360 348 360s348 -162 348 -360s-147 -360 -348 -360s-348 162 -348 360zM399 616c-147 0 -242 -124 -242 -266s95 -266 242 -266s242 124 242 266s-95 266 -242 266zM310 775h-73l122 145h82l123 -145h-73l-91 85z" />
    <glyph glyph-name="Otilde" unicode="&#xd5;" horiz-adv-x="798" 
d="M51 350c0 198 147 360 348 360s348 -162 348 -360s-147 -360 -348 -360s-348 162 -348 360zM157 350c0 -142 95 -266 242 -266s242 124 242 266s-95 266 -242 266s-242 -124 -242 -266zM242 816c-1 63 37 112 92 112c59 0 83 -57 123 -57c22 0 34 18 34 46h62
c1 -63 -39 -112 -94 -112c-61 0 -83 57 -122 57c-19 0 -33 -14 -33 -46h-62z" />
    <glyph glyph-name="Odieresis" unicode="&#xd6;" horiz-adv-x="798" 
d="M51 350c0 198 147 360 348 360s348 -162 348 -360s-147 -360 -348 -360s-348 162 -348 360zM399 616c-147 0 -242 -124 -242 -266s95 -266 242 -266s242 124 242 266s-95 266 -242 266zM230 846c0 35 29 63 64 63s64 -28 64 -63s-29 -64 -64 -64s-64 29 -64 64zM438 846
c0 35 29 63 64 63s64 -28 64 -63s-29 -64 -64 -64s-64 29 -64 64z" />
    <glyph glyph-name="Ugrave" unicode="&#xd9;" horiz-adv-x="688" 
d="M344 -10c-164 0 -267 114 -267 264v446h106v-446c0 -88 51 -170 161 -170c109 0 162 82 162 170v446h106v-446c0 -150 -104 -264 -268 -264zM308 775l-93 125h103l67 -125h-77z" />
    <glyph glyph-name="Uacute" unicode="&#xda;" horiz-adv-x="688" 
d="M344 -10c-164 0 -267 114 -267 264v446h106v-446c0 -88 51 -170 161 -170c109 0 162 82 162 170v446h106v-446c0 -150 -104 -264 -268 -264zM385 775h-81l68 125h105z" />
    <glyph glyph-name="Ucircumflex" unicode="&#xdb;" horiz-adv-x="688" 
d="M77 254v446h106v-446c0 -88 51 -170 161 -170c109 0 162 82 162 170v446h106v-446c0 -150 -104 -264 -268 -264s-267 114 -267 264zM257 765h-73l123 145h81l124 -145h-73l-91 85z" />
    <glyph glyph-name="Udieresis" unicode="&#xdc;" horiz-adv-x="688" 
d="M77 254v446h106v-446c0 -88 51 -170 161 -170c109 0 162 82 162 170v446h106v-446c0 -150 -104 -264 -268 -264s-267 114 -267 264zM242 772c-35 0 -64 29 -64 64s29 63 64 63s64 -28 64 -63s-29 -64 -64 -64zM386 836c0 35 29 63 64 63s64 -28 64 -63s-29 -64 -64 -64
s-64 29 -64 64z" />
    <glyph glyph-name="Yacute" unicode="&#xdd;" horiz-adv-x="616" 
d="M15 700h120l173 -322l173 322h121l-241 -427v-273h-106v273zM344 775h-80l67 125h106z" />
    <glyph glyph-name="agrave" unicode="&#xe0;" horiz-adv-x="556" 
d="M223 -10c-96 0 -168 64 -168 153c0 159 228 170 337 174v20c0 55 -54 89 -113 89c-57 0 -105 -35 -113 -87l-95 17c18 95 111 157 214 157c115 0 209 -77 209 -183v-330h-102v76c-38 -56 -89 -86 -169 -86zM392 239c-27 -1 -237 2 -237 -97c0 -48 44 -68 96 -68
c81 0 141 66 141 142v23zM240 588l-92 125h102l68 -125h-78z" />
    <glyph glyph-name="aacute" unicode="&#xe1;" horiz-adv-x="553" 
d="M215 -10c-96 0 -168 64 -168 153c0 159 227 170 337 174v20c0 55 -55 89 -113 89c-57 0 -106 -35 -113 -87l-95 17c18 95 110 157 213 157c116 0 209 -77 209 -183v-330h-101v76c-39 -56 -89 -86 -169 -86zM147 142c0 -48 44 -68 96 -68c81 0 141 66 141 142v23
c-28 -1 -237 2 -237 -97zM229 588l67 125h105l-92 -125h-80z" />
    <glyph glyph-name="acircumflex" unicode="&#xe2;" horiz-adv-x="564" 
d="M223 -10c-96 0 -168 64 -168 153c0 159 228 170 337 174v20c0 55 -54 89 -113 89c-57 0 -105 -35 -113 -87l-95 17c18 95 111 157 214 157c115 0 209 -77 209 -183v-330h-102v76c-38 -56 -89 -86 -169 -86zM155 142c0 -48 44 -68 96 -68c81 0 141 66 141 142v23
c-27 -1 -237 2 -237 -97zM190 577h-73l122 146h82l123 -146h-73l-90 85z" />
    <glyph glyph-name="atilde" unicode="&#xe3;" horiz-adv-x="569" 
d="M226 -10c-96 0 -168 64 -168 153c0 159 227 170 337 174v20c0 55 -55 89 -113 89c-57 0 -106 -35 -113 -87l-96 17c19 95 111 157 214 157c116 0 209 -77 209 -183v-330h-101v76c-39 -56 -89 -86 -169 -86zM395 239c-28 -1 -237 2 -237 -97c0 -48 44 -68 96 -68
c81 0 141 66 141 142v23zM125 619c-1 62 36 112 92 112c59 0 83 -57 123 -57c22 0 34 18 34 46h62c1 -64 -39 -112 -95 -112c-60 0 -82 57 -121 57c-19 0 -33 -14 -33 -46h-62z" />
    <glyph glyph-name="adieresis" unicode="&#xe4;" horiz-adv-x="575" 
d="M229 -10c-96 0 -169 64 -169 153c0 159 228 170 337 174v20c0 55 -54 89 -113 89c-56 0 -105 -35 -113 -87l-95 17c18 95 111 157 214 157c115 0 209 -77 209 -183v-330h-102v76c-38 -56 -89 -86 -168 -86zM161 142c0 -48 44 -68 96 -68c80 0 140 66 140 142v23
c-27 -1 -236 2 -236 -97zM179 585c-35 0 -64 28 -64 63s29 64 64 64c36 0 65 -29 65 -64s-29 -63 -65 -63zM388 585c-35 0 -64 28 -64 63s29 64 64 64s64 -29 64 -64s-29 -63 -64 -63z" />
    <glyph glyph-name="egrave" unicode="&#xe8;" horiz-adv-x="595" 
d="M308 -10c-152 0 -255 111 -255 261c0 147 101 262 251 262c153 0 246 -120 246 -269c0 -8 0 -16 -1 -24h-398c6 -83 73 -142 157 -142c57 0 110 26 136 78l95 -17c-43 -98 -127 -149 -231 -149zM155 299h294c-7 75 -74 127 -145 127c-75 0 -138 -52 -149 -127zM174 713
h103l67 -125h-77z" />
    <glyph glyph-name="eacute" unicode="&#xe9;" horiz-adv-x="593" 
d="M300 -10c-151 0 -255 111 -255 261c0 147 101 262 251 262c154 0 247 -120 247 -269c0 -8 -1 -16 -2 -24h-398c6 -83 73 -142 157 -142c57 0 110 26 136 78l95 -17c-42 -98 -127 -149 -231 -149zM147 299h294c-7 75 -73 127 -145 127c-75 0 -138 -52 -149 -127zM255 588
l68 125h105l-93 -125h-80z" />
    <glyph glyph-name="ecircumflex" unicode="&#xea;" horiz-adv-x="608" 
d="M310 -10c-151 0 -255 111 -255 261c0 147 101 262 252 262c153 0 246 -120 246 -269c0 -8 0 -16 -1 -24h-398c5 -83 72 -142 156 -142c58 0 111 26 136 78l96 -17c-43 -98 -127 -149 -232 -149zM157 299h294c-6 75 -73 127 -144 127c-75 0 -138 -52 -150 -127zM146 577
l122 146h82l123 -146h-73l-91 85l-90 -85h-73z" />
    <glyph glyph-name="edieresis" unicode="&#xeb;" horiz-adv-x="613" 
d="M313 -10c-151 0 -255 111 -255 261c0 147 101 262 251 262c154 0 247 -120 247 -269c0 -8 -1 -16 -2 -24h-398c6 -83 73 -142 157 -142c57 0 110 26 136 78l95 -17c-42 -98 -127 -149 -231 -149zM160 299h294c-7 75 -73 127 -145 127c-75 0 -138 -52 -149 -127zM350 648
c0 35 29 64 64 64s64 -29 64 -64s-29 -63 -64 -63s-64 28 -64 63zM142 648c0 35 29 64 64 64s64 -29 64 -64s-29 -63 -64 -63s-64 28 -64 63z" />
    <glyph glyph-name="igrave" unicode="&#xec;" horiz-adv-x="232" 
d="M178 0h-102v503h102v-503zM102 703l68 -125h-78l-93 125h103z" />
    <glyph glyph-name="iacute" unicode="&#xed;" horiz-adv-x="232" 
d="M155 0h-101v503h101v-503zM134 703h105l-93 -125h-80z" />
    <glyph glyph-name="icircumflex" unicode="&#xee;" horiz-adv-x="285" 
d="M92 503h101v-503h-101v503zM57 567h-73l122 146h82l123 -146h-73l-90 85z" />
    <glyph glyph-name="idieresis" unicode="&#xef;" horiz-adv-x="310" 
d="M104 0v503h102v-503h-102zM-10 638c0 35 29 64 64 64s64 -29 64 -64s-29 -63 -64 -63s-64 28 -64 63zM198 638c0 35 29 64 64 64s64 -29 64 -64s-29 -63 -64 -63s-64 28 -64 63z" />
    <glyph glyph-name="ntilde" unicode="&#xf1;" horiz-adv-x="578" 
d="M69 503h101v-80c29 46 85 90 161 90c115 0 184 -93 184 -188v-325h-101v301c0 66 -33 122 -109 122c-84 0 -135 -69 -135 -164v-259h-101v503zM143 619c-1 62 37 112 92 112c59 0 84 -57 123 -57c22 0 34 18 34 46h63c1 -64 -40 -112 -95 -112c-61 0 -83 57 -122 57
c-19 0 -33 -14 -33 -46h-62z" />
    <glyph glyph-name="ograve" unicode="&#xf2;" horiz-adv-x="614" 
d="M47 251c0 153 108 262 262 262s260 -109 260 -262s-106 -261 -260 -261c-155 0 -262 108 -262 261zM308 423c-100 0 -157 -74 -157 -172c0 -97 57 -172 157 -172c101 0 158 75 158 172c0 98 -57 172 -158 172zM270 588l-92 125h102l68 -125h-78z" />
    <glyph glyph-name="oacute" unicode="&#xf3;" horiz-adv-x="614" 
d="M45 251c0 153 107 262 261 262s261 -109 261 -262s-107 -261 -261 -261s-261 108 -261 261zM306 423c-101 0 -158 -74 -158 -172c0 -97 57 -172 158 -172c100 0 158 75 158 172c0 98 -58 172 -158 172zM265 588l67 125h105l-92 -125h-80z" />
    <glyph glyph-name="ocircumflex" unicode="&#xf4;" horiz-adv-x="611" 
d="M45 251c0 153 107 262 261 262s261 -109 261 -262s-107 -261 -261 -261s-261 108 -261 261zM148 251c0 -97 57 -172 158 -172c100 0 158 75 158 172c0 98 -58 172 -158 172c-101 0 -158 -74 -158 -172zM217 577h-73l123 146h81l124 -146h-73l-91 85z" />
    <glyph glyph-name="otilde" unicode="&#xf5;" horiz-adv-x="617" 
d="M47 251c0 153 108 262 262 262s260 -109 260 -262s-106 -261 -260 -261c-155 0 -262 108 -262 261zM151 251c0 -97 57 -172 157 -172c101 0 158 75 158 172c0 98 -57 172 -158 172c-100 0 -157 -74 -157 -172zM152 619c-1 62 37 112 92 112c59 0 84 -57 123 -57
c22 0 35 18 35 46h62c1 -64 -39 -112 -95 -112c-61 0 -83 57 -122 57c-19 0 -33 -14 -33 -46h-62z" />
    <glyph glyph-name="odieresis" unicode="&#xf6;" horiz-adv-x="622" 
d="M50 251c0 153 107 262 261 262s261 -109 261 -262s-106 -261 -261 -261c-154 0 -261 108 -261 261zM153 251c0 -97 58 -172 158 -172s158 75 158 172c0 98 -58 172 -158 172s-158 -74 -158 -172zM415 585c-35 0 -64 28 -64 63s29 64 64 64s64 -29 64 -64s-29 -63 -64 -63
zM143 648c0 35 29 64 64 64s64 -29 64 -64s-29 -63 -64 -63s-64 28 -64 63z" />
    <glyph glyph-name="yacute" unicode="&#xfd;" horiz-adv-x="530" 
d="M19 503h107l144 -367l133 367h108l-283 -723h-109l99 242zM228 578l67 125h106l-93 -125h-80z" />
    <glyph glyph-name="ydieresis" unicode="&#xff;" horiz-adv-x="545" 
d="M27 503h107l144 -367l133 367h108l-284 -723h-108l99 242zM109 638c0 35 29 64 64 64s64 -29 64 -64s-29 -63 -64 -63s-64 28 -64 63zM317 638c0 35 29 64 64 64s64 -29 64 -64s-29 -63 -64 -63s-64 28 -64 63z" />
    <glyph glyph-name="Ydieresis" unicode="&#x178;" horiz-adv-x="616" 
d="M15 700h120l173 -322l173 322h121l-241 -427v-273h-106v273zM201 772c-35 0 -64 29 -64 64s29 63 64 63s64 -28 64 -63s-29 -64 -64 -64zM409 772c-35 0 -64 29 -64 64s29 63 64 63s64 -28 64 -63s-29 -64 -64 -64z" />
    <glyph glyph-name="Egrave" unicode="&#xc8;" horiz-adv-x="577" 
d="M518 0h-435v700h435v-94h-329v-209h312v-91h-312v-212h329v-94zM266 775l-93 125h103l67 -125h-77z" />
    <glyph glyph-name="Eacute" unicode="&#xc9;" horiz-adv-x="577" 
d="M83 0v700h435v-94h-329v-209h312v-91h-312v-212h329v-94h-435zM342 775h-80l68 125h105z" />
    <glyph glyph-name="Ecircumflex" unicode="&#xca;" horiz-adv-x="577" 
d="M83 0v700h435v-94h-329v-209h312v-91h-312v-212h329v-94h-435zM142 765l123 145h81l123 -145h-73l-90 85l-91 -85h-73z" />
    <glyph glyph-name="Edieresis" unicode="&#xcb;" horiz-adv-x="577" 
d="M83 0v700h435v-94h-329v-209h312v-91h-312v-212h329v-94h-435zM344 836c0 35 29 63 64 63s64 -28 64 -63s-29 -64 -64 -64s-64 29 -64 64zM200 772c-36 0 -65 29 -65 64s29 63 65 63c35 0 64 -28 64 -63s-29 -64 -64 -64z" />
    <glyph glyph-name="ccedilla" unicode="&#xe7;" horiz-adv-x="570" 
d="M45 251c0 150 103 262 255 262c105 0 208 -68 229 -175l-97 -18c-16 63 -67 103 -133 103c-101 0 -152 -77 -152 -172c0 -94 51 -172 152 -172c66 0 117 40 133 103l97 -17c-20 -103 -115 -169 -215 -175l-18 -50c46 -8 78 -35 78 -85c0 -64 -57 -85 -112 -85
c-21 0 -45 3 -65 10l9 51c14 -4 32 -6 45 -6c19 0 47 8 47 33c0 35 -57 39 -83 39l28 99c-120 24 -198 125 -198 255z" />
    <glyph glyph-name="perthousand" unicode="&#x2030;" horiz-adv-x="1023" 
d="M596 -10c-99 0 -155 72 -155 168s55 169 154 169c49 0 93 -24 117 -58c25 34 69 58 118 58c99 0 154 -73 154 -169s-56 -168 -155 -168c-49 0 -92 25 -117 59c-25 -34 -67 -59 -116 -59zM39 542c0 98 57 168 158 168c100 0 157 -70 157 -168c0 -99 -57 -169 -157 -169
c-101 0 -158 70 -158 169zM95 0l500 700h104l-500 -700h-104zM754 158c0 -47 25 -84 72 -84s72 37 72 84c0 48 -25 85 -72 85s-72 -37 -72 -85zM197 627c-47 0 -73 -38 -73 -85c0 -48 26 -85 73 -85c46 0 72 37 72 85c0 47 -26 85 -72 85zM527 158c0 -47 25 -84 72 -84
s71 37 71 84c0 48 -24 85 -71 85s-72 -37 -72 -85z" />
    <glyph glyph-name="Aring" unicode="&#xc5;" horiz-adv-x="666" 
d="M137 0h-114l254 700h113l254 -700h-115l-52 154h-287zM333 739c-61 0 -114 43 -114 109c0 67 52 112 114 112s112 -46 112 -112c0 -65 -50 -109 -112 -109zM333 584l-115 -336h230zM280 848c0 -30 23 -51 52 -51s52 21 52 51c0 32 -22 55 -52 55c-29 0 -52 -23 -52 -55z
" />
    <glyph glyph-name="aring" unicode="&#xe5;" horiz-adv-x="548" 
d="M47 143c0 159 227 170 337 174v20c0 55 -55 89 -113 89c-57 0 -106 -35 -113 -87l-95 17c18 95 110 157 213 157c116 0 209 -77 209 -183v-330h-101v76c-39 -56 -89 -86 -169 -86c-96 0 -168 64 -168 153zM270 551c-61 0 -115 43 -115 110s53 112 115 112
s112 -46 112 -112s-50 -110 -112 -110zM384 239c-28 -1 -237 2 -237 -97c0 -48 44 -68 96 -68c81 0 141 66 141 142v23zM217 661c0 -31 23 -52 52 -52s52 21 52 52c0 32 -22 55 -52 55c-29 0 -52 -23 -52 -55z" />
    <glyph glyph-name="ugrave" unicode="&#xf9;" horiz-adv-x="588" 
d="M70 503h102v-302c0 -65 32 -121 108 -121c84 0 135 69 135 164v259h101v-503h-101v80c-29 -46 -85 -90 -161 -90c-115 0 -184 93 -184 188v325zM171 703h103l67 -125h-77z" />
    <glyph glyph-name="uacute" unicode="&#xfa;" horiz-adv-x="588" 
d="M67 178v325h102v-302c0 -65 33 -121 108 -121c84 0 135 69 135 164v259h102v-503h-102v80c-29 -46 -84 -90 -161 -90c-114 0 -184 93 -184 188zM338 578h-80l67 125h106z" />
    <glyph glyph-name="ucircumflex" unicode="&#xfb;" horiz-adv-x="585" 
d="M67 178v325h102v-302c0 -65 33 -121 108 -121c84 0 135 69 135 164v259h102v-503h-102v80c-29 -46 -84 -90 -161 -90c-114 0 -184 93 -184 188zM211 567h-73l122 146h82l123 -146h-73l-90 85z" />
    <glyph glyph-name="udieresis" unicode="&#xfc;" horiz-adv-x="601" 
d="M75 503h102v-302c0 -65 33 -121 108 -121c84 0 135 69 135 164v259h101v-503h-101v80c-29 -46 -84 -90 -161 -90c-114 0 -184 93 -184 188v325zM139 638c0 35 29 64 64 64s64 -29 64 -64s-29 -63 -64 -63s-64 28 -64 63zM347 638c0 35 29 64 64 64s64 -29 64 -64
s-29 -63 -64 -63s-64 28 -64 63z" />
    </font>
</defs>
</svg>
