<?xml version="1.0" encoding="UTF-8"?>
<svg id="Ebene_1" xmlns="http://www.w3.org/2000/svg" version="1.1" viewBox="0 0 2197 1661.6">
  <!-- Generator: Adobe Illustrator 30.5.1, SVG Export Plug-In . SVG Version: 2.1.4 Build 3)  -->
  <defs>
    <style>
      .st0 {
        fill: #fff;
      }

      .st1 {
        fill: #93aec8;
        isolation: isolate;
        opacity: .5;
      }

      .st2 {
        opacity: .2;
      }
    </style>
  </defs>
  <g class="st2">
    <path class="st1" d="M1144.5,461.8c3.8-41.4,33.8-52.9,33.8-52.9,3.1,76.7,66.7,76.7,105.9,59.8,39.1-16.9,62.1,3.8,62.1,3.8,0-53.7-65.2-73.6-65.2-73.6,62.1-58.3,39.9-84.4,39.9-84.4-53.7,14.6-68.3-21.5-68.3-21.5,18.4-67.5-60.6-116.6-57.5-108.9,2.3,7.7-1.5,46.8-20.7,69-18.4,22.2-44.5,38.4-47.6,72.1-2.3,33.8,45.3,59.1,45.3,59.1-39.1,16.9-50.6,52.9-54.5,78.2,3.8-.8,9.2-1.5,13.8-1.5s9.2,0,13,.8Z"/>
    <path class="st1" d="M1441.4,780.9c-9.2-3.1-18.4-6.9-25.3-10.7-59.8-32.2-75.2-123.5-40.7-180.3,16.9,11.5,32.2,15.3,39.9,9.2,7.7-6.9,3.1-23.8-8.4-42.2-3.8-6.1-9.2-12.3-14.6-18.4-6.1-6.1-12.3-10.7-18.4-14.6-18.4-12.3-35.3-16.1-42.2-8.4-6.9,6.9-3.1,23,8.4,39.9-57.5,33.8-149.6,18.4-181.8-41.4-3.8-6.9-7.7-16.1-10.7-25.3-4.6,1.5-10.7,2.3-16.1,2.3s-10.7-.8-15.3-1.5v2.3c28.4,128.9,176.4,112.8,176.4,112.8l-61.4,61.4c-2.3-6.9-5.4-13-10.7-18.4-17.6-17.6-46.8-17.6-64.4,0-17.6,17.6-17.6,46.8,0,64.4,0,0,.8,0,.8.8-5.4,2.3-10.7,5.4-15.3,10-17.6,17.6-17.6,46.8,0,64.4,17.6,17.6,46.8,17.6,64.4,0,4.6-4.6,7.7-10,10-15.3l1.5,1.5c17.6,17.6,46.8,17.6,64.4,0,17.6-17.6,17.6-46.8,0-64.4-5.4-5.4-12.3-9.2-19.2-10.7l61.4-61.4s-16.1,148.1,112.8,176.4h2.3c-.8-4.6-1.5-10-1.5-15.3,1.5-6.1,2.3-11.5,3.8-16.9Z"/>
    <path class="st1" d="M1148.4,488.7c11.5-2.3,16.9-7.7,16.9-13s-6.9-11.5-19.9-13c-3.8-.8-8.4-.8-13-.8s-9.2.8-13.8,1.5c-13,2.3-19.2,7.7-19.2,13.8-.8,4.6,5.4,10,16.9,12.3,4.6.8,10,1.5,15.3,1.5,6.1-.8,11.5-1.5,16.9-2.3Z"/>
    <path class="st1" d="M1780.5,161.9q-.8,0,0,0c-2.3-2.3-4.6-3.8-6.9-6.1-.8-.8-1.5-1.5-2.3-3.1-.8-1.5-2.3-3.1-3.8-3.8-21.5,23.8-104.3,107.4-178,75.9,0,0-25.3,9.2,21.5,55.2,0,0-31.5,35.3-25.3,63.7,28.4,6.1,64.4-25.3,64.4-25.3,46,47.6,55.2,21.5,55.2,21.5-32.2-72.9,51.4-156.5,75.2-178q0,.8,0,0Z"/>
    <path class="st1" d="M1467.5,811.6c25.3-3.8,60.6-15.3,78.2-54.5,0,0,25.3,47.6,59.1,45.3,33.8-2.3,49.9-28.4,72.1-47.6,22.2-18.4,61.4-23,69-20.7,7.7,2.3-41.4-76.7-108.9-57.5,0,0-36.1-14.6-21.5-68.3,0,0-26.1-22.2-84.4,39.9,0,0-20.7-65.2-73.6-65.2,0,0,20.7,23,3.8,62.1-17.6,39.1-17.6,102.8,59.1,105.9,0,0-11.5,29.9-52.2,33.8h-.8c.8,3.8.8,8.4.8,13s0,10-.8,13.8Z"/>
    <path class="st1" d="M1467.5,811.6c.8-4.6,1.5-9.2,1.5-13.8s0-9.2-.8-13c-2.3-13-6.9-19.9-13-20.7-5.4,0-10.7,5.4-13,16.9-1.5,5.4-2.3,10.7-2.3,16.1s.8,10.7,1.5,15.3c2.3,11.5,6.9,17.6,13,17.6,4.6.8,10.7-5.4,13-18.4Z"/>
    <path class="st1" d="M2006.8,510.9c39.9,10,69-20.7,108.2-59.1,39.1-39.1,80.5-41.4,80.5-41.4-29.2-29.2-85.1-8.4-85.1-8.4-16.1-16.1-22.3-25.3-22.3-25.3-10.7,22.2-29.9,28.4-29.9,28.4-23-23-42.2-12.3-42.2-12.3,46,49.1-14.6,77.5-40.7,55.2-17.6-15.3-15.3-60.6-1.5-127.3,13.8-64.4-33.8-60.6-36.1-60.6s-49.9-3.8-36.1,60.6c13.8,66,16.1,112-1.5,127.3-26.1,22.2-86.7-6.1-40.7-55.2,0,0-19.2-11.5-42.2,12.3,0,0-18.4-6.1-29.9-28.4,0,0-6.1,10-22.2,25.3,0,0-55.2-21.5-85.2,8.4,0,0,42.2,2.3,80.5,41.4,39.1,39.1,67.5,69.8,108.2,59.1,39.9-10,39.9-29.9,46.8-44.5,0,0,21.5,43.7,2.3,66-13.8,16.1-22.2,20.7-35.3,22.2-13,1.5,44.5,52.2,54.5,65.2,10-13,68.3-63.7,54.5-65.2-13-1.5-22.2-6.1-35.3-22.2-19.2-23,2.3-66,2.3-66,7.7,13.8,7.7,33.8,48.3,44.5Z"/>
    <path class="st1" d="M1117.7,1199.8c3.8,25.3,15.3,60.6,54.5,78.2,0,0-47.6,25.3-45.3,59.1,2.3,33.7,28.4,49.9,47.6,72.1,18.4,22.2,23,61.4,20.7,69-2.3,7.7,76.7-41.4,57.5-108.9,0,0,14.6-36.1,68.3-21.5,0,0,22.2-26.1-39.9-84.4,0,0,65.2-20.7,65.2-73.6,0,0-23,20.7-62.1,3.8-39.1-16.9-102.8-16.9-105.9,59.8,0,0-29.9-11.5-33.8-52.2v-.8c-3.8.8-8.4.8-13,.8-5.4-.8-10-.8-13.8-1.5Z"/>
    <path class="st1" d="M1244.3,1550.4c74.4-34.5,131.9-103.6,164.9-178.7,31.5-70.6,24.5-148.1,8.4-221.7,73.6,16.1,151.1,23,221.7-8.4,75.2-33,144.2-90.5,178.7-164.9,11.5-25.3,34.5-85.9,29.1-145.8,6.1-59.8-16.9-120.4-29.1-145.8-34.5-74.4-103.6-131.9-178.7-164.9-70.6-31.5-148.1-24.5-221.7-8.4,16.1-73.6,23-151.1-8.4-221.7-33-75.2-90.5-143.5-164.9-178.7-25.3-11.5-85.9-34.5-145.8-28.4v24.5c16.9-2.3,41.4.8,57.5,4.6,66,16.1,131.9,58.3,175.7,108.2,18.4,21.5,34.5,49.9,45.3,75.9,28.4,66,41.4,165.7-5.4,227.8,6.1,3.8,12.3,9.2,18.4,14.6,6.1,6.1,10.7,12.3,14.6,18.4,62.1-46,161.1-33,227.8-5.4,26.1,11.5,54.5,26.8,75.9,45.3,49.9,43.7,92.8,110.5,108.2,175.7,3.8,15.3,6.1,40.7,4.6,57.5,2.3,16.9-.8,41.4-4.6,57.5-16.1,66-58.3,131.9-108.2,175.7-21.5,18.4-49.9,34.5-75.9,45.3-66,28.4-165.7,41.4-227.8-5.4-3.8,6.1-9.2,12.3-14.6,18.4-6.1,6.1-12.3,10.7-18.4,14.6,46,62.1,33.8,161.1,5.4,227.8-11.5,26.1-26.9,54.5-45.3,75.9-43.7,49.9-110.5,92.8-175.7,108.2-15.3,3.8-40.7,6.9-57.5,4.6v24.6c59.8,7.7,120.4-15.3,145.8-26.8Z"/>
    <path class="st1" d="M1514.3,1246.6c.8,0,377.4,11.5,415-415.8-37.6-427.3-414.2-415.8-415-415.8,0-.8,12.3-377.4-415.8-415v26.8c75.9-3.1,161.9,27.6,223.2,71.3,30.7,22.2,57.5,47.6,82.8,75.2,99,105.1,80.5,270,80.5,270.8,0,0,165.7-18.4,270.8,80.5,27.6,26.1,52.9,52.2,75.2,82.8,43.7,61.4,74.4,146.5,71.3,223.2,3.1,75.9-27.6,161.9-71.3,223.2-22.2,30.7-47.6,57.5-75.2,82.8-105.1,99-270.8,80.5-270.8,80.5,0,.8,18.4,165.7-80.5,270.8-26.1,27.6-52.2,52.9-82.8,75.2-61.4,43.7-147.3,74.4-223.2,71.3v26.8c427.3-38.4,415.8-414.2,415.8-415Z"/>
    <path class="st0" d="M1404.6,1487.5c99-105.1,80.5-270,80.5-270.8,0,0,165.7,18.4,270.8-80.5,27.6-26.1,52.9-52.2,75.2-82.8,43.7-61.4,74.4-146.5,71.3-223.2,3.1-75.9-27.6-161.9-71.3-223.2-22.2-30.7-47.6-57.5-75.2-82.8-105.1-98.2-270.8-79.8-270.8-79.8,0-.8,18.4-165.7-80.5-270.8-26.1-27.6-52.2-52.9-82.8-75.2-61.4-43-147.3-73.6-223.2-70.6v55.2c59.8-6.1,120.4,16.9,145.8,29.2,74.4,34.5,131.9,103.6,164.9,178.7,31.5,70.6,24.5,148.1,8.4,221.7,73.6-16.1,151.1-23,221.7,8.4,75.2,33,144.2,90.5,178.7,164.9,11.5,25.3,34.5,85.9,29.1,145.8,6.1,59.8-16.9,120.4-29.1,145.8-34.5,74.4-103.6,131.9-178.7,164.9-70.6,31.5-148.1,24.5-221.7,8.4,16.1,73.6,23,151.1-8.4,221.7-33.8,75.2-90.5,144.2-164.9,178.7-25.3,11.5-85.9,34.5-145.8,29.2v55.2c75.9,3.1,161.9-27.6,223.2-71.3,30.7-23,56.8-49.1,82.8-76.7Z"/>
    <path class="st1" d="M1116.2,1172.2c-11.5,2.3-17.6,7.7-17.6,13s6.1,11.5,19.2,13.8c3.8.8,9.2,1.5,13.8,1.5s9.2,0,13-.8c13-2.3,19.9-6.9,19.9-13s-5.4-10.7-16.9-13c-4.6-1.5-10.7-2.3-16.1-2.3-5.4-.8-10.7,0-15.3.8Z"/>
    <path class="st1" d="M1390.8,1123.1c6.1-6.1,10.7-12.3,15.3-18.4,12.3-18.4,16.1-35.3,8.4-42.2-6.9-6.9-23-3.1-39.9,9.2-33.8-56-19.2-148.1,40.7-180.3,6.9-3.8,16.1-7.7,25.3-10.7-1.5-5.4-2.3-10.7-2.3-16.1s.8-10.7,1.5-15.3h-2.3c-128.9,27.6-112.8,176.4-112.8,176.4l-61.4-61.4c6.9-2.3,13-5.4,19.2-10.7,17.6-17.6,17.6-46.8,0-64.4-17.6-17.6-46.8-17.6-64.4,0q-.8.8-1.5,1.5c-2.3-5.4-5.4-10.7-10-15.3-17.6-17.6-46.8-17.6-64.4,0-17.6,17.6-17.6,46.8,0,64.4,4.6,4.6,10,7.7,15.3,10q-.8.8-1.5,1.5c-17.6,17.6-17.6,46.8,0,64.4,17.6,17.6,46.8,17.6,64.4,0,5.4-5.4,9.2-12.3,10.7-18.4l61.4,61.4s-148.1-16.1-176.4,112.8v2.3c4.6-.8,10-1.5,15.3-1.5s11.5.8,16.1,2.3c3.1-9.2,6.9-18.4,10.7-25.3,32.2-61.4,124.3-76.7,180.3-42.2-11.5,16.9-15.3,32.2-8.4,39.9,6.9,7.7,24.5,3.1,42.2-8.4,6.1-4.6,12.3-10,18.4-15.3Z"/>
    <path class="st1" d="M1771.3,1508.2c.8-.8,1.5-1.5,2.3-3.1,2.3-2.3,4.6-3.8,6.9-5.4-23.8-21.5-107.4-104.3-75.9-178,0,0-9.2-25.3-55.2,21.5,0,0-35.3-31.5-64.4-25.3-6.1,28.4,25.3,63.7,25.3,63.7-47.6,46-21.5,55.2-21.5,55.2,73.6-31.5,157.3,52.2,178,75.9,2.3-2.3,3.1-3.1,4.6-4.6Z"/>
    <path class="st1" d="M1520.4,910.6c-76.7,3.1-76.7,66.7-59.8,105.9,16.9,39.1-3.8,62.1-3.8,62.1,53.7,0,73.6-65.2,73.6-65.2,58.3,62.1,84.4,39.9,84.4,39.9-14.6-53.7,21.5-68.3,21.5-68.3,67.5,18.4,116.6-60.6,108.9-57.5-7.7,2.3-46.8-1.5-69-20.7-22.2-18.4-38.4-44.5-72.1-47.6-33.8-2.3-59.1,45.3-59.1,45.3-16.9-39.1-52.2-50.6-78.2-54.5.8,4.6,1.5,9.2,1.5,13.8s0,9.2-.8,13h.8c40.7,3.8,52.2,33.8,52.2,33.8Z"/>
    <path class="st1" d="M1441.4,880.7c3.1,10.7,7.7,16.9,13,16.9s11.5-7.7,13-20.7c.8-3.8.8-8.4.8-13s-.8-9.2-1.5-13.8c-2.3-13-7.7-19.2-13.8-19.2s-10.7,6.1-13,17.6c-.8,4.6-1.5,10-1.5,15.3.8,6.1,1.5,11.5,3.1,16.9Z"/>
    <path class="st1" d="M1993,1107c13-1.5-44.5-52.2-54.5-65.2-10,13-68.3,63.7-54.5,65.2,13,1.5,22.2,6.1,35.3,22.2,19.2,23-2.3,66-2.3,66-6.1-13.8-6.1-33.8-46.8-44.5-39.9-10-69,20.7-108.2,59.1-39.1,39.1-80.5,41.4-80.5,41.4,29.2,29.2,85.2,8.4,85.2,8.4,16.1,16.1,22.2,25.3,22.2,25.3,10.7-22.2,29.9-28.4,29.9-28.4,23,23,42.2,12.3,42.2,12.3-46-49.1,14.6-77.5,40.7-55.2,17.6,15.3,15.3,60.6,1.5,127.3-13.8,64.4,33.8,60.6,36.1,60.6s49.9,3.8,36.1-60.6c-13.8-66-16.1-112,1.5-127.3,26.1-22.2,86.7,6.1,40.7,55.2,0,0,19.2,11.5,42.2-12.3,0,0,18.4,6.1,29.9,28.4,0,0,6.1-10,22.2-25.3,0,0,55.2,21.5,85.2-8.4,0,0-42.2-2.3-80.6-41.4-39.1-39.1-67.5-69.8-108.2-59.1-39.9,10-39.9,29.9-46.8,44.5,0,0-21.5-43.7-2.3-66,11.5-16.9,20.7-20.7,33.8-22.2Z"/>
  </g>
  <g class="st2">
    <path class="st1" d="M1065.5,461c4.6,0,10,.8,13.8,1.5-3.8-25.3-15.3-61.4-54.5-78.2,0,0,47.6-25.3,45.3-59.1-3.1-33.8-29.2-49.9-47.6-72.1-19.2-22.2-23-61.4-20.7-69,3.1-7.7-75.9,41.4-57.5,108.9,0,0-14.6,36.1-68.3,21.5,0,0-22.2,26.1,39.9,84.4,0,0-65.2,19.9-65.2,73.6,0,0,23-20.7,62.1-3.8,39.1,16.9,102.8,16.9,105.9-59.8,0,0,29.9,11.5,33.8,52.9,3.8-.8,8.4-.8,13-.8Z"/>
    <path class="st1" d="M759.5,797.8c0,5.4-.8,10.7-1.5,15.3h2.3c128.9-28.4,112.8-176.4,112.8-176.4l61.4,61.4c-6.9,1.5-13.8,5.4-19.2,10.7-17.6,17.6-17.6,46.8,0,64.4,17.6,17.6,46.8,17.6,64.4,0l1.5-1.5c2.3,5.4,5.4,10.7,10,15.3,17.6,17.6,46.8,17.6,64.4,0,17.6-17.6,17.6-46.8,0-64.4-4.6-4.6-10-7.7-15.3-10,0-.8.8-.8.8-.8,17.6-17.6,17.6-46.8,0-64.4-17.6-17.6-46.8-17.6-64.4,0-5.4,5.4-8.4,11.5-10.7,18.4l-61.4-61.4s148.1,16.1,176.4-112.8v-2.3c-4.6.8-10,1.5-15.3,1.5s-11.5-.8-16.1-2.3c-3.1,9.2-6.9,18.4-10.7,25.3-32.2,59.8-124.3,75.2-181.8,41.4,11.5-16.9,15.3-33,8.4-39.9-6.9-7.7-23.8-3.8-42.2,8.4-6.1,3.8-12.3,8.4-18.4,14.6-5.4,6.1-10.7,12.3-14.6,18.4-11.5,18.4-16.1,35.3-8.4,42.2,7.7,6.1,23,2.3,39.9-9.2,34.5,56.8,19.2,148.1-40.7,180.3-6.9,3.8-16.1,7.7-25.3,10.7,1.5,5.4,2.3,10.7,3.8,16.9Z"/>
    <path class="st1" d="M1065.5,491c5.4,0,10.7-.8,15.3-1.5,11.5-2.3,17.6-7.7,16.9-12.3,0-6.1-6.1-11.5-19.2-13.8-4.6-.8-9.2-1.5-13.8-1.5s-9.2,0-13,.8c-13,1.5-19.9,6.9-19.9,13s5.4,10.7,16.9,13c5.4.8,10.7,1.5,16.9,2.3Z"/>
    <path class="st1" d="M416.5,161.9c23.8,21.5,107.4,105.1,75.2,178,0,0,9.2,26.1,55.2-21.5,0,0,36.1,31.5,64.4,25.3,6.1-28.4-25.3-63.7-25.3-63.7,46.8-46,21.5-55.2,21.5-55.2-73.6,31.5-156.5-52.2-178-75.9-1.5.8-3.1,2.3-3.8,3.8-.8,1.5-1.5,2.3-2.3,3.1-2.3,2.3-4.6,3.8-6.9,6.1q.8,0,0,0t0,0Z"/>
    <path class="st1" d="M728.8,797.8c0-4.6,0-9.2.8-13h-.8c-40.7-3.8-52.2-33.8-52.2-33.8,76.7-3.1,76.7-66.7,59.1-105.9-16.9-39.1,3.8-62.1,3.8-62.1-52.9,0-73.6,65.2-73.6,65.2-58.3-62.1-84.4-39.9-84.4-39.9,14.6,53.7-21.5,68.3-21.5,68.3-67.5-19.2-116.6,59.8-108.9,57.5,7.7-2.3,46.8,2.3,69,20.7,22.2,19.2,38.4,45.3,72.1,47.6,33.8,2.3,59.1-45.3,59.1-45.3,17.6,39.1,52.9,50.6,78.2,54.5-.8-3.8-.8-8.4-.8-13.8Z"/>
    <path class="st1" d="M742.6,830c6.1,0,10.7-6.1,13-17.6.8-4.6,1.5-10,1.5-15.3s-.8-10.7-2.3-16.1c-2.3-11.5-7.7-16.9-13-16.9-6.1.8-10.7,7.7-13,20.7-.8,3.8-.8,8.4-.8,13s.8,9.2,1.5,13.8c2.3,13,8.4,19.2,13,18.4Z"/>
    <path class="st1" d="M238.6,466.4s21.5,43,2.3,66c-13,16.1-22.2,20.7-35.3,22.2-13.8,1.5,44.5,52.2,54.5,65.2,10-13,67.5-63.7,54.5-65.2-13-1.5-21.5-6.1-35.3-22.2-19.2-22.2,2.3-66,2.3-66,6.9,14.6,6.9,34.5,46.8,44.5,40.7,10.7,69-19.9,108.2-59.1,38.4-39.1,80.5-41.4,80.5-41.4-29.9-29.9-85.2-8.4-85.2-8.4-16.1-15.3-22.2-25.3-22.2-25.3-11.5,22.2-29.9,28.4-29.9,28.4-23-23.8-42.2-12.3-42.2-12.3,46,49.1-14.6,77.5-40.7,55.2-17.6-15.3-15.3-61.4-1.5-127.3,13.8-64.4-33.8-60.6-36.1-60.6s-49.9-3.8-36.1,60.6c13.8,66.7,16.1,112-1.5,127.3-26.1,22.2-86.7-6.1-40.7-55.2,0,0-19.2-10.7-42.2,12.3,0,0-19.2-6.1-29.9-28.4,0,0-6.1,9.2-22.3,25.3,0,0-56-20.7-85.1,8.4,0,0,41.4,2.3,80.5,41.4,39.1,38.4,68.3,69,108.2,59.1,40.7-10.7,40.7-30.7,48.3-44.5Z"/>
    <path class="st1" d="M1065.5,1201.3c-4.6,0-9.2,0-13-.8v.8c-3.8,40.7-33.8,52.2-33.8,52.2-3.1-76.7-66.7-76.7-105.9-59.8-39.1,16.9-62.1-3.8-62.1-3.8,0,52.9,65.2,73.6,65.2,73.6-62.1,58.3-39.9,84.4-39.9,84.4,53.7-14.6,68.3,21.5,68.3,21.5-19.2,67.5,59.8,116.6,57.5,108.9-2.3-7.7,2.3-46.8,20.7-69,19.2-22.2,45.3-38.4,47.6-72.1,2.3-33.8-45.3-59.1-45.3-59.1,39.1-17.6,50.6-52.9,54.5-78.2-3.8.8-8.4.8-13.8,1.5Z"/>
    <path class="st1" d="M1098.5,1577.2v-24.6c-16.9,2.3-42.2-.8-57.5-4.6-65.2-15.3-131.9-58.3-175.7-108.2-18.4-21.5-33.8-49.9-45.3-75.9-28.4-66.7-40.7-165.7,5.4-227.8-6.1-3.8-12.3-8.4-18.4-14.6-5.4-6.1-10.7-12.3-14.6-18.4-62.1,46.8-161.9,33.8-227.8,5.4-26.1-10.7-54.5-26.8-75.9-45.3-49.9-43.7-92.1-109.7-108.2-175.7-3.8-16.1-6.9-40.7-4.6-57.5-1.5-16.9.8-42.2,4.6-57.5,15.3-65.2,58.3-131.9,108.2-175.7,21.5-18.4,49.9-33.8,75.9-45.3,66.7-27.6,165.7-40.7,227.8,5.4,3.8-6.1,8.4-12.3,14.6-18.4,6.1-5.4,12.3-10.7,18.4-14.6-46.8-62.1-33.8-161.9-5.4-227.8,10.7-26.1,26.9-54.5,45.3-75.9,43.7-49.9,109.7-92.1,175.7-108.2,16.1-3.8,40.7-6.9,57.5-4.6v-24.5c-59.8-6.1-120.4,16.9-145.8,28.4-74.4,35.3-131.9,103.6-164.9,178.7-31.5,70.6-24.5,148.1-8.4,221.7-73.6-16.1-151.1-23-221.7,8.4-75.2,33-144.2,90.5-178.7,164.9-12.3,25.3-35.3,85.9-29.1,145.8-5.4,59.8,17.6,120.4,29.1,145.8,34.5,74.4,103.6,131.9,178.7,164.9,70.6,31.5,148.1,24.5,221.7,8.4-16.1,73.6-23,151.1,8.4,221.7,33,75.2,90.5,144.2,164.9,178.7,25.3,11.5,85.9,34.5,145.8,26.8Z"/>
    <path class="st1" d="M1098.5,1661.6v-26.8c-75.9,3.1-161.9-27.6-223.2-71.3-30.7-22.2-56.8-47.6-82.8-75.2-99-105.1-80.5-270-80.5-270.8,0,0-165.7,18.4-270.8-80.5-27.6-25.3-52.9-52.2-75.2-82.8-43.7-61.4-74.4-147.3-71.3-223.2-3.1-76.7,27.6-161.9,71.3-223.2,22.2-30.7,47.6-56.8,75.2-82.8,105.1-99,270.8-80.5,270.8-80.5,0-.8-18.4-165.7,80.5-270.8,25.3-27.6,52.2-52.9,82.8-75.2,61.4-43.7,147.3-74.4,223.2-71.3V0c-428.1,37.6-415.8,414.2-415.8,415-.8,0-377.4-11.5-415,415.8,37.6,427.3,414.2,415.8,415,415.8,0,.8-11.5,376.7,415.8,415Z"/>
    <path class="st0" d="M875.3,1564.2c61.4,43.7,147.3,74.4,223.2,71.3v-55.2c-59.8,5.4-120.4-17.6-145.8-29.2-74.4-34.5-131.2-103.6-164.9-178.7-31.5-70.6-24.5-148.1-8.4-221.7-73.6,16.1-151.1,23-221.7-8.4-75.2-33-144.2-90.5-178.7-164.9-12.3-25.3-35.3-85.9-29.1-145.8-5.4-59.8,17.6-120.4,29.1-145.8,34.5-74.4,103.6-131.9,178.7-164.9,70.6-31.5,148.1-24.5,221.7-8.4-16.1-73.6-23-151.1,8.4-221.7,33-75.2,90.5-144.2,164.9-178.7,25.3-12.3,85.9-35.3,145.8-29.2V27.6c-75.9-3.1-161.9,27.6-223.2,70.6-30.7,22.2-56.8,47.6-82.8,75.2-99,105.1-80.5,270-80.5,270.8,0,0-165.7-18.4-270.8,79.8-27.6,25.3-52.9,52.2-75.2,82.8-43.7,61.4-74.4,147.3-71.3,223.2-3.1,76.7,27.6,161.9,71.3,223.2,22.2,30.7,47.6,56.8,75.2,82.8,105.1,99,270.8,80.5,270.8,80.5,0,.8-18.4,165.7,80.5,270.8,26.1,27.6,52.2,53.7,82.8,76.7Z"/>
    <path class="st1" d="M1065.5,1171.4c-5.4,0-11.5.8-16.1,2.3-11.5,2.3-16.9,7.7-16.9,13s6.9,10.7,19.9,13c3.8.8,8.4.8,13,.8,4.6,0,10-.8,13.8-1.5,13-2.3,19.2-7.7,19.2-13.8,0-5.4-6.1-10.7-17.6-13-4.6-.8-10-1.5-15.3-.8Z"/>
    <path class="st1" d="M824.7,1138.4c17.6,11.5,35.3,16.1,42.2,8.4,6.9-7.7,3.1-23-8.4-39.9,56-34.5,148.1-19.2,180.3,42.2,3.8,6.9,7.7,16.1,10.7,25.3,4.6-1.5,10-2.3,16.1-2.3s10.7.8,15.3,1.5v-2.3c-28.4-128.9-176.4-112.8-176.4-112.8l61.4-61.4c1.5,6.1,5.4,13,10.7,18.4,17.6,17.6,46.8,17.6,64.4,0,17.6-17.6,17.6-46.8,0-64.4q-.8-.8-1.5-1.5c5.4-2.3,10.7-5.4,15.3-10,17.6-17.6,17.6-46.8,0-64.4-17.6-17.6-46.8-17.6-64.4,0-4.6,4.6-7.7,10-10,15.3q-.8-.8-1.5-1.5c-17.6-17.6-46.8-17.6-64.4,0-17.6,17.6-17.6,46.8,0,64.4,6.1,5.4,12.3,8.4,19.2,10.7l-61.4,61.4s16.1-148.8-112.8-176.4h-2.3c.8,4.6,1.5,10,1.5,15.3s-.8,10.7-2.3,16.1c9.2,3.1,18.4,6.9,25.3,10.7,59.8,32.2,74.4,124.3,40.7,180.3-16.9-12.3-33-16.1-39.9-9.2-7.7,6.9-3.8,23.8,8.4,42.2,4.6,6.1,9.2,12.3,15.3,18.4,6.1,5.4,12.3,10.7,18.4,15.3Z"/>
    <path class="st1" d="M430.4,1512.8c20.7-23.8,104.3-107.4,178-75.9,0,0,26.1-9.2-21.5-55.2,0,0,31.5-35.3,25.3-63.7-29.2-6.1-64.4,25.3-64.4,25.3-46-46.8-55.2-21.5-55.2-21.5,31.5,73.6-52.2,156.5-75.9,178,2.3,1.5,4.6,3.1,6.9,5.4.8,1.5,1.5,2.3,2.3,3.1,1.5,1.5,2.3,2.3,4.6,4.6Z"/>
    <path class="st1" d="M728.8,876.8h.8c-.8-3.8-.8-8.4-.8-13s.8-9.2,1.5-13.8c-26.1,3.8-61.4,15.3-78.2,54.5,0,0-25.3-47.6-59.1-45.3-33.8,3.1-49.9,29.2-72.1,47.6-22.2,19.2-61.4,23-69,20.7-7.7-3.1,41.4,75.9,108.9,57.5,0,0,36.1,14.6,21.5,68.3,0,0,26.1,22.2,84.4-39.9,0,0,19.9,65.2,73.6,65.2,0,0-20.7-23-3.8-62.1,16.9-39.1,16.9-102.8-59.8-105.9,0,0,11.5-29.9,52.2-33.8Z"/>
    <path class="st1" d="M758.7,863.8c0-5.4-.8-10.7-1.5-15.3-2.3-11.5-6.9-17.6-13-17.6s-11.5,6.1-13.8,19.2c-.8,4.6-1.5,9.2-1.5,13.8s0,9.2.8,13c1.5,13,6.9,20.7,13,20.7s10-6.1,13-16.9c1.5-5.4,2.3-10.7,3.1-16.9Z"/>
    <path class="st1" d="M237.8,1129.2c19.2,22.2-2.3,66-2.3,66-6.9-14.6-6.9-34.5-46.8-44.5-40.7-10.7-69,19.9-108.2,59.1-38.4,39.1-80.6,41.4-80.6,41.4,29.9,29.9,85.2,8.4,85.2,8.4,16.1,15.3,22.2,25.3,22.2,25.3,11.5-22.2,29.9-28.4,29.9-28.4,23,23.8,42.2,12.3,42.2,12.3-46-49.1,14.6-77.5,40.7-55.2,17.6,15.3,15.3,61.4,1.5,127.3-13.8,64.4,33.8,60.6,36.1,60.6s49.9,3.8,36.1-60.6c-13.8-66.7-16.1-112,1.5-127.3,26.1-22.2,86.7,6.1,40.7,55.2,0,0,19.2,10.7,42.2-12.3,0,0,19.2,6.1,29.9,28.4,0,0,6.1-9.2,22.2-25.3,0,0,56,20.7,85.2-8.4,0,0-41.4-2.3-80.5-41.4-39.1-38.4-68.3-69-108.2-59.1-40.7,10.7-40.7,30.7-46.8,44.5,0,0-21.5-43-2.3-66,13-16.1,22.2-20.7,35.3-22.2,13.8-1.5-44.5-52.2-54.5-65.2-10,13-67.5,63.7-54.5,65.2,13,1.5,22.2,5.4,33.8,22.2Z"/>
  </g>
</svg>